<?xml version="1.0" encoding="UTF-8" standalone="no"?>
<svg
   xmlns:dc="http://purl.org/dc/elements/1.1/"
   xmlns:cc="http://creativecommons.org/ns#"
   xmlns:rdf="http://www.w3.org/1999/02/22-rdf-syntax-ns#"
   xmlns:svg="http://www.w3.org/2000/svg"
   xmlns="http://www.w3.org/2000/svg"
   xmlns:xlink="http://www.w3.org/1999/xlink"
   xmlns:sodipodi="http://sodipodi.sourceforge.net/DTD/sodipodi-0.dtd"
   xmlns:inkscape="http://www.inkscape.org/namespaces/inkscape"
   width="628.255"
   height="423.59799"
   viewBox="0 0 166.2258 112.07697"
   version="1.1"
   id="svg8"
   inkscape:version="1.0.2-2 (e86c870879, 2021-01-15)"
   sodipodi:docname="illustration1.svg">
  <defs
     id="defs2">
    <linearGradient
       inkscape:collect="always"
       xlink:href="#linearGradient1460"
       id="linearGradient2741"
       gradientUnits="userSpaceOnUse"
       x1="113.94262"
       y1="303.42584"
       x2="122.07173"
       y2="307.8291" />
    <linearGradient
       inkscape:collect="always"
       id="linearGradient1460">
      <stop
         style="stop-color:#ffce39;stop-opacity:1;"
         offset="0"
         id="stop1456" />
      <stop
         style="stop-color:#f8981c;stop-opacity:1"
         offset="1"
         id="stop1458" />
    </linearGradient>
    <linearGradient
       inkscape:collect="always"
       xlink:href="#linearGradient1460"
       id="linearGradient1480"
       x1="112.09379"
       y1="300.60324"
       x2="115.07167"
       y2="300.60324"
       gradientUnits="userSpaceOnUse" />
    <linearGradient
       inkscape:collect="always"
       xlink:href="#linearGradient1460"
       id="linearGradient1472"
       x1="121.28141"
       y1="300.99841"
       x2="124.79443"
       y2="302.41486"
       gradientUnits="userSpaceOnUse"
       gradientTransform="matrix(0.99109159,0.07066817,-0.07867018,1.1033164,24.764626,-40.007969)" />
  </defs>
  <sodipodi:namedview
     id="base"
     pagecolor="#ffffff"
     bordercolor="#666666"
     borderopacity="1.0"
     inkscape:pageopacity="0.0"
     inkscape:pageshadow="2"
     inkscape:zoom="0.98994949"
     inkscape:cx="400"
     inkscape:cy="250.61637"
     inkscape:document-units="mm"
     inkscape:current-layer="layer1"
     inkscape:document-rotation="0"
     showgrid="false"
     units="px"
     inkscape:window-width="1680"
     inkscape:window-height="987"
     inkscape:window-x="-8"
     inkscape:window-y="-8"
     inkscape:window-maximized="1" />
  <metadata
     id="metadata5">
    <rdf:RDF>
      <cc:Work
         rdf:about="">
        <dc:format>image/svg+xml</dc:format>
        <dc:type
           rdf:resource="http://purl.org/dc/dcmitype/StillImage" />
        <dc:title></dc:title>
      </cc:Work>
    </rdf:RDF>
  </metadata>
  <g
     inkscape:label="Calque 1"
     inkscape:groupmode="layer"
     id="layer1">
    <g
       id="g8510"
       transform="translate(-21.887096,-231.49904)">
      <rect
         x="166.68225"
         y="169.41054"
         width="114.34113"
         height="61.088791"
         transform="rotate(31.45906)"
         fill="#f2f2f2"
         id="rect6"
         style="fill:#dfefff;fill-opacity:1;stroke-width:0.178101" />
      <circle
         cx="164.03525"
         cy="314.14941"
         r="2.0890121"
         fill="#ff6584"
         id="circle12"
         style="fill:#f8981c;fill-opacity:1;stroke-width:0.178101" />
      <line
         x1="180.50351"
         y1="336.88956"
         x2="180.50351"
         y2="313.10419"
         fill="#3f3d56"
         stroke="#3f3d56"
         stroke-miterlimit="10"
         stroke-width="0.356203"
         id="line14" />
      <circle
         cx="180.50351"
         cy="313.10419"
         r="3.3635879"
         fill="#3f3d56"
         id="circle16"
         style="fill:#ffce39;fill-opacity:1;stroke-width:0.178101" />
      <path
         d="m 173.87907,326.42178 c -4.85854,7.45079 -3.5273,16.92725 -3.5273,16.92725 0,0 9.2085,-2.60367 14.06703,-10.05448 4.85853,-7.4508 3.5273,-16.92725 3.5273,-16.92725 0,0 -9.20848,2.60368 -14.06703,10.05448 z"
         fill="#3f3d56"
         id="path18"
         style="fill:#20204c;fill-opacity:1;stroke-width:0.178101" />
      <path
         d="m 170.32593,343.26238 c 0,0 -0.11828,-0.0188 -0.33597,-0.0629 -0.17363,-0.0352 -0.4127,-0.0855 -0.70461,-0.15477 -2.60963,-0.61529 -9.54767,-2.69518 -14.08368,-8.16357 -5.67726,-6.84743 -5.4382,-16.41397 -5.4382,-16.41397 0,0 8.68073,1.41051 14.40077,7.55961 q 0.37181,0.39635 0.7235,0.82164 c 4.93992,5.95785 5.40043,13.97421 5.43693,15.95597 0.005,0.29696 0.001,0.45801 0.001,0.45801 z"
         fill="#6c63ff"
         id="path20"
         style="fill:#209ce9;fill-opacity:1;stroke-width:0.178101" />
      <path
         d="m 166.82448,326.42178 c 4.85854,7.45079 3.52729,16.92725 3.52729,16.92725 0,0 -9.20849,-2.60367 -14.06702,-10.05448 -4.85855,-7.4508 -3.52731,-16.92725 -3.52731,-16.92725 0,0 9.2085,2.60368 14.06704,10.05448 z"
         fill="none"
         stroke="#3f3d56"
         stroke-miterlimit="10"
         stroke-width="0.356203"
         id="path22-1" />
      <path
         d="m 170.32467,342.80438 c -0.12835,0.15477 -0.24159,0.28688 -0.33471,0.39508 -0.20634,0.2353 -0.32337,0.35862 -0.32337,0.35862 0,0 -0.14217,-0.17869 -0.38124,-0.51338 -1.31237,-1.8295 -5.53382,-8.3347 -5.20793,-15.84901 q 0.0265,-0.59075 0.0868,-1.16892 0.37181,0.39635 0.7235,0.82163 c 4.93992,5.95786 5.40043,13.97423 5.43693,15.95598 z"
         opacity="0.1"
         id="path24"
         style="stroke-width:0.178101" />
      <path
         d="m 177.52861,327.7391 c -0.38403,8.88663 -6.98077,15.81905 -6.98077,15.81905 0,0 -5.9741,-7.47566 -5.59007,-16.3623 0.38403,-8.88663 6.98077,-15.81905 6.98077,-15.81905 0,0 5.97411,7.47566 5.59007,16.3623 z"
         fill="#6c63ff"
         id="path26"
         style="fill:#209ce9;fill-opacity:1;stroke-width:0.178101" />
      <line
         x1="170.54785"
         y1="343.30649"
         x2="171.99815"
         y2="311.73926"
         fill="none"
         stroke="#3f3d56"
         stroke-miterlimit="10"
         stroke-width="0.356203"
         id="line28" />
      <line
         x1="32.122871"
         y1="343.34106"
         x2="182.80031"
         y2="343.34106"
         fill="none"
         stroke="#3f3d56"
         stroke-miterlimit="10"
         stroke-width="0.356203"
         id="line30" />
      <circle
         cx="64.124825"
         cy="297.23355"
         r="7.6102347"
         fill="#6c63ff"
         id="circle32"
         style="fill:#209ce9;fill-opacity:1;stroke-width:0.178101" />
      <circle
         cx="51.189384"
         cy="315.14417"
         r="7.6102347"
         fill="#6c63ff"
         id="circle34"
         style="fill:#209ce9;fill-opacity:1;stroke-width:0.178101" />
      <circle
         cx="35.268845"
         cy="329.44778"
         r="7.6102347"
         fill="#6c63ff"
         id="circle36"
         style="fill:#209ce9;fill-opacity:1;stroke-width:0.178101" />
      <line
         x1="35.262077"
         y1="343.21057"
         x2="35.262077"
         y2="329.40591"
         fill="#3f3d56"
         stroke="#3f3d56"
         stroke-miterlimit="10"
         stroke-width="0.356203"
         id="line38" />
      <circle
         cx="35.262077"
         cy="329.40591"
         r="1.952175"
         fill="#3f3d56"
         id="circle40"
         style="stroke-width:0.178101" />
      <path
         d="m 35.262078,337.91403 c 0,0 -0.278882,-5.99817 -5.995968,-5.30096"
         fill="#3f3d56"
         id="path42"
         style="stroke-width:0.178101" />
      <line
         x1="64.129601"
         y1="343.30743"
         x2="64.129601"
         y2="297.26151"
         fill="#3f3d56"
         stroke="#3f3d56"
         stroke-miterlimit="10"
         stroke-width="0.356203"
         id="line44" />
      <circle
         cx="64.129601"
         cy="297.23969"
         r="1.952175"
         fill="#3f3d56"
         id="circle46"
         style="stroke-width:0.178101" />
      <circle
         cx="58.133629"
         cy="330.55417"
         r="1.952175"
         fill="#3f3d56"
         id="circle48"
         style="stroke-width:0.178101" />
      <path
         d="m 64.129602,307.21151 c 0,0 -0.278881,-5.99817 -5.995968,-5.30096"
         fill="#3f3d56"
         id="path50"
         style="stroke-width:0.178101" />
      <path
         d="m 64.129602,324.21563 c 0,0 -0.278881,-5.99816 -5.995968,-5.30096"
         fill="#3f3d56"
         id="path52"
         style="stroke-width:0.178101" />
      <path
         d="m 64.129602,342.77082 c 0,0 1.254967,-11.6589 -5.995968,-12.21666"
         fill="none"
         stroke="#3f3d56"
         stroke-miterlimit="10"
         stroke-width="0.356203"
         id="path54" />
      <circle
         cx="70.126419"
         cy="330.55417"
         r="1.952175"
         fill="#3f3d56"
         id="circle56"
         style="stroke-width:0.178101" />
      <path
         d="m 64.130457,342.77082 c 0,0 -1.254974,-11.6589 5.995961,-12.21666"
         fill="none"
         stroke="#3f3d56"
         stroke-miterlimit="10"
         stroke-width="0.356203"
         id="path58" />
      <circle
         cx="70.245331"
         cy="312.24203"
         r="1.952175"
         fill="#3f3d56"
         id="circle60"
         style="stroke-width:0.178101" />
      <path
         d="m 64.24936,323.83679 c 0,0 -1.254967,-11.037 5.995968,-11.59475"
         fill="none"
         stroke="#3f3d56"
         stroke-miterlimit="10"
         stroke-width="0.356203"
         id="path62" />
      <line
         x1="51.196327"
         y1="343.24252"
         x2="51.196327"
         y2="315.13565"
         fill="#3f3d56"
         stroke="#3f3d56"
         stroke-miterlimit="10"
         stroke-width="0.356203"
         id="line64" />
      <circle
         cx="51.196327"
         cy="315.13565"
         r="1.952175"
         fill="#3f3d56"
         id="circle66"
         style="stroke-width:0.178101" />
      <path
         d="m 51.196328,323.08599 c 0,0 -0.278881,-5.99817 -5.995961,-5.30096"
         fill="#3f3d56"
         id="path68"
         style="stroke-width:0.178101" />
      <path
         d="m 51.196328,342.7059 c 0,0 1.254974,-11.53452 -5.995961,-12.09228"
         fill="none"
         stroke="#3f3d56"
         stroke-miterlimit="10"
         stroke-width="0.356203"
         id="path70" />
      <circle
         cx="45.200359"
         cy="330.61362"
         r="1.952175"
         fill="#3f3d56"
         id="circle72"
         style="stroke-width:0.178101" />
      <path
         d="m 147.86895,343.49407 h -6.23578 l -23.66488,-36.89613 -24.025817,36.89613 h -6.184199 l 26.927346,-41.80006 -24.528506,-38.3983 h 6.357138 l 21.555188,33.77414 22.01129,-33.77414 h 5.9648 l -24.79241,38.28884 z"
         fill="#209ce9"
         id="path2"
         style="stroke-width:0.118851" />
      <path
         d="m 93.672442,299.25007 h 48.484498 v 4.5614 H 93.672442 Z m 0,13.68396 h 48.486528 v 4.5614 H 93.670421 Z"
         fill="#209ce9"
         id="path4"
         style="stroke-width:0.118851" />
      <path
         d="m 124.86497,311.13548 c -4.08921,1.85937 -9.35567,1.72758 -9.35567,1.72758 h -5.69924 v -1.0882 c 2.32244,-0.64829 5.53361,-1.04902 9.08317,-1.04902 a 41.615026,41.615026 0 0 1 5.97174,0.40964 z"
         opacity="0.1"
         id="path76"
         style="stroke-width:0.178101" />
      <path
         d="m 131.71653,314.28787 c 0,1.96803 -5.74199,3.56204 -12.8233,3.56204 -7.08132,0 -12.82331,-1.59401 -12.82331,-3.56204 0,-0.98133 1.42838,-1.87006 3.74013,-2.51301 v 1.0882 h 5.69924 c 0,0 5.26646,0.1318 9.35568,-1.72758 4.07318,0.59486 6.85156,1.7828 6.85156,3.15239 z"
         opacity="0.1"
         id="path78"
         style="stroke-width:0.178101" />
      <rect
         x="115.07497"
         y="292.10886"
         width="5.4561319"
         height="5.4658599"
         fill="#2f2e41"
         id="rect80"
         style="stroke-width:0.178101" />
      <path
         d="m 117.10394,295.97417 c 0,0 0.45162,1.58065 -0.33871,1.69357 a 3.0852298,3.0852298 0 0 0 -1.35485,0.56452 l 1.46776,1.91937 h 2.7097 l 1.69356,-1.69357 c 0,0 -2.25808,-1.69356 -1.80647,-2.7097 0.45162,-1.01614 -2.37099,0.22581 -2.37099,0.22581 z"
         fill="#ffb9b9"
         id="path82"
         style="stroke-width:0.178101" />
      <path
         d="m 117.10394,295.97417 c 0,0 0.45162,1.58065 -0.33871,1.69357 a 3.0852298,3.0852298 0 0 0 -1.35485,0.56452 l 1.46776,1.91937 h 2.7097 l 1.69356,-1.69357 c 0,0 -2.25808,-1.69356 -1.80647,-2.7097 0.45162,-1.01614 -2.37099,0.22581 -2.37099,0.22581 z"
         opacity="0.1"
         id="path84"
         style="stroke-width:0.178101" />
      <polygon
         points="536.239,526.136 550.82,531.207 560.962,531.841 560.328,522.966 539.409,516.779 "
         fill="#ffb9b9"
         id="polygon86"
         transform="matrix(0.17810143,0,0,0.17810143,22.27642,221.91395)" />
      <path
         d="m 121.11204,315.2808 c 0,0 0,1.58064 0.22581,1.58064 0.22581,0 3.27422,-0.33871 4.17746,0 0.90324,0.33872 2.25808,-0.90323 1.58065,-1.58064 -0.67743,-0.67743 -1.78241,-1.69358 -2.47187,-1.46776 -0.68946,0.22581 -3.51206,0.79033 -3.51206,0.79033 z"
         fill="#2f2e41"
         id="path88"
         style="fill:#48486b;fill-opacity:1;stroke-width:0.178101" />
      <path
         d="m 112.81358,313.81304 c 0,0 -1.35485,2.7097 -0.45162,2.93551 0.90324,0.22581 1.91937,-0.11291 2.03228,-0.22581 0.1129,-0.11291 1.69356,-0.56452 1.91937,-0.33871 0.22581,0.22581 0.22581,-0.90323 0.22581,-0.90323 z"
         fill="#2f2e41"
         id="path90"
         style="fill:#48486b;fill-opacity:1;stroke-width:0.178101" />
      <path
         d="m 113.94262,310.0872 c 0,0 -2.14518,2.93551 -0.56452,3.72584 1.58066,0.79033 9.14524,0.79033 9.70977,0 0.56452,-0.79033 0.79033,-3.27422 0,-3.50003 -0.79034,-0.22582 -9.14525,-0.22581 -9.14525,-0.22581 z"
         fill="#2f2e41"
         id="path92"
         style="stroke-width:0.178101" />
      <path
         d="m 113.94262,310.0872 c 0,0 -2.14518,2.93551 -0.56452,3.72584 1.58066,0.79033 9.14524,0.79033 9.70977,0 0.56452,-0.79033 0.79033,-3.27422 0,-3.50003 -0.79034,-0.22582 -9.14525,-0.22581 -9.14525,-0.22581 z"
         opacity="0.2"
         id="path94"
         style="fill:#5c63a0;fill-opacity:1;stroke-width:0.178101" />
      <ellipse
         cx="118.00718"
         cy="294.1922"
         fill="#ffb9b9"
         id="circle96"
         style="stroke-width:0.178938"
         rx="2.5967972"
         ry="2.6212859" />
      <path
         d="m 113.94262,298.23225 2.25809,-0.45162 c 0,0 0.56452,1.80648 2.37099,1.46776 1.80646,-0.33871 2.25808,-1.46776 2.25808,-1.46776 0,0 1.35485,0.56453 1.46776,0.56453 0.1129,0 1.58066,0.56452 1.58066,0.90323 0,0.33872 -1.69357,3.72584 -1.69357,3.72584 l 0.22581,6.09683 -8.35492,-0.22581 0.56452,-5.98392 z"
         fill="#6c63ff"
         id="path98"
         style="fill:url(#linearGradient2741);fill-opacity:1;stroke-width:0.178101" />
      <path
         d="m 112.70067,301.16776 c 0,0 -0.67742,5.98393 -0.2258,6.43555 0.45162,0.45161 2.25809,1.69356 2.25809,1.69356 v -1.35485 l -0.90324,-1.69357 0.90324,-3.95164 z"
         fill="#ffb9b9"
         id="path100"
         style="stroke-width:0.178101" />
      <path
         d="m 124.38626,300.99841 c 0,0 -0.39516,6.15328 -0.39516,6.37908 0,0.22582 -1.01614,1.01614 -1.35485,1.01614 -0.33872,0 -0.56452,-0.56452 -0.56452,-0.56452 l 0.79032,-0.90323 -0.56451,-4.62907 z"
         fill="#ffb9b9"
         id="path102"
         style="stroke-width:0.178101" />
      <path
         d="m 123.31368,309.63558 c 0,0 5.08068,-2.82261 5.19359,0 0.11291,2.82261 -2.5968,3.95165 -2.5968,3.95165 0,0 -7.00006,2.09904 -7.28232,1.33178 -0.28226,-0.76726 -0.84678,-2.00921 -0.39517,-2.12211 0.45162,-0.11291 1.01614,-0.33871 1.24195,-0.11291 0.22581,0.22581 3.04841,-1.69356 3.04841,-1.69356 z"
         fill="#2f2e41"
         id="path104-4"
         style="fill:#5c63a0;fill-opacity:1;stroke-width:0.178101" />
      <path
         d="m 125.68466,309.29687 c 0,0 -1.01614,0.45162 -1.35485,0.79033 -0.33871,0.33871 -1.80647,0.90323 -1.80647,0.90323"
         fill="none"
         stroke="#000000"
         stroke-miterlimit="10"
         stroke-width="0.356203"
         opacity="0.2"
         id="path106"
         style="fill:#5c63a0;fill-opacity:1" />
      <path
         d="m 114.62005,298.45806 -0.67743,-0.22581 c 0,0 -2.48389,2.5968 -1.69356,3.27422 0.79032,0.67742 1.24195,0.90324 1.46775,1.12904 0.22581,0.22581 1.35486,0.33872 1.35486,0.33872 z"
         fill="#6c63ff"
         id="path108"
         style="fill:url(#linearGradient1480);fill-opacity:1;stroke-width:0.178101" />
      <path
         d="m 123.00802,298.59099 0.98934,0.32095 c 0,0 0.65003,1.92439 0.85608,2.18947 0.20602,0.2651 -0.34458,0.10065 -0.7158,0.575 -0.37122,0.47432 -0.7691,1.32237 -1.44049,1.2745 -0.67139,-0.0479 -1.47775,-1.3574 -1.47775,-1.3574 z"
         fill="#6c63ff"
         id="path110"
         style="fill:url(#linearGradient1472);fill-opacity:1;stroke-width:0.186713" />
      <path
         d="m 114.16843,310.65172 c 0,0 -4.29036,-3.04841 -5.75812,-0.79033 -1.46775,2.25808 6.32265,5.3065 7.45168,5.75812 1.12904,0.45161 2.14518,0.90323 2.14518,0.90323 0,0 1.01614,-2.48389 1.01614,-2.93551 0,-0.45162 -0.79033,-0.45162 -1.01614,-0.45162 -0.2258,0 -1.24194,-0.22581 -1.46775,-0.56452 -0.22581,-0.33871 -2.37099,-1.91937 -2.37099,-1.91937 z"
         fill="#2f2e41"
         id="path112"
         style="fill:#5c63a0;fill-opacity:1;stroke-width:0.178101" />
      <path
         d="m 111.79744,309.86138 c 0,0 1.12905,0.90324 2.14518,1.12905 1.01614,0.22581 1.35485,0.79033 1.35485,0.79033"
         fill="none"
         stroke="#000000"
         stroke-miterlimit="10"
         stroke-width="0.356203"
         opacity="0.2"
         id="path114" />
      <path
         d="m 113.3896,305.61623 0.0902,4.78042 a 0.59843684,0.59843684 0 0 0 0.60505,0.58711 l 8.89607,-0.1 a 0.59843684,0.59843684 0 0 0 0.59073,-0.56393 l 0.27002,-4.68046 a 0.59843684,0.59843684 0 0 0 -0.59744,-0.6329 h -9.2563 a 0.59843684,0.59843684 0 0 0 -0.59834,0.60971 z"
         fill="#575a89"
         id="path116"
         style="fill:#fafafc;fill-opacity:1;stroke-width:0.178101" />
      <path
         d="m 112.36058,298.2607 c 0.24229,-0.53466 0.5679,-1.03641 0.72306,-1.60252 0.18598,-0.67854 0.11355,-1.39647 0.0914,-2.09969 a 6.5927184,6.5927184 0 0 1 0.15739,-1.85279 3.1853815,3.1853815 0 0 1 0.91584,-1.59446 c 1.18319,-1.05624 3.34861,-1.13209 4.79338,-0.69238 0.56957,0.17335 1.17631,0.50345 1.31754,1.08182 0.0213,0.0873 0.0309,0.1773 0.0547,0.26397 0.11828,0.43062 0.55882,0.7031 0.71777,1.12042 0.20558,0.53978 -0.11142,1.12679 -0.15285,1.7029 -0.0484,0.67261 0.28226,1.30804 0.60816,1.89841 0.19375,0.35096 0.39519,0.72481 0.37596,1.12523 a 1.4216056,1.4216056 0 0 1 -0.19454,0.62026 2.3652975,2.3652975 0 0 1 -1.98692,1.13896 1.2465693,1.2465693 0 0 1 -0.74425,-0.17571 c -0.35259,-0.24279 -0.45586,-0.73167 -0.38241,-1.15341 0.0735,-0.42175 0.28753,-0.8032 0.45527,-1.19706 0.0515,-0.12086 0.0979,-0.24377 0.14075,-0.36791 a 2.5264632,2.5264632 0 1 0 -1.66654,0.28268 3.4223722,3.4223722 0 0 1 -0.16573,1.90297 7.1858157,7.1858157 0 0 1 -0.79908,1.39329 1.9236148,1.9236148 0 0 1 -0.50908,0.56972 1.8064543,1.8064543 0 0 1 -0.43368,0.18521 c -0.63771,0.20509 -1.30927,0.37013 -1.97278,0.27786 -0.66351,-0.0923 -1.32062,-0.49245 -1.54671,-1.12305 -0.1981,-0.55254 -0.039,-1.17006 0.20332,-1.70472 z"
         fill="#2f2e41"
         id="path118"
         style="fill:#48486b;fill-opacity:1;stroke-width:0.178101" />
      <ellipse
         cx="117.88138"
         cy="292.70959"
         rx="2.7558632"
         ry="1.5616556"
         fill="#2f2e41"
         id="ellipse120"
         style="fill:#48486b;fill-opacity:1;stroke-width:0.178101" />
      <g
         id="g1179"
         transform="matrix(0.17810143,0,0,0.17810143,21.887077,231.4991)">
        <circle
           cx="603.48187"
           cy="110.6591"
           r="32"
           fill="#f2f2f2"
           id="circle4"
           style="fill:#209ce9;fill-opacity:1" />
        <g
           id="g1173"
           style="opacity:1;fill:#ffffff;fill-opacity:1"
           transform="matrix(0.63692947,0,0,0.63692947,331.00121,60.930414)">
          <path
             d="m 452.2754,110.72553 h -5.07735 l -19.2686,-30.041861 -19.56249,30.041861 h -5.03535 l 21.925,-34.034771 -19.9718,-31.264968 h 5.17616 l 17.55084,27.499848 17.9222,-27.499848 h 4.85671 l -20.18668,31.175838 z"
             fill="#209ce9"
             id="path1167-6"
             style="opacity:1;fill:#ffffff;fill-opacity:1;stroke-width:0.0967722" />
          <path
             d="m 408.14709,74.700829 h 39.47744 v 3.71402 h -39.47744 z m 0,11.14186 h 39.47908 v 3.71402 h -39.48072 z"
             fill="#209ce9"
             id="path1169-1"
             style="opacity:1;fill:#ffffff;fill-opacity:1;stroke-width:0.0967722" />
        </g>
      </g>
      <g
         id="g1189"
         transform="matrix(0.17810143,0,0,0.17810143,-74.507166,282.8231)">
        <circle
           cx="603.48187"
           cy="110.6591"
           r="32"
           fill="#f2f2f2"
           id="circle1181"
           style="fill:#209ce9;fill-opacity:1" />
        <g
           id="g1187"
           style="opacity:1;fill:#ffffff;fill-opacity:1"
           transform="matrix(0.63692947,0,0,0.63692947,331.00121,60.930414)">
          <path
             d="m 452.2754,110.72553 h -5.07735 l -19.2686,-30.041861 -19.56249,30.041861 h -5.03535 l 21.925,-34.034771 -19.9718,-31.264968 h 5.17616 l 17.55084,27.499848 17.9222,-27.499848 h 4.85671 l -20.18668,31.175838 z"
             fill="#209ce9"
             id="path1183-7"
             style="opacity:1;fill:#ffffff;fill-opacity:1;stroke-width:0.0967722" />
          <path
             d="m 408.14709,74.700829 h 39.47744 v 3.71402 h -39.47744 z m 0,11.14186 h 39.47908 v 3.71402 h -39.48072 z"
             fill="#209ce9"
             id="path1185-7"
             style="opacity:1;fill:#ffffff;fill-opacity:1;stroke-width:0.0967722" />
        </g>
      </g>
      <g
         id="g1199"
         transform="matrix(0.17810143,0,0,0.17810143,60.703552,274.84416)">
        <circle
           cx="603.48187"
           cy="110.6591"
           r="32"
           fill="#f2f2f2"
           id="circle1191"
           style="fill:#209ce9;fill-opacity:1" />
        <g
           id="g1197"
           style="opacity:1;fill:#ffffff;fill-opacity:1"
           transform="matrix(0.63692947,0,0,0.63692947,331.00121,60.930414)">
          <path
             d="m 452.2754,110.72553 h -5.07735 l -19.2686,-30.041861 -19.56249,30.041861 h -5.03535 l 21.925,-34.034771 -19.9718,-31.264968 h 5.17616 l 17.55084,27.499848 17.9222,-27.499848 h 4.85671 l -20.18668,31.175838 z"
             fill="#209ce9"
             id="path1193-5"
             style="opacity:1;fill:#ffffff;fill-opacity:1;stroke-width:0.0967722" />
          <path
             d="m 408.14709,74.700829 h 39.47744 v 3.71402 h -39.47744 z m 0,11.14186 h 39.47908 v 3.71402 h -39.48072 z"
             fill="#209ce9"
             id="path1195-9"
             style="opacity:1;fill:#ffffff;fill-opacity:1;stroke-width:0.0967722" />
        </g>
      </g>
    </g>
  </g>
</svg>
