<?xml version="1.0" encoding="UTF-8" standalone="no"?>
<svg
   xmlns:dc="http://purl.org/dc/elements/1.1/"
   xmlns:cc="http://creativecommons.org/ns#"
   xmlns:rdf="http://www.w3.org/1999/02/22-rdf-syntax-ns#"
   xmlns:svg="http://www.w3.org/2000/svg"
   xmlns="http://www.w3.org/2000/svg"
   xmlns:xlink="http://www.w3.org/1999/xlink"
   xmlns:sodipodi="http://sodipodi.sourceforge.net/DTD/sodipodi-0.dtd"
   xmlns:inkscape="http://www.inkscape.org/namespaces/inkscape"
   width="387.54401"
   height="306.577"
   viewBox="0 0 102.53768 81.115166"
   version="1.1"
   id="svg8"
   inkscape:version="1.0.2-2 (e86c870879, 2021-01-15)"
   sodipodi:docname="illustration2.svg">
  <defs
     id="defs2">
    <linearGradient
       inkscape:collect="always"
       xlink:href="#linearGradient1460"
       id="linearGradient2085"
       x1="44.712948"
       y1="431.23248"
       x2="54.322018"
       y2="431.23248"
       gradientUnits="userSpaceOnUse"
       gradientTransform="translate(2.0234834,3.2375735)" />
    <linearGradient
       inkscape:collect="always"
       id="linearGradient1460">
      <stop
         style="stop-color:#ffce39;stop-opacity:1;"
         offset="0"
         id="stop1456" />
      <stop
         style="stop-color:#f8981c;stop-opacity:1"
         offset="1"
         id="stop1458" />
    </linearGradient>
    <linearGradient
       inkscape:collect="always"
       xlink:href="#linearGradient1460"
       id="linearGradient1964"
       x1="-154.49905"
       y1="860.64691"
       x2="-111.78803"
       y2="860.64691"
       gradientUnits="userSpaceOnUse"
       gradientTransform="matrix(0.33546709,0,0,0.33546709,108.70678,172.48465)" />
    <linearGradient
       id="b6a338e9-6675-4055-aeec-b883651a73ae-33"
       x1="790.67999"
       y1="664.40997"
       x2="790.67999"
       y2="175.75"
       gradientUnits="userSpaceOnUse"
       gradientTransform="matrix(0.088759,0,0,0.088759,6.8419868,408.28748)">
      <stop
         offset="0"
         stop-color="gray"
         stop-opacity="0.25"
         id="stop2" />
      <stop
         offset="0.54"
         stop-color="gray"
         stop-opacity="0.12"
         id="stop4" />
      <stop
         offset="1"
         stop-color="gray"
         stop-opacity="0.1"
         id="stop6" />
    </linearGradient>
    <linearGradient
       inkscape:collect="always"
       xlink:href="#linearGradient1460"
       id="linearGradient1956"
       x1="-96.362305"
       y1="838.89819"
       x2="-65.203911"
       y2="838.89819"
       gradientUnits="userSpaceOnUse"
       gradientTransform="matrix(0.33546709,0,0,0.33546709,108.70678,172.48465)" />
  </defs>
  <sodipodi:namedview
     id="base"
     pagecolor="#ffffff"
     bordercolor="#666666"
     borderopacity="1.0"
     inkscape:pageopacity="0.0"
     inkscape:pageshadow="2"
     inkscape:zoom="0.7"
     inkscape:cx="266.63591"
     inkscape:cy="125.77963"
     inkscape:document-units="mm"
     inkscape:current-layer="layer1"
     inkscape:document-rotation="0"
     showgrid="false"
     units="px"
     inkscape:window-width="1680"
     inkscape:window-height="987"
     inkscape:window-x="-8"
     inkscape:window-y="-8"
     inkscape:window-maximized="1" />
  <metadata
     id="metadata5">
    <rdf:RDF>
      <cc:Work
         rdf:about="">
        <dc:format>image/svg+xml</dc:format>
        <dc:type
           rdf:resource="http://purl.org/dc/dcmitype/StillImage" />
        <dc:title></dc:title>
      </cc:Work>
    </rdf:RDF>
  </metadata>
  <g
     inkscape:label="Calque 1"
     inkscape:groupmode="layer"
     id="layer1">
    <g
       id="g1091"
       transform="translate(-4.9605312,-414.28783)">
      <rect
         style="fill:#dfefff;fill-opacity:1;stroke:#ffffff;stroke-width:0"
         id="rect2089"
         width="55.596088"
         height="67.534645"
         x="-124.72158"
         y="412.57581"
         transform="rotate(-17.479481)" />
      <rect
         y="478.33163"
         width="93.159668"
         height="0.68078148"
         fill="#85848b"
         id="rect13"
         x="14.338574"
         style="stroke-width:0.0887589" />
      <path
         d="m 88.145231,466.31101 c 0,0.52368 -3.052422,2.05033 -6.678227,2.05033 -3.625805,0 -6.451003,-1.52665 -6.451003,-2.05033 0,-0.52368 2.938809,-0.35504 6.568165,-0.35504 3.629355,0 6.561065,-0.16953 6.561065,0.35504 z"
         fill="#504f60"
         id="path15"
         style="stroke-width:0.0887589" />
      <path
         d="m 88.145231,466.31101 c 0,0.52368 -3.052422,2.05033 -6.678227,2.05033 -3.625805,0 -6.451003,-1.52665 -6.451003,-2.05033"
         opacity="0.2"
         id="path17"
         style="stroke-width:0.0887589" />
      <path
         d="m 51.630667,456.70196 c 0.58847,0.0754 1.199134,0.12337 1.762752,-0.0595 0.08876,-0.0275 0.186396,-0.0888 0.177519,-0.17752 a 0.21479678,0.21479678 0 0 0 -0.03994,-0.0888 5.483531,5.483531 0 0 1 -0.532554,-1.01451 0.088759,0.088759 0 0 0 -0.03284,-0.0462 0.08343346,0.08343346 0 0 0 -0.0568,0 c -0.260064,0.0684 -0.484626,0.2361 -0.742915,0.308 a 1.0562321,1.0562321 0 0 1 -0.404742,0.0302 c -0.117161,-0.0133 -0.276928,-0.11006 -0.383438,-0.0976 0.06036,0.38788 0.207697,0.75002 0.252965,1.14588 z"
         fill="#6c63ff"
         id="path19"
         style="stroke-width:0.0887589" />
      <path
         d="m 62.760157,455.7194 c 0.387877,-0.26628 0.789955,-0.54587 1.018954,-0.95683 a 0.16597933,0.16597933 0 0 0 0.02751,-0.0825 0.17041728,0.17041728 0 0 0 -0.03284,-0.0799 3.2982844,3.2982844 0 0 0 -0.828121,-0.8938 2.4151324,2.4151324 0 0 0 -0.461546,0.42605 c -0.09763,0.10296 -0.367464,0.26627 -0.370127,0.42338 0,0.0888 0.102961,0.19171 0.150893,0.26627 0.06479,0.0959 0.126035,0.1935 0.184617,0.29291 0.03373,0.0488 0.341724,0.58492 0.310656,0.60445 z"
         fill="#6c63ff"
         id="path21"
         style="stroke-width:0.0887589" />
      <path
         d="m 53.937513,457.89044 a 0.39497754,0.39497754 0 0 1 -0.07101,0.2574 0.34882287,0.34882287 0 0 1 -0.149115,0.0888 c -0.822797,0.29468 -1.775181,-0.0728 -2.5962,0.21746 -0.168643,0.0595 -0.328409,0.14557 -0.497937,0.20237 a 2.7089247,2.7089247 0 0 1 -0.621315,0.11006 c -0.29024,0.0275 -0.582257,0.0453 -0.873389,0.0533 a 2.1000379,2.1000379 0 0 1 -0.658589,-0.0577 0.7908427,0.7908427 0 0 1 -0.505039,-0.40031 0.38432646,0.38432646 0 0 1 -0.02486,-0.28492 0.30710614,0.30710614 0 0 1 0.05414,-0.0888 0.77841643,0.77841643 0 0 1 0.193494,-0.15711 l 0.302669,-0.19527 a 2.0316935,2.0316935 0 0 1 0.458885,-0.24319 c 0.119822,-0.0391 0.24675,-0.0559 0.36835,-0.0888 0.425154,-0.12426 0.75001,-0.46154 1.051793,-0.78551 l 0.41184,-0.43936 a 0.41450455,0.41450455 0 0 1 0.142902,-0.1145 0.39586516,0.39586516 0 0 1 0.177519,-0.0169 2.3734156,2.3734156 0 0 1 1.122802,0.37633 1.45476,1.45476 0 0 0 0.276928,0.16332 c 0.241425,0.0941 0.551192,0.0231 0.773979,-0.0959 0.105622,-0.0568 0.08255,-0.0888 0.126924,-0.18994 0.04438,-0.10119 0.152665,-0.16598 0.24675,-0.0737 a 0.26095146,0.26095146 0 0 1 0.05858,0.11183 c 0.08876,0.29291 0.05503,0.608 0.05503,0.91511 a 0.40296585,0.40296585 0 0 0 0.01775,0.14202 0.80326894,0.80326894 0 0 0 0.08077,0.13136 0.29911783,0.29911783 0 0 1 0.01687,0.0337 0.90267904,0.90267904 0 0 1 0.05947,0.4287 z"
         fill="#514e7f"
         id="path23"
         style="stroke-width:0.0887589" />
      <path
         d="m 53.937513,457.89044 a 0.39497754,0.39497754 0 0 1 -0.07101,0.2574 0.34882287,0.34882287 0 0 1 -0.149115,0.0888 c -0.822797,0.29468 -1.775181,-0.0728 -2.5962,0.21746 -0.168643,0.0595 -0.328409,0.14557 -0.497937,0.20237 a 2.7089247,2.7089247 0 0 1 -0.621315,0.11006 c -0.29024,0.0275 -0.582257,0.0453 -0.873389,0.0533 a 2.1000379,2.1000379 0 0 1 -0.658589,-0.0577 0.7908427,0.7908427 0 0 1 -0.505039,-0.40031 0.38432646,0.38432646 0 0 1 -0.02486,-0.28492 0.30710614,0.30710614 0 0 1 0.05414,-0.0888 c 0.04793,0.10029 0.08255,0.23343 0.112724,0.28136 a 0.5760459,0.5760459 0 0 0 0.385214,0.27782 0.95682202,0.95682202 0 0 0 0.355034,-0.0453 c 0.745576,-0.18462 1.538194,-0.18728 2.25448,-0.46687 0.245864,-0.0967 0.480188,-0.22545 0.738474,-0.28403 0.258289,-0.0586 0.532554,-0.0426 0.798831,-0.0648 0.420719,-0.0337 0.828124,-0.16066 1.242627,-0.22723 a 0.90267904,0.90267904 0 0 1 0.05592,0.43137 z"
         fill="#464353"
         id="path25"
         style="stroke-width:0.0887589" />
      <path
         d="m 64.644513,455.66525 c -0.03906,0.31244 -0.236988,0.58138 -0.454448,0.80948 -0.21746,0.22812 -0.463323,0.43315 -0.636401,0.69588 -0.213021,0.32574 -0.308881,0.72959 -0.585809,1.00475 a 1.6065379,1.6065379 0 0 1 -0.355039,0.25296 2.4772637,2.4772637 0 0 1 -0.457107,0.21036 c -0.413617,0.13225 -0.859188,0.10207 -1.291444,0.0701 a 1.1618553,1.1618553 0 0 1 -0.410065,-0.079 1.2355253,1.2355253 0 0 1 -0.170417,-0.10474 0.81392002,0.81392002 0 0 1 -0.266277,-0.26628 0.266277,0.266277 0 0 1 -0.02573,-0.19349 0.45444606,0.45444606 0 0 1 0.123375,-0.18817 2.929047,2.929047 0 0 1 0.312431,-0.28137 1.8701521,1.8701521 0 0 0 0.406515,-0.35503 1.1467663,1.1467663 0 0 0 0.157106,-0.35504 3.1491693,3.1491693 0 0 0 0.114498,-0.67901 2.1524058,2.1524058 0 0 1 0.04704,-0.45444 c 0.06568,-0.23432 0.239648,-0.4438 0.22012,-0.68611 a 0.17130487,0.17130487 0 0 1 0.0089,-0.10385 0.14467717,0.14467717 0 0 1 0.08166,-0.0506 1.4467717,1.4467717 0 0 1 0.424269,-0.0985 0.49438761,0.49438761 0 0 1 0.39409,0.15444 c 0.06035,0.0728 0.100298,0.17752 0.189056,0.20592 a 0.30000542,0.30000542 0 0 0 0.134914,0.005 c 0.218346,-0.0222 0.44912,-0.0497 0.621312,-0.19083 a 0.77486608,0.77486608 0 0 0 0.257401,-0.56539 c 0,-0.0808 -0.03639,-0.1651 0.08876,-0.17752 0.09408,-0.0124 0.168642,0.0888 0.216574,0.15089 0.173081,0.23166 0.350597,0.47397 0.415392,0.75622 a 0.22278509,0.22278509 0 0 1 0.079,-0.0151 0.34349733,0.34349733 0 0 1 0.283141,0.14467 0.56361963,0.56361963 0 0 1 0.07722,0.38344 z"
         fill="#514e7f"
         id="path27"
         style="stroke-width:0.0887589" />
      <path
         d="m 64.644513,455.66525 c -0.03906,0.31244 -0.236988,0.58138 -0.454448,0.80948 -0.21746,0.22812 -0.463323,0.43315 -0.636401,0.69588 -0.213021,0.32574 -0.308881,0.72959 -0.585809,1.00475 a 1.6065379,1.6065379 0 0 1 -0.355039,0.25296 2.4772637,2.4772637 0 0 1 -0.457107,0.21036 c -0.413617,0.13225 -0.859188,0.10207 -1.291444,0.0701 a 1.1618553,1.1618553 0 0 1 -0.410065,-0.079 1.2355253,1.2355253 0 0 1 -0.170417,-0.10474 0.81392002,0.81392002 0 0 1 -0.266277,-0.26628 0.64882827,0.64882827 0 0 1 0.266277,-0.0639 c 0.191719,0.0106 0.331958,0.19171 0.51569,0.24763 0.261838,0.079 0.522788,-0.10562 0.78818,-0.16864 0.173077,-0.0408 0.355034,-0.0302 0.526337,-0.0888 a 1.3012069,1.3012069 0 0 0 0.389655,-0.2361 1.9837636,1.9837636 0 0 0 0.416278,-0.40119 2.5784489,2.5784489 0 0 0 0.244089,-0.48729 6.9675813,6.9675813 0 0 1 0.493499,-0.94439 0.66746766,0.66746766 0 0 1 0.100298,-0.13137 c 0.04172,-0.0382 0.08876,-0.0648 0.135801,-0.0985 0.177519,-0.13402 0.251187,-0.35503 0.313319,-0.5716 a 1.0003139,1.0003139 0 0 1 0.07012,-0.19083 0.34349733,0.34349733 0 0 1 0.283141,0.14467 0.56361963,0.56361963 0 0 1 0.08432,0.39675 z"
         fill="#464353"
         id="path29"
         style="stroke-width:0.0887589" />
      <path
         d="m 46.032637,427.99198 a 1.8825784,1.8825784 0 0 1 0.532554,0.62131 c 0.124261,0.2432 0.840547,2.13022 0.798831,2.40448 0.233435,-0.23521 1.153866,-0.27338 1.389965,-0.50859 0.09852,-0.0985 0.630188,-0.59025 0.710073,-0.70474 0.07988,-0.11451 0.672792,-0.35504 0.737588,-0.47575 0.242311,-0.43403 -1.718377,-2.07874 -1.467189,-2.50744 a 0.11183634,0.11183634 0 0 0 0.02043,-0.0675 0.11006116,0.11006116 0 0 0 -0.03284,-0.0524 c -0.160652,-0.1642 -0.373674,-0.26628 -0.567171,-0.38788 -0.193494,-0.12159 -0.379886,-0.29113 -0.432256,-0.5148 a 1.863939,1.863939 0 0 0 -0.501486,0.33906 q -0.539656,0.46244 -1.06067,0.94351 c -0.135804,0.12604 -0.398528,0.29379 -0.461549,0.47397 -0.07456,0.1935 0.204148,0.33107 0.333736,0.4367 z"
         fill="#a1616a"
         id="path31"
         style="stroke-width:0.0887589" />
      <path
         d="m 49.206659,427.29344 a 5.7764357,5.7764357 0 0 0 -0.83966,0.687 c -0.243201,0.24053 -0.473975,0.51924 -0.532554,0.85563 -0.02486,0.13226 -0.0213,0.26628 -0.04172,0.40031 -0.08876,0.58137 -0.591133,1.00741 -0.813032,1.55151 a 2.6902853,2.6902853 0 0 0 -0.141127,0.51923 6.1376847,6.1376847 0 0 0 -0.102073,1.01896 c -0.0053,0.33107 0.319533,0.55918 0.438469,0.86806 0.11894,0.30888 0.150893,0.62664 0.211247,0.94351 0.113613,0.59824 0.322196,1.17517 0.532554,1.74855 0.437583,1.2089 1.855952,4.55067 2.293535,5.76046 1.341147,-0.3364 4.911034,-1.10949 6.098631,-1.81867 0.395864,-0.2361 -2.747093,-2.89976 -2.323714,-3.08349 a 0.15799102,0.15799102 0 0 0 0.11894,-0.22279 c -0.423383,-1.85151 -1.747666,-3.37283 -2.348565,-5.17553 -0.208583,-0.62575 -0.583146,-1.16008 -0.867175,-1.75477 -0.257401,-0.53876 -0.394976,-1.13434 -0.702972,-1.64647 a 1.0384803,1.0384803 0 0 0 -0.224558,-0.2796 1.3242843,1.3242843 0 0 0 -0.247639,-0.15 c -0.175744,-0.0852 -0.339059,-0.1358 -0.508588,-0.2219 z"
         fill="#514e7f"
         id="path33"
         style="fill:url(#linearGradient2085);fill-opacity:1;stroke-width:0.0887589" />
      <circle
         cx="46.103645"
         cy="425.68246"
         r="2.0991504"
         fill="#a1616a"
         id="circle35"
         style="stroke-width:0.0887589" />
      <path
         d="m 48.239186,426.66858 a 0.70385887,0.70385887 0 0 1 0.789065,-0.11361 c 0.142017,0.0737 0.266277,0.22279 0.234324,0.379 l 1.041145,0.016 a 2.0902744,2.0902744 0 0 1 0.493499,0.0453 0.71717272,0.71717272 0 0 1 0.411843,0.25829 c 0.01241,0.0169 0.02664,0.0373 0.04793,0.0399 a 0.07633274,0.07633274 0 0 0 0.04793,-0.016 0.90356662,0.90356662 0 0 1 0.51835,-0.0888 c 0.562733,0.0364 1.082861,0.31775 1.523994,0.66924 a 0.49261245,0.49261245 0 0 1 0.177519,0.22101 c 0.03639,0.11805 -0.0071,0.26628 0.08876,0.35059 0,0.97635 0.335507,1.8888 0.55918,2.84029 0.03994,0.16953 0.20237,0.31954 0.315094,0.45267 a 1.8257726,1.8257726 0 0 1 0.3364,0.50238 c 0.189941,0.4935 -0.0719,1.07398 0.112723,1.56926 0.07811,0.20947 0.228997,0.38166 0.355035,0.56362 a 1.4574228,1.4574228 0 0 1 0.303554,0.72782 c 0.008,0.11894 -0.0071,0.23876 0,0.35504 a 2.1488554,2.1488554 0 0 0 0.08876,0.47131 q 0.113609,0.42959 0.237873,0.8583 c 0.134914,0.46154 0.310656,0.95948 0.724273,1.20534 -0.998538,0.16953 -2.05122,0.33551 -3.002716,-0.0115 a 1.5568329,1.5568329 0 0 1 -0.374562,-0.18728 c -0.343498,-0.24497 -0.509477,-0.66391 -0.657707,-1.05978 -0.16509,-0.44379 -0.332843,-0.89558 -0.366575,-1.36777 a 1.5701467,1.5701467 0 0 0 -0.06302,-0.4438 c -0.09675,-0.2574 -0.355035,-0.41273 -0.589359,-0.55563 a 2.8296369,2.8296369 0 0 1 -0.710073,-0.55208 1.1032744,1.1032744 0 0 1 -0.287579,-0.82901 c 0.01775,-0.14645 0.07545,-0.28758 0.08077,-0.43492 0.0053,-0.14734 -0.06036,-0.31598 -0.201481,-0.35503 -0.726937,-0.22013 -1.073985,-1.08109 -1.235526,-1.82311 a 5.8527685,5.8527685 0 0 1 -0.0932,-1.16275 l -0.0098,-0.75711 a 0.99942634,0.99942634 0 0 1 -0.326634,-0.71806 0.85297399,0.85297399 0 0 0 -0.0044,-0.23788 0.65592901,0.65592901 0 0 0 -0.166865,-0.25296 2.2580289,2.2580289 0 0 1 -0.398528,-0.55829 z"
         fill="#464353"
         id="path37"
         style="fill:#ffffff;fill-opacity:1;stroke-width:0.0887589" />
      <path
         d="m 46.003344,429.06862 c -0.02395,0.23433 0.02929,0.47486 -0.02308,0.70475 -0.02043,0.0888 -0.05591,0.17752 -0.08166,0.26006 a 1.5266548,1.5266548 0 0 0 0.09675,0.98789 5.5030578,5.5030578 0 0 0 0.505039,0.87428 1.420144,1.420144 0 0 1 0.16154,0.30267 1.5665964,1.5665964 0 0 1 0.06213,0.34527 10.72475,10.72475 0 0 0 0.24675,1.39529 c 0.09941,0.39764 1.228426,3.79711 1.491151,4.1122 a 0.33462143,0.33462143 0 0 0 0.20237,0.13758 0.36834984,0.36834984 0 0 0 0.172192,-0.0355 l 0.532554,-0.20414 a 0.34793529,0.34793529 0 0 0 0.123378,-0.0675 0.31775722,0.31775722 0 0 0 0.07633,-0.20947 c 0.03817,-0.43314 -1.093512,-3.85657 -1.2373,-4.26575 -0.43492,-1.23553 -1.013631,-2.42668 -1.296772,-3.70569 -0.079,-0.35504 -0.120711,-0.90179 -0.380775,-1.18493 -0.1074,-0.11717 -0.07101,-0.0675 -0.199707,-0.006 a 1.4574228,1.4574228 0 0 0 -0.18817,0.0985 0.61598746,0.61598746 0 0 0 -0.262728,0.46066 z"
         fill="#464353"
         id="path39"
         style="fill:#ffffff;fill-opacity:1;stroke-width:0.0887589" />
      <path
         d="M 56.247023,436.76047"
         fill="#464353"
         id="path41"
         style="stroke-width:0.0887589" />
      <path
         d="m 47.619648,431.41275 c 0.142903,0.75534 0.29024,1.5089 0.436695,2.26424 l 2.084059,-0.54587 c 0.01687,-0.21835 -0.09941,-0.42072 -0.177516,-0.62131 -0.189945,-0.47664 -0.194383,-1.00741 -0.347936,-1.49736 -0.116273,-0.37279 -0.318644,-0.7154 -0.427818,-1.09085 -0.06302,-0.21835 -0.09497,-0.4438 -0.157103,-0.66481 a 4.8284895,4.8284895 0 0 0 -0.244975,-0.63462 3.9728529,3.9728529 0 0 0 -0.454447,-0.84233 c -0.266277,0.0994 -0.550307,0.2148 -0.702082,0.45534 a 0.98344972,0.98344972 0 0 0 -0.129591,0.44379 c -0.03639,0.46776 0.13314,0.93819 0.07722,1.40328 a 4.1272935,4.1272935 0 0 0 0.04349,1.3305 z"
         fill="#6c63ff"
         id="path43"
         style="fill:#5c63a0;fill-opacity:1;stroke-width:0.0887589" />
      <path
         d="m 50.175019,441.46026 c 0.117161,0.4438 -0.05237,0.91067 -0.190831,1.35003 a 10.462911,10.462911 0 0 0 -0.424269,2.03258 1.7592034,1.7592034 0 0 1 -0.104736,0.51391 c -0.06568,0.14823 -0.177519,0.27338 -0.253851,0.41451 -0.209469,0.37101 -0.204145,0.82368 -0.158877,1.24795 0.03019,0.27959 0.07544,0.55829 0.131362,0.83345 0.06835,0.33639 0.152664,0.68788 0.05414,1.01629 0.16509,-0.0364 0.276928,0.17752 0.266277,0.34527 -0.01067,0.16775 -0.06479,0.35504 0.01597,0.49971 0.204145,0.0746 0.205919,0.35504 0.199707,0.5725 a 4.8151759,4.8151759 0 0 0 0.142016,1.11836 q 0.46332,2.22785 0.983449,4.44328 c 0.750014,0.23254 1.626066,0.47486 2.341463,0.15266 0.133137,-0.0595 0.266277,-0.15444 0.296455,-0.29823 a 0.52012773,0.52012773 0 0 0 -0.02841,-0.229 l -0.33906,-1.23374 c -0.08255,-0.29823 -0.16509,-0.60623 -0.1216,-0.91245 0.03284,-0.22811 0.132251,-0.47397 0.02043,-0.67545 -0.03817,-0.0692 -0.09852,-0.12338 -0.142902,-0.18906 -0.177519,-0.26006 -0.08432,-0.608 -0.07012,-0.92309 a 0.73137415,0.73137415 0 0 0 -0.01419,-0.21125 1.0544569,1.0544569 0 0 0 -0.101183,-0.23166 3.5432594,3.5432594 0 0 1 -0.390541,-1.76275 0.43580671,0.43580671 0 0 0 -0.03106,-0.22989 0.74380042,0.74380042 0 0 1 -0.05769,-0.0941 0.2574011,0.2574011 0 0 1 0.01865,-0.16954 1.5532825,1.5532825 0 0 1 -0.273379,-0.26627 0.38255131,0.38255131 0 0 0 0.06569,-0.59824 0.19970775,0.19970775 0 0 0 0.09497,-0.3435 c -0.04349,-0.0302 -0.101184,-0.0435 -0.132252,-0.0888 -0.04793,-0.0657 -0.0089,-0.15711 0.03019,-0.22723 l 0.206809,-0.37367 c 0.154439,-0.27782 0.189056,-0.62132 0.355035,-0.88759 0.237876,-0.38788 0.393204,-0.82014 0.546758,-1.24795 l 0.597346,-1.64826 0.402077,0.34883 a 1.2710289,1.2710289 0 0 1 0.330184,0.37633 1.6242897,1.6242897 0 0 1 0.1074,0.4509 c 0.14734,0.89469 0.710073,1.67044 0.918656,2.55182 0.04615,0.19616 0.07722,0.40208 0.189945,0.56983 a 1.242626,1.242626 0 0 1 0.108285,0.16332 0.86628784,0.86628784 0 0 1 0.04527,0.27071 1.2630406,1.2630406 0 0 0 0.532554,0.90534 c 0.197935,0.13581 0.443796,0.229 0.551196,0.4438 a 0.82723387,0.82723387 0 0 0 0.08876,0.18906 c 0.09586,0.11538 0.302668,0.1287 0.343498,0.27338 0.02308,0.0808 -0.01952,0.17751 0.02573,0.24852 a 0.23521135,0.23521135 0 0 0 0.09852,0.0737 l 0.577822,0.28847 c 0.646167,0.32308 0.97635,1.0651 1.452985,1.60565 a 3.461601,3.461601 0 0 1 0.43492,0.57515 c 0.20592,0.36835 0.300894,0.83079 0.648827,1.06511 a 0.98167453,0.98167453 0 0 1 0.252076,0.18728 c 0.109175,0.14379 0.06923,0.34528 0.079,0.52634 0.0098,0.18107 0.148226,0.39676 0.320422,0.34173 a 1.2630406,1.2630406 0 0 0 0,0.67013 3.3728421,3.3728421 0 0 0 2.046782,-0.82901 c 0.168642,-0.14734 0.331069,-0.33551 0.332843,-0.55918 a 0.20059534,0.20059534 0 0 0 -0.02486,-0.11095 0.31686963,0.31686963 0 0 0 -0.130476,-0.0985 c -0.540542,-0.2929 -0.702972,-0.9719 -0.976347,-1.5231 -0.238762,-0.4864 -0.592022,-0.90534 -0.887592,-1.35712 -0.642614,-0.97191 -1.081083,-2.14797 -2.052995,-2.7897 -0.213907,-0.14113 -0.462435,-0.26628 -0.569831,-0.49971 -0.05947,-0.13048 -0.06657,-0.27959 -0.113613,-0.41451 -0.04704,-0.13491 -0.159766,-0.26627 -0.303557,-0.26627 0.07988,-0.19527 0.06391,-0.43315 0.06923,-0.64439 a 0.81392002,0.81392002 0 0 0 -0.03194,-0.27782 1.3517996,1.3517996 0 0 0 -0.142902,-0.27515 2.6396926,2.6396926 0 0 1 -0.365686,-1.42015 c 0.0071,-0.25651 0.05237,-0.52101 -0.02486,-0.76599 -0.03905,-0.12337 -0.107396,-0.2361 -0.154439,-0.35503 a 2.218975,2.218975 0 0 1 -0.110949,-0.66747 l -0.05326,-0.85297 a 4.1965256,4.1965256 0 0 0 -0.11006,-0.84321 c -0.177519,-0.66215 -0.355038,-3.43586 -0.963035,-3.7483 -0.608001,-0.31243 -1.652692,1.82223 -2.337025,1.86394 a 3.0435461,3.0435461 0 0 0 -0.887592,0.17131 c -0.455333,0.17041 -0.836998,0.48817 -1.208896,0.79883 l -1.258602,1.05712 c -0.266277,0.21923 -0.486401,0.4287 -0.780193,0.58314 z"
         fill="#464353"
         id="path45"
         style="stroke-width:0.0887589" />
      <path
         d="m 44.134081,423.35166 c 0.276929,-0.37812 0.752678,-0.57871 1.221325,-0.59557 0.468648,-0.0169 0.930194,0.13047 1.350024,0.33905 a 1.6677816,1.6677816 0 0 0 0.39409,0.16154 c 0.221898,0.0453 0.468648,-0.0151 0.669243,0.0888 0.266277,0.14113 0.317758,0.5006 0.294678,0.79883 -0.02308,0.29823 -0.079,0.6293 0.07989,0.88759 a 2.0521081,2.0521081 0 0 1 0.153553,0.23166 c 0.06835,0.15356 0.02841,0.33108 -0.01241,0.49351 -0.103851,-0.0888 -0.16243,-0.22279 -0.25474,-0.32575 -0.09231,-0.10296 -0.252963,-0.17219 -0.367461,-0.095 -0.114502,0.0772 -0.112724,0.21746 -0.118936,0.34349 -0.0062,0.12604 -0.03817,0.27693 -0.157106,0.31776 a 0.25473833,0.25473833 0 0 1 -0.266277,-0.10384 c -0.203257,-0.24853 -0.121601,-0.64529 -0.323082,-0.89558 -0.114498,-0.14202 -0.305332,-0.21125 -0.410954,-0.36037 -0.08343,-0.11716 -0.104736,-0.26627 -0.177519,-0.39231 -0.07278,-0.12604 -0.242311,-0.21835 -0.355035,-0.13136 a 0.48018618,0.48018618 0 0 0 -0.09497,0.12692 0.54586786,0.54586786 0 0 1 -0.647938,0.19527 1.0837474,1.0837474 0 0 0 -0.280481,-0.1216 0.34704768,0.34704768 0 0 0 -0.320418,0.17752 0.69320779,0.69320779 0 0 0 -0.08876,0.37101 c 0,0.17752 0.03194,0.36658 -0.06923,0.50859 a 0.52634085,0.52634085 0 0 1 -0.142014,0.13491 c -0.148229,0.095 -0.355038,0.15888 -0.491727,0.0506 a 0.36923745,0.36923745 0 0 1 -0.11006,-0.34439 2.7843698,2.7843698 0 0 1 0.104736,-0.36391 c 0.07811,-0.27515 -0.02395,-0.58492 0.06124,-0.8441 a 2.6947232,2.6947232 0 0 1 0.360362,-0.65326 z"
         fill="#464353"
         id="path47"
         style="stroke-width:0.0887589" />
      <path
         d="m 45.258658,429.6136 a 0.32308276,0.32308276 0 0 0 0.01952,0.19261 0.30621855,0.30621855 0 0 0 0.104736,0.1003 2.1532933,2.1532933 0 0 0 0.988776,0.32042 0.30089301,0.30089301 0 0 1 0.136686,0.0355 c 0.08343,0.055 0.08876,0.17752 0.05769,0.27516 a 0.71628514,0.71628514 0 0 0 -0.06302,0.2929 c 0.02573,0.18551 0.245861,0.26628 0.431367,0.29379 0.260064,0.0328 0.544983,0.016 0.750903,-0.14645 a 1.1600801,1.1600801 0 0 0 0.309767,-0.46421 c 0.509477,-1.17073 0.687885,-2.46484 1.203572,-3.63202 a 0.77042812,0.77042812 0 0 0 0.07722,-0.2432 0.2396493,0.2396493 0 0 0 -0.09586,-0.22367 c -0.09586,-0.0595 -0.244974,-0.0257 -0.309766,-0.11894 -0.03194,-0.047 -0.02842,-0.11095 -0.05681,-0.16065 -0.05947,-0.10562 -0.215682,-0.0888 -0.322193,-0.15 -0.08343,-0.0444 -0.141128,-0.13581 -0.234324,-0.15356 a 0.29467988,0.29467988 0 0 0 -0.242314,0.10474 c -0.302669,0.28225 -0.461546,0.68255 -0.630189,1.06067 a 12.434248,12.434248 0 0 1 -0.901792,1.67222 c 0.03994,-0.0621 -0.19172,-0.53255 -0.282252,-0.55297 -0.158878,-0.0319 -0.362137,0.24675 -0.448235,0.3506 a 2.2331764,2.2331764 0 0 0 -0.493499,1.14676 z"
         fill="#6c63ff"
         id="path49"
         style="fill:#5c63a0;fill-opacity:1;stroke-width:0.0887589" />
      <path
         d="m 48.483271,426.06768 a 0.42515563,0.42515563 0 0 0 -0.329294,0.16509 c -0.09497,0.12338 -0.113613,0.2867 -0.137578,0.4438 a 3.8565786,3.8565786 0 0 1 -0.522789,1.40417"
         opacity="0.1"
         id="path51"
         style="stroke-width:0.0887589" />
      <path
         d="m 48.935944,426.42183 a 0.50681388,0.50681388 0 0 0 -0.430481,0.25829 1.4512096,1.4512096 0 0 0 -0.108286,0.43847 2.4062565,2.4062565 0 0 1 -0.430481,0.92221"
         opacity="0.1"
         id="path53"
         style="stroke-width:0.0887589" />
      <path
         d="m 70.030406,443.77421 v -1.10239 A 3.0604103,3.0604103 0 0 0 66.969997,439.6123 H 23.434595 a 3.0604103,3.0604103 0 0 0 -3.06041,3.05952 v 2.03259 z"
         fill="#33323d"
         id="path55"
         style="fill:#d3dbee;fill-opacity:1;stroke-width:0.0887589" />
      <path
         d="m 35.545762,438.31997 c 0,0 -0.124264,7.70961 1.242623,10.24634 1.366891,2.53673 1.952701,13.57214 1.952701,13.57214 0,0 14.329252,1.48227 24.314638,-1.77518 9.985389,-3.25746 31.232518,-4.58973 31.232518,-4.58973 l -3.580538,-24.13268 c 0,0 -17.688782,-1.13434 -27.751389,3.66486 -10.062607,4.79919 -27.410553,3.01425 -27.410553,3.01425 z"
         fill="#8dd070"
         id="path57"
         style="stroke-width:0.0887589" />
      <path
         d="m 35.545762,438.31997 c 0,0 -0.124264,7.70961 1.242623,10.24634 1.366891,2.53673 1.952701,13.57214 1.952701,13.57214 0,0 14.329252,1.48227 24.314638,-1.77518 9.985389,-3.25746 31.232518,-4.58973 31.232518,-4.58973 l -3.580538,-24.13268 c 0,0 -17.688782,-1.13434 -27.751389,3.66486 -10.062607,4.79919 -27.410553,3.01425 -27.410553,3.01425 z"
         opacity="0.1"
         id="path59"
         style="stroke-width:0.0887589" />
      <path
         d="m 38.71712,441.13629 c 0,0 -0.448234,6.36136 0.676342,8.39394 1.124576,2.03258 1.176946,11.10642 1.176946,11.10642 0,0 12.895794,0.59823 22.069038,-2.52431 9.173243,-3.12254 28.449921,-5.14802 28.449921,-5.14802 l -2.190572,-19.73556 c 0,0 -15.949993,-0.16421 -25.259037,4.23114 -9.309044,4.39534 -24.922638,3.67639 -24.922638,3.67639 z"
         fill="#8dd070"
         id="path61"
         style="stroke-width:0.0887589" />
      <ellipse
         cx="6.8344727"
         cy="451.68167"
         rx="3.3479896"
         ry="7.1806035"
         transform="rotate(-7.1000003)"
         opacity="0.1"
         id="ellipse63"
         style="stroke-width:0.0887589" />
      <path
         d="m 81.009895,419.88473 c 0,0 -17.18463,4.34919 -25.288327,12.00465 -8.103694,7.65546 -25.163175,11.28038 -25.163175,11.28038 0,0 2.247377,7.37499 4.326113,9.37029 2.078735,1.9953 6.021409,12.31975 6.021409,12.31975 0,0 14.092268,-2.98763 22.595379,-9.1546 8.503112,-6.16698 28.320335,-13.95558 28.320335,-13.95558 z"
         opacity="0.2"
         id="path65"
         style="stroke-width:0.0887589" />
      <path
         d="m 30.300103,442.0656 c 0,0 2.246492,7.37587 4.323453,9.37118 2.076961,1.9953 6.021409,12.31886 6.021409,12.31886 0,0 14.094043,-2.98674 22.59804,-9.15372 8.504,-6.16697 28.319448,-13.95291 28.319448,-13.95291 L 80.750719,418.78145 c 0,0 -17.183744,4.3492 -25.287438,12.00466 -8.103697,7.65546 -25.163178,11.27949 -25.163178,11.27949 z"
         fill="#8dd070"
         id="path67"
         style="stroke-width:0.0887589" />
      <path
         d="m 30.300103,442.0656 c 0,0 2.246492,7.37587 4.323453,9.37118 2.076961,1.9953 6.021409,12.31886 6.021409,12.31886 0,0 14.094043,-2.98674 22.59804,-9.15372 8.504,-6.16697 28.319448,-13.95291 28.319448,-13.95291 L 80.750719,418.78145 c 0,0 -17.183744,4.3492 -25.287438,12.00466 -8.103697,7.65546 -25.163178,11.27949 -25.163178,11.27949 z"
         opacity="0.1"
         id="path69"
         style="stroke-width:0.0887589" />
      <path
         d="m 34.17976,443.77332 c 0,0 1.525768,6.19272 3.220175,7.7815 1.694411,1.58879 4.526709,10.20729 4.526709,10.20729 0,0 12.45644,-3.38882 20.229065,-9.17591 7.772625,-5.78708 25.499573,-13.62184 25.499573,-13.62184 l -8.140088,-18.11748 c 0,0 -15.230158,4.73707 -22.74183,11.77743 -7.511675,7.04036 -22.593604,11.14901 -22.593604,11.14901 z"
         fill="#8dd070"
         id="path71"
         style="stroke-width:0.0887589" />
      <ellipse
         cx="-133.40918"
         cy="425.86542"
         rx="3.3479896"
         ry="7.1806035"
         transform="rotate(-24.970001)"
         opacity="0.1"
         id="ellipse73"
         style="stroke-width:0.0887589" />
      <path
         d="m 71.205578,444.85618 v 30.62186 a 2.647681,2.647681 0 0 1 -2.64857,2.64768 H 23.023641 a 2.647681,2.647681 0 0 1 -2.646792,-2.64768 v -33.70889 c 1.304756,0.48462 1.304756,0.48462 2.646792,0.44379 h 45.533367 a 2.6485686,2.6485686 0 0 1 2.64857,2.64324 z"
         opacity="0.1"
         id="path75"
         style="stroke-width:0.0887589" />
      <path
         d="m 71.205578,445.24584 v 30.62185 a 2.6485686,2.6485686 0 0 1 -2.64857,2.64768 H 23.023641 a 2.647681,2.647681 0 0 1 -2.646792,-2.64768 v -33.70978 c 1.304756,0.48373 1.304756,0.48373 2.646792,0.44379 h 45.533367 a 2.6485686,2.6485686 0 0 1 2.64857,2.64414 z"
         fill="#504f60"
         id="path77"
         style="fill:#fafafc;fill-opacity:1;stroke-width:0.0887589" />
      <path
         d="m 71.075987,456.56704 v 9.79279 h -9.497211 a 4.8968339,4.8968339 0 0 1 0,-9.79279 z"
         opacity="0.1"
         id="path79"
         style="stroke-width:0.0887589" />
      <path
         d="m 71.205578,456.3061 v 9.79455 h -9.497214 a 4.8968339,4.8968339 0 0 1 0,-9.79278 z"
         fill="#33323d"
         id="path81"
         style="fill:url(#linearGradient1964);fill-opacity:1;stroke-width:0.0887589" />
      <circle
         cx="62.163708"
         cy="461.4639"
         r="1.909206"
         opacity="0.1"
         id="circle83"
         style="stroke-width:0.0887589" />
      <circle
         cx="62.293293"
         cy="461.20471"
         r="1.909206"
         fill="#6c63ff"
         id="circle85"
         style="fill:#9aa7d5;fill-opacity:1;stroke-width:0.0887589" />
      <path
         d="m 87.690785,456.22177 c 0.07544,0.81747 -0.543205,1.61098 -0.363024,2.41158 0.03905,0.17131 0.112724,0.33285 0.139352,0.50593 0.07456,0.47575 -0.208584,0.92576 -0.479299,1.3234 l -2.325486,3.41189 a 2.1186773,2.1186773 0 0 1 -0.331959,0.41007 c -0.443795,0.39586 -1.111262,0.35504 -1.695297,0.47309 a 2.8970938,2.8970938 0 0 0 -1.136115,0.50237 0.07278238,0.07278238 0 0 0 -0.01065,0.0994 0.97634899,0.97634899 0 0 0 0.844986,0.39675 c 0.06124,0.0808 0,0.19882 -0.08876,0.25652 -0.12515,0.0888 -0.296455,0.11006 -0.321308,0.32131 a 0.34882287,0.34882287 0 0 0 0.0426,0.21302 0.66125455,0.66125455 0 0 0 0.406516,0.28314 c 0.805044,0.24586 1.674882,-0.18639 2.277556,-0.77487 0.602674,-0.58847 1.03493,-1.33138 1.626065,-1.93051 0.32752,-0.33107 0.699421,-0.6151 1.036705,-0.9364 0.672793,-0.64084 1.195584,-1.42015 1.700622,-2.20034 0.151778,-0.23521 0.304444,-0.47664 0.36835,-0.74913 0.06391,-0.27249 0.03373,-0.54764 0.105624,-0.81125 0.09408,-0.34616 0.347047,-0.62131 0.557406,-0.91156 0.412729,-0.56805 0.687882,-1.26304 0.633739,-1.96246 -0.05414,-0.69942 -0.488174,-1.39085 -1.148541,-1.62873 a 1.0207285,1.0207285 0 0 0 -0.643503,-0.0391 c -0.270715,0.0834 -0.470423,0.30711 -0.655042,0.52102 l -0.443794,0.51036 a 1.1964713,1.1964713 0 0 0 -0.257402,0.39054 0.40917901,0.40917901 0 0 0 0.08876,0.43403"
         fill="#fbbebe"
         id="path87"
         style="stroke-width:0.0887589" />
      <path
         d="m 87.690785,456.22177 c 0.07544,0.81747 -0.543205,1.61098 -0.363024,2.41158 0.03905,0.17131 0.112724,0.33285 0.139352,0.50593 0.07456,0.47575 -0.208584,0.92576 -0.479299,1.3234 l -2.325486,3.41189 a 2.1186773,2.1186773 0 0 1 -0.331959,0.41007 c -0.443795,0.39586 -1.111262,0.35504 -1.695297,0.47309 a 2.8970938,2.8970938 0 0 0 -1.136115,0.50237 0.07278238,0.07278238 0 0 0 -0.01065,0.0994 0.97634899,0.97634899 0 0 0 0.844986,0.39675 c 0.06124,0.0808 0,0.19882 -0.08876,0.25652 -0.12515,0.0888 -0.296455,0.11006 -0.321308,0.32131 a 0.34882287,0.34882287 0 0 0 0.0426,0.21302 0.66125455,0.66125455 0 0 0 0.406516,0.28314 c 0.805044,0.24586 1.674882,-0.18639 2.277556,-0.77487 0.602674,-0.58847 1.03493,-1.33138 1.626065,-1.93051 0.32752,-0.33107 0.699421,-0.6151 1.036705,-0.9364 0.672793,-0.64084 1.195584,-1.42015 1.700622,-2.20034 0.151778,-0.23521 0.304444,-0.47664 0.36835,-0.74913 0.06391,-0.27249 0.03373,-0.54764 0.105624,-0.81125 0.09408,-0.34616 0.347047,-0.62131 0.557406,-0.91156 0.412729,-0.56805 0.687882,-1.26304 0.633739,-1.96246 -0.05414,-0.69942 -0.488174,-1.39085 -1.148541,-1.62873 a 1.0207285,1.0207285 0 0 0 -0.643503,-0.0391 c -0.270715,0.0834 -0.470423,0.30711 -0.655042,0.52102 l -0.443794,0.51036 a 1.1964713,1.1964713 0 0 0 -0.257402,0.39054 0.40917901,0.40917901 0 0 0 0.08876,0.43403"
         opacity="0.05"
         id="path89"
         style="stroke-width:0.0887589" />
      <path
         d="m 89.450876,477.26653 c -0.507701,0.30977 -1.140553,0.32841 -1.7308,0.25652 -0.09497,-0.0115 -0.207696,-0.0187 -0.266277,0.055 -0.08876,0.10651 0.01598,0.26627 0.124262,0.34882 a 2.5606972,2.5606972 0 0 0 1.188483,0.48906 7.8258809,7.8258809 0 0 0 1.162743,0.0772 c 1.065108,0.0187 2.130216,0.0364 3.17846,-0.11627 a 0.45000813,0.45000813 0 0 0 0.177518,-0.0515 0.32485794,0.32485794 0 0 0 0.131363,-0.19971 c 0.07189,-0.27338 -0.06657,-0.56629 -0.27604,-0.75623 -0.209471,-0.18994 -0.478411,-0.29557 -0.741138,-0.39764 l -0.923093,-0.35947 c -0.216572,-0.0843 -0.56362,-0.30799 -0.798831,-0.29025 -0.44202,0.0319 -0.860075,0.72961 -1.22665,0.9444 z"
         fill="#3f3d56"
         id="path91"
         style="stroke-width:0.0887589" />
      <path
         d="m 89.450876,477.26653 c -0.507701,0.30977 -1.140553,0.32841 -1.7308,0.25652 -0.09497,-0.0115 -0.207696,-0.0187 -0.266277,0.055 -0.08876,0.10651 0.01598,0.26627 0.124262,0.34882 a 2.5606972,2.5606972 0 0 0 1.188483,0.48906 7.8258809,7.8258809 0 0 0 1.162743,0.0772 c 1.065108,0.0187 2.130216,0.0364 3.17846,-0.11627 a 0.45000813,0.45000813 0 0 0 0.177518,-0.0515 0.32485794,0.32485794 0 0 0 0.131363,-0.19971 c 0.07189,-0.27338 -0.06657,-0.56629 -0.27604,-0.75623 -0.209471,-0.18994 -0.478411,-0.29557 -0.741138,-0.39764 l -0.923093,-0.35947 c -0.216572,-0.0843 -0.56362,-0.30799 -0.798831,-0.29025 -0.44202,0.0319 -0.860075,0.72961 -1.22665,0.9444 z"
         opacity="0.05"
         id="path93"
         style="stroke-width:0.0887589" />
      <path
         d="m 90.097929,465.01247 c -0.384326,0.51125 -0.781966,1.10149 -0.686994,1.73434 0.05148,0.34084 0.242312,0.64173 0.382551,0.95683 0.189944,0.42781 0.289354,0.88759 0.386989,1.34559 0.14379,0.66924 0.288467,1.34025 0.376338,2.02015 0.100298,0.76776 -0.371012,2.9894 -0.414504,3.76249 -0.01065,0.18639 -0.03284,0.38788 -0.162429,0.52191 -0.05059,0.0532 -0.11805,0.0959 -0.141127,0.16509 a 0.28225362,0.28225362 0 0 0 0.03106,0.19527 c 0.216572,0.48817 0.659479,0.85208 1.153867,1.05978 0.494388,0.2077 1.686421,0.56628 2.225188,0.58492 a 0.44379498,0.44379498 0 0 0 0.209471,-0.0275 0.40740381,0.40740381 0 0 0 0.161542,-0.1855 c 0.386101,-0.73848 0.01509,-3.36397 0.02042,-4.19742 0.0053,-0.69498 0.16953,-1.38552 0.139352,-2.07962 -0.02485,-0.55741 -0.177518,-1.10239 -0.228111,-1.65802 -0.08876,-0.91067 0.07811,-1.82577 0.245862,-2.72579 0.127813,-0.69054 0.256514,-1.38109 0.420718,-2.06276 0.100298,-0.41628 0.216572,-0.83611 0.443795,-1.19735 0.177518,-0.2867 0.426931,-0.52635 0.633739,-0.79884 a 3.6053906,3.6053906 0 0 0 0.710072,-2.63969 c -0.01243,-0.0888 -1.331385,0.33462 -1.447659,0.38521 a 4.5098448,4.5098448 0 0 0 -1.290556,0.8299 c -0.305331,0.29113 -0.545868,0.67989 -0.813032,1.00564 q -0.56717,0.69143 -1.120139,1.39263 -0.631076,0.80149 -1.236413,1.61275 z"
         fill="#464353"
         id="path95"
         style="fill:#48486b;fill-opacity:1;stroke-width:0.0887589" />
      <path
         d="m 90.097929,465.01247 c -0.384326,0.51125 -0.781966,1.10238 -0.686994,1.73434 0.05148,0.34173 0.242312,0.64262 0.382551,0.95772 0.189944,0.42692 0.289354,0.88758 0.386989,1.3447 0.14379,0.67012 0.288467,1.34114 0.376338,2.02015 0.100298,0.76865 -0.371012,2.9894 -0.414504,3.76249 -0.01065,0.18639 -0.03284,0.38877 -0.162429,0.52279 -0.05059,0.0524 -0.11805,0.095 -0.141127,0.16421 a 0.28136603,0.28136603 0 0 0 0.03106,0.19527 c 0.216572,0.48906 0.659479,0.85208 1.153867,1.06511 0.494388,0.21302 1.686421,0.39852 2.225188,0.41627 a 0.44379498,0.44379498 0 0 0 0.209471,-0.0275 0.4011907,0.4011907 0 0 0 0.161542,-0.18462 c 0.386101,-0.73848 0.01509,-3.19533 0.02042,-4.02966 0.0053,-0.69587 0.16953,-1.38553 0.139352,-2.08051 -0.02485,-0.55741 -0.177518,-1.10239 -0.228111,-1.65713 -0.08876,-0.91156 0.07811,-1.82666 0.245862,-2.72668 0.127813,-0.68966 0.256514,-1.3802 0.420718,-2.06276 0.100298,-0.41628 0.216572,-0.83611 0.443795,-1.19736 0.177518,-0.28669 0.426931,-0.52634 0.633739,-0.79883 a 3.6036153,3.6036153 0 0 0 0.710072,-2.63969 c -0.01243,-0.0888 -1.331385,0.33462 -1.447659,0.38521 a 4.5311469,4.5311469 0 0 0 -1.290556,0.83079 c -0.305331,0.29024 -0.545868,0.679 -0.813032,1.00475 q -0.56717,0.69143 -1.120139,1.39351 -0.631076,0.79529 -1.236413,1.60743 z"
         opacity="0.05"
         id="path97"
         style="fill:#000000;fill-opacity:1;stroke-width:0.0887589" />
      <circle
         cx="85.821526"
         cy="451.59833"
         r="2.154181"
         fill="#fbbebe"
         id="circle99"
         style="stroke-width:0.0887589" />
      <path
         d="m 87.761793,451.50778 a 2.7896954,2.7896954 0 0 0 1.788493,1.24795 l -0.162429,0.59025 c -0.280478,1.01363 -0.595573,2.08584 -1.378427,2.78881 0.08876,-0.3435 -0.02485,-0.71007 -0.218347,-1.0083 -0.193495,-0.29823 -0.465097,-0.53256 -0.731374,-0.76422 l -1.239964,-1.07398 a 0.37367538,0.37367538 0 0 1 -0.08876,-0.10474 0.31509445,0.31509445 0 0 1 0,-0.2361 c 0.15799,-0.49172 0.608886,-0.79883 0.976349,-1.13079 a 3.3817179,3.3817179 0 0 0 0.490837,-0.5716 c 0.247637,-0.35327 0.40119,0.002 0.56362,0.26272 z"
         fill="#fbbebe"
         id="path101"
         style="stroke-width:0.0887589" />
      <path
         d="m 82.983896,449.4326 -0.04882,-0.40475 c 0.339947,0.0888 0.66303,-0.20059 0.880489,-0.49971 0.21746,-0.29912 0.418943,-0.65149 0.750014,-0.77664 0.402078,-0.15089 0.828121,0.0888 1.212448,0.29113 a 3.8335012,3.8335012 0 0 0 1.390853,0.45267 0.91510528,0.91510528 0 0 1 0.229886,0.0373 c 0.250301,0.0888 0.369237,0.40297 0.405629,0.68788 0.03639,0.28492 0.02663,0.58759 0.150002,0.84144 0.08876,0.19261 0.253851,0.33551 0.355037,0.52545 0.266277,0.50948 0.0089,1.20624 0.286691,1.70595 l -0.690545,-0.63285 c -0.06302,-0.0577 -0.151778,-0.11805 -0.221898,-0.0692 -0.05503,0.039 -0.05947,0.12337 -0.08166,0.19083 -0.06657,0.19704 -0.313319,0.25562 -0.491725,0.17752 -0.178405,-0.0781 -0.308881,-0.24764 -0.443795,-0.40208 -0.30533,-0.36036 -0.669242,-0.67723 -1.095286,-0.83079 a 1.4059425,1.4059425 0 0 0 -1.153867,0.0763 c -0.322195,0.18195 -0.558294,0.60622 -0.953271,0.62131 -0.54143,0.0204 -0.766878,-0.98789 -1.017178,-1.38642 a 0.48817449,0.48817449 0 0 0 0.142014,-0.61066 c 0.03639,-0.0151 0.386989,-0.0568 0.394978,0.005 z"
         fill="#464353"
         id="path103"
         style="stroke-width:0.0887589" />
      <path
         d="m 56.33933,436.83858 a 4.1903124,4.1903124 0 0 0 -0.478409,0.50238 1.0056395,1.0056395 0 0 0 -0.220124,0.64528 0.33018348,0.33018348 0 0 0 0.06213,0.18905 0.1597662,0.1597662 0 0 0 0.177519,0.0541 0.23876171,0.23876171 0 0 0 0.08876,-0.0781 4.2843968,4.2843968 0 0 1 0.29823,-0.32308 c 0.03817,-0.0382 0.08876,-0.0781 0.140239,-0.0639 a 0.15000271,0.15000271 0 0 1 0.06036,0.0399 0.40829139,0.40829139 0 0 1 0.12515,0.19527 c 0.03106,0.1358 -0.04793,0.2716 -0.137575,0.37811 -0.08965,0.10651 -0.195272,0.20859 -0.231664,0.34261 a 0.15177789,0.15177789 0 0 0 0,0.11006 0.16509174,0.16509174 0 0 0 0.06923,0.0586 0.99055045,0.99055045 0 0 0 0.837886,0.055 c 0.177516,-0.0719 0.335507,-0.19527 0.51835,-0.25918 a 1.1982465,1.1982465 0 0 0 0.229,-0.0888 0.47574822,0.47574822 0 0 0 0.203256,-0.30444 1.2550523,1.2550523 0 0 0 0.01332,-0.37368 4.2968232,4.2968232 0 0 0 -0.305332,-1.40505 0.177518,0.177518 0 0 0 -0.05148,-0.0746 0.16420415,0.16420415 0 0 0 -0.08876,-0.024 c -0.227222,-0.024 -0.60001,-0.14024 -0.819245,-0.0559 a 0.57870867,0.57870867 0 0 0 -0.193494,0.17219 c -0.04083,0.0453 -0.297344,0.24852 -0.297344,0.30799 z"
         fill="#a1616a"
         id="path105"
         style="stroke-width:0.0887589" />
      <path
         d="m 56.267436,436.63799 c 0,-0.21658 -0.266277,-0.73936 0.157103,-0.77398 0,-0.23166 -0.32752,-0.37545 -0.266277,-0.62131 0.01952,-0.0817 0.08876,-0.14823 0.09675,-0.23166 0.02664,-0.23699 -0.401192,-0.36569 -0.330184,-0.59291 0.02664,-0.0888 0.120711,-0.14024 0.141128,-0.22811 0.04793,-0.20504 -0.318647,-0.29646 -0.325745,-0.50682 0,-0.071 0.03994,-0.13757 0.03639,-0.20858 0,-0.0888 -0.07722,-0.15622 -0.119822,-0.23344 -0.110949,-0.19793 -0.05681,-0.50415 -0.259179,-0.60622 0.134026,0.0115 0.177519,-0.18728 0.122489,-0.30888 -0.05503,-0.1216 -0.167754,-0.22722 -0.168643,-0.36214 a 0.54675543,0.54675543 0 0 0 0,-0.14734 c -0.03728,-0.12959 -0.249413,-0.14024 -0.284915,-0.26628 a 1.13434,1.13434 0 0 1 -0.0044,-0.14556 c -0.01419,-0.1003 -0.117162,-0.1642 -0.213911,-0.19261 a 0.87250096,0.87250096 0 0 1 -0.285804,-0.10207 c -0.06213,-0.047 -0.134026,-0.12515 -0.200593,-0.0888 -0.02486,0.0151 -0.03728,0.0435 -0.05592,0.0648 -0.07988,0.0932 -0.232549,0.0524 -0.332847,-0.016 -0.296456,-0.20149 -0.443796,-0.56274 -0.506814,-0.91511 -0.06302,-0.35237 -0.06124,-0.71629 -0.140238,-1.06511 a 2.2757808,2.2757808 0 0 0 -0.09586,-0.31953 c -0.03373,-0.0888 -0.142013,-0.22811 -0.149115,-0.31776 -0.01597,-0.20414 0.406516,-0.0648 0.567171,-0.0444 a 2.5260811,2.5260811 0 0 1 0.460656,0.0888 4.9252369,4.9252369 0 0 1 0.471312,0.20681 c 0.640839,0.28314 1.414819,0.31776 1.92962,0.79351 0.169531,0.15621 0.312434,0.36124 0.532554,0.43225 a 2.4098068,2.4098068 0 0 1 0.29823,0.0772 c 0.244089,0.1145 0.282255,0.43847 0.415392,0.6728 a 1.3189587,1.3189587 0 0 1 0.109174,0.19527 0.75267631,0.75267631 0 0 1 0.0355,0.24852 l 0.01865,0.6151 c 0.03016,1.03049 0.06035,2.06365 -0.04971,3.08793 -0.0355,0.33817 -0.08876,0.6861 0.01154,1.01096 0.02664,0.0888 0.06391,0.17219 0.08876,0.26184 a 1.597662,1.597662 0 0 1 0.03373,0.31953 l 0.01419,0.39853 a 0.1242626,0.1242626 0 0 1 -0.01952,0.0888 0.12781296,0.12781296 0 0 1 -0.1074,0.0257 c -0.554745,-0.0497 -1.1157,-0.36214 -1.639378,-0.17308"
         fill="#464353"
         id="path107"
         style="fill:#ffffff;fill-opacity:1;stroke-width:0.0887589" />
      <ellipse
         cx="81.583282"
         cy="466.311"
         rx="6.5646152"
         ry="0.94883364"
         fill="#504f60"
         id="ellipse109"
         style="stroke-width:0.0887589" />
      <path
         d="m 87.231014,466.35716 c -0.115387,-0.49439 -0.187282,-0.92842 -0.187282,-0.92842 0,0 0.02663,-0.53787 -0.214797,-0.94173 v -0.13491 0 -0.9941 a 3.3888188,3.3888188 0 0 1 0.251188,-0.52102 c 0.177518,-0.31243 0,-1.45742 0,-1.45742 0,0 -0.663029,-1.61453 -0.502376,-2.63881 0.160654,-1.02427 -1.361563,-4.54801 -1.361563,-4.54801 a 4.4903179,4.4903179 0 0 1 0.142902,-1.00653 0.76776535,0.76776535 0 0 0 0.01953,-0.21124 c 0,-0.009 0,-0.0169 0,-0.0257 0,-0.009 0,0.005 0,0.008 -0.02308,-0.67546 -0.557407,-1.94116 -0.557407,-1.94116 l 0.07189,-2.41247 c 0,0 0.340835,-1.42014 -0.214796,-3.3329 -0.194383,-0.66658 -0.318645,-1.20002 -0.397641,-1.61186 -0.0089,-0.0462 -0.01775,-0.0888 -0.02485,-0.13403 1.144103,-0.17752 2.018379,-0.31953 2.018379,-0.31953 0,0 -0.663917,-2.77727 -1.11215,-3.26367 -0.448233,-0.4864 -0.806819,-2.01394 -0.806819,-2.01394 0,0 -0.233437,-1.96068 0.143789,-2.53407 0.377226,-0.57338 0.430482,-1.56216 0.430482,-1.56216 0,0 0.860074,-0.62131 0.96836,-0.90267 0.108286,-0.28137 0.286692,-0.90268 0.286692,-1.23198 0,-0.32929 -0.107399,-0.62131 -0.07189,-0.79883 0.0355,-0.17752 -0.251188,-0.83345 -0.107399,-1.14588 a 0.84054772,0.84054772 0 0 0 0.05681,-0.30089 0.03905396,0.03905396 0 0 0 0,-0.009 c 0,0 0,0 0,0 a 4.2169401,4.2169401 0 0 0 -0.07545,-0.81481 2.3121719,2.3121719 0 0 0 -0.852086,-0.45533 l -0.01864,-0.0746 -0.04882,-0.19527 a 0.94705852,0.94705852 0 0 0 -0.08432,-0.0497 v -0.071 l -0.008,-0.28226 0.134914,-0.63374 c 0.266277,-1.10238 -1.206235,-1.26659 -1.206235,-1.26659 a 0.77664124,0.77664124 0 0 0 -0.417167,-0.36568 c -0.295568,-0.10385 -0.04882,1.65801 0.08876,1.77518 0.103848,0.0888 0.425155,0.63729 0.580484,0.90889 v 0 l 0.02485,0.0444 a 0.621313,0.621313 0 0 0 -0.06746,0.071 l 0.05592,0.38256 0.0089,0.0586 a 1.5878985,1.5878985 0 0 0 -0.235212,0.4003 c 0,0 0.266277,0.29468 0.215685,0.62132 -0.05059,0.32663 0.08255,0.74113 0.08876,0.76332 -0.01597,-0.0186 -0.205034,-0.22278 -0.39409,-0.17308 -0.189057,0.0497 -0.717173,0.20859 -0.717173,0.20859 0,0 -0.39409,0.0692 -0.355036,0.15621 0.03905,0.087 -0.266277,0.46865 -0.266277,0.46865 l -1.059782,-1.00475 c -0.01065,-0.0302 -0.02219,-0.0604 -0.03107,-0.0888 a 2.4435353,2.4435353 0 0 1 -0.08876,-0.4438 2.4240083,2.4240083 0 0 0 0.33906,-0.1074 0.73137415,0.73137415 0 0 0 0.292904,-0.18816 c 0.107399,-0.12693 0.127813,-0.29912 0.171305,-0.45711 0.08343,-0.30889 0.266277,-0.58315 0.393203,-0.87694 a 2.8509391,2.8509391 0 0 0 0.199707,-1.57814 1.0296044,1.0296044 0 0 0 -0.162429,-0.46154 c -0.17308,-0.23788 -0.487287,-0.33462 -0.715397,-0.52457 -0.228111,-0.18994 -0.375451,-0.48019 -0.641728,-0.62131 -0.240537,-0.1287 -0.532554,-0.11361 -0.804156,-0.0692 a 4.334102,4.334102 0 0 0 -1.50269,0.54676 c -0.154441,0.0888 -0.324858,0.19793 -0.502376,0.16509 -0.152666,-0.0275 -0.266277,-0.14911 -0.362137,-0.26627 a 0.088759,0.088759 0 0 1 0.0044,-0.0142 0.088759,0.088759 0 0 1 -0.01154,-0.0142 1.8719273,1.8719273 0 0 0 -0.165092,0.7935 c 0,0.0426 0,0.0888 0.0053,0.12693 v 0.0444 c 0,0.0124 0,0.0249 0,0.0364 v 0 a 0.20237052,0.20237052 0 0 1 -0.008,0.0559 0.40385347,0.40385347 0 0 1 -0.09941,0.1429 0.9577096,0.9577096 0 0 0 -0.08876,0.11805 c 0,-0.0142 0.0089,-0.0284 0.0142,-0.0435 a 0.6310765,0.6310765 0 0 0 -0.110061,0.33462 0.34172214,0.34172214 0 0 0 0.07988,0.23964 1.153867,1.153867 0 0 0 0.17308,0.13847 2.0192673,2.0192673 0 0 0 -0.03195,0.35504 2.0512205,2.0512205 0 0 0 0.999426,1.74943 c 0.01243,0.0293 0.02397,0.0595 0.0355,0.0888 0.135801,0.35503 0.237874,0.7722 0.192607,1.15386 0,0.0275 -0.008,0.0559 -0.01243,0.0834 -0.0044,0.0275 -0.02663,0.0293 -0.03817,0.0444 v 0 c 0,0 -1.751215,0.0178 -2.163057,-0.35503 -0.411841,-0.37279 -1.040255,0.91155 -1.040255,0.91155 0,0 -0.627524,0.1216 -0.753562,0 -0.126038,-0.1216 -0.860077,-0.0169 -0.860077,-0.0169 a 1.582573,1.582573 0 0 0 -1.094401,-0.39942 3.2121882,3.2121882 0 0 0 -0.798831,-0.44379 v 0 l -0.01952,-0.007 v 0 a 0.89469073,0.89469073 0 0 0 -0.394979,-0.0497 c 0,0 -0.860963,-0.71007 -1.112151,-1.09351 -0.251184,-0.38344 -1.446769,-1.79915 -1.452096,-1.80536 v -0.0683 l -0.01332,-0.20592 a 0.7375873,0.7375873 0 0 1 -0.107396,0.009 c -0.0062,-0.0204 -0.0151,-0.0444 -0.02395,-0.0719 a 3.9701899,3.9701899 0 0 0 -0.253851,-0.58315 c 0,0 0,-0.26006 0.07544,-0.32574 0.07545,-0.0657 -0.03106,-1.01984 -0.03106,-1.01984 0,0 -0.775754,-1.81335 -1.470742,-0.45977 0,0 -1.313632,0.87605 -0.211243,1.89677 0,0 0.443793,0.21303 0.502375,0.38167 0.04083,0.10917 0.189945,0.41539 0.29024,0.62131 l 0.04527,0.0888 -0.01241,0.0106 0.01597,0.17041 0.0071,0.0657 c -0.207694,0.11805 -0.348822,0.23521 -0.314205,0.32309 a 1.9411593,1.9411593 0 0 1 0.12515,0.46864 c 0,0 1.524879,1.9101 1.721925,2.72579 0,0 4.089126,2.43023 5.433826,2.6033 l -0.237877,1.21157 a 9.6694054,9.6694054 0 0 0 -0.05325,0.98966 c 0.01775,0.26006 -0.161541,1.44055 -0.161541,1.44055 0,0 -0.233435,1.73613 -0.430481,1.97933 -0.197043,0.2432 -0.161541,1.28434 -0.161541,1.28434 a 8.7747147,8.7747147 0 0 1 -0.266277,1.47518 c -0.197043,0.65948 -0.05414,1.47606 -0.05414,1.47606 0,0 -0.680784,1.56216 0.950606,0.50326 0,0 0.798834,-0.0497 1.723703,-0.0817 0,0.0302 0,0.0612 0,0.0888 0,0.11894 0,0.24764 -0.0062,0.38255 -0.01243,0.89469 -0.01775,2.13022 0.02308,3.06041 0.07189,1.64915 0.57427,4.91281 0.57427,4.91281 v 1.64293 a 2.2358392,2.2358392 0 0 0 -0.04793,0.46865 3.0497592,3.0497592 0 0 0 0.443796,1.64115 l 0.126037,1.09352 c 0,0 0.29468,0.72072 0.300006,1.15386 a 0.60533637,0.60533637 0 0 1 -0.01243,0.10385 0.69853333,0.69853333 0 0 0 -0.0142,0.16776 c -0.01686,0.49705 0.282253,1.68642 0.282253,1.68642 0,0 0.01775,1.19735 0.197045,1.26747 0.153553,0.0595 -0.205033,0.68966 -0.311544,0.87073 a 0.24763761,0.24763761 0 0 1 -0.0062,-0.0337 l -0.02219,0.0355 a 0.85031122,0.85031122 0 0 0 -0.05592,0.30355 0.43491909,0.43491909 0 0 0 0.19882,0.42072 c 0.340835,0.20858 0.523679,0.38166 0.234324,0.45089 a 3.0124804,3.0124804 0 0 0 -0.315982,0.0666 c 0,-0.0133 -0.01065,-0.0275 -0.01509,-0.0399 a 0.18994426,0.18994426 0 0 0 -0.11805,0.20947 0.88759,0.88759 0 0 0 0.105624,0.40297 c 0.286745,0.64231 0.485565,0.88729 0.485565,0.88729 l 0.137577,-0.0151 a 0.67101805,0.67101805 0 0 1 -0.07988,0.14823 0.57160794,0.57160794 0 0 1 -0.202371,0.17752 0.62663854,0.62663854 0 0 1 -0.245862,0.0843 0.69232021,0.69232021 0 0 0 -0.507702,0.24675 c -0.177518,0.23166 -0.291129,0.54675 0.06213,0.82368 l 1.282568,0.4438 c 0,0 2.206549,0.28669 2.089387,-0.20858 -0.117162,-0.49528 -0.188169,-0.92842 -0.188169,-0.92842 a 1.9571359,1.9571359 0 0 0 -0.177518,-0.87783 1.1405532,1.1405532 0 0 0 -0.07811,-0.12959 l 0.07811,-0.008 c 0,0 0.161541,-1.0944 0.376338,-1.30209 0.04971,-0.0479 0.06124,-0.0888 0.04971,-0.11362 0.02219,-0.0595 -0.03462,-0.0941 -0.106511,-0.11449 l -0.01597,0.0435 a 1.0464686,1.0464686 0 0 0 -0.213909,-0.024 c 0,0 -0.07189,-0.5725 0.161542,-0.78108 a 0.22100991,0.22100991 0 0 0 0.04527,-0.17042 0.91599289,0.91599289 0 0 0 -0.02485,-0.23343 0.11449911,0.11449911 0 0 1 -0.008,0.0142 c -0.117162,-0.52013 -0.514803,-1.34647 -0.514803,-1.34647 0,0 -0.01775,-0.52013 0.126038,-0.72872 0.14379,-0.20858 -0.01864,-2.82963 -0.01864,-2.82963 0,0 0.05414,-1.26659 -0.107399,-1.85684 -0.161541,-0.59025 0.197045,-1.28523 0.197045,-1.28523 0,0 0,-0.0133 0,-0.0373 v -0.009 l -0.02041,-0.19971 a 0.05148022,0.05148022 0 0 0 0,0.0124 c -0.03639,-0.33551 -0.104736,-0.94351 -0.155328,-1.22399 -0.07189,-0.39942 0.01864,-2.30773 0.01864,-2.30773 l 0.322195,-0.81659 0.574271,1.40683 0.609774,1.87459 c 0,0 0.301781,0.39587 0.308882,0.79883 0,0.0195 0,0.0391 0,0.0586 a 1.0242788,1.0242788 0 0 0 -0.0071,0.12515 1.114813,1.114813 0 0 0 0.185506,0.66835 c 0,0 0.161542,0.88759 0.41273,1.11038 0.251187,0.22278 0.251187,0.65947 0.251187,0.65947 0,0 0.304444,1.28524 0.443795,1.50891 0.120713,0.18994 0.126926,0.71007 0.126038,0.8725 v 0 c 0,0.0293 0,0.0462 0,0.0462 0,0 0.0426,0.45978 0.04083,0.84499 0,0.0479 0,0.0941 0,0.13757 a 0.03816637,0.03816637 0 0 0 0,-0.01 1.3367105,1.3367105 0 0 1 -0.03728,0.31243 l -0.0053,0.0177 c 0,-0.0222 0,-0.0435 0.0062,-0.0648 a 3.2618932,3.2618932 0 0 0 -0.08876,0.79883 c -0.008,0.46155 0.06213,1.00831 0.341722,1.33139 0.484624,0.55563 0.789068,0.4864 0.789068,0.4864 0,0 -0.232549,0.69409 -0.520128,0.83345 a 0.13491368,0.13491368 0 0 0 -0.03018,0.0195 c 0,-0.0142 -0.0053,-0.0275 -0.0071,-0.0408 a 0.33817179,0.33817179 0 0 0 -0.08876,0.25918 c -0.02041,0.30533 0.172192,0.79883 0.355036,1.02871 a 0.57959625,0.57959625 0 0 0 0.242312,0.14202 0.38432646,0.38432646 0 0 1 -0.04527,0.0275 0.96392275,0.96392275 0 0 1 -0.09852,0.047 0.51746496,0.51746496 0 0 1 -0.146452,0.0382 0.68344428,0.68344428 0 0 0 -0.507702,0.24675 c -0.177518,0.23077 -0.291129,0.54587 0.06213,0.82279 l 1.282567,0.4438 c 0,0 2.192348,0.28136 2.076961,-0.21302 z"
         fill="url(#b6a338e9-6675-4055-aeec-b883651a73ae-33)"
         id="path111"
         style="fill:url(#b6a338e9-6675-4055-aeec-b883651a73ae-33);stroke-width:0.0887589" />
      <path
         d="m 78.806897,467.1773 -1.242626,-0.4438 c -0.34261,-0.27693 -0.233436,-0.59202 -0.06036,-0.82368 a 0.66391732,0.66391732 0 0 1 0.491725,-0.24675 0.58935975,0.58935975 0 0 0 0.236986,-0.0843 0.56805759,0.56805759 0 0 0 0.197045,-0.17752 0.91688047,0.91688047 0 0 0 0.141127,-0.48019 c 0,0 1.363338,-0.39941 1.736126,0 a 1.0091898,1.0091898 0 0 1 0.165092,0.24232 2.0281431,2.0281431 0 0 1 0.177518,0.87782 c 0,0 0.06923,0.43314 0.181956,0.92842 0.112724,0.49527 -2.024593,0.2077 -2.024593,0.2077 z"
         fill="#2d293d"
         id="path113"
         style="stroke-width:0.0887589" />
      <path
         d="m 84.881563,466.56486 -1.242626,-0.4438 c -0.34261,-0.27692 -0.233436,-0.59202 -0.06036,-0.82279 a 0.65592901,0.65592901 0 0 1 0.490837,-0.24675 0.46065921,0.46065921 0 0 0 0.142014,-0.0382 0.94173298,0.94173298 0 0 0 0.09586,-0.047 c 0.347048,-0.19083 0.338172,-0.65948 0.338172,-0.65948 0,0 1.362451,-0.39942 1.736126,0 a 0.98344972,0.98344972 0 0 1 0.130476,0.17752 c 0.233436,0.40385 0.207696,0.94262 0.207696,0.94262 0,0 0.06923,0.43403 0.177518,0.92842 0.108286,0.49439 -2.015717,0.20947 -2.015717,0.20947 z"
         fill="#2d293d"
         id="path115"
         style="stroke-width:0.0887589" />
      <path
         d="m 80.307812,464.92016 a 1.0091898,1.0091898 0 0 1 0.165092,0.24231 v 0 l -2.041458,0.23698 a 0.91688047,0.91688047 0 0 0 0.141127,-0.48018 c 0,0 1.362451,-0.39853 1.735239,0.001 z"
         opacity="0.1"
         id="path117"
         style="stroke-width:0.0887589" />
      <path
         d="m 86.513841,464.48612 v 0.38255 c -0.317757,0.5228 -1.854176,0.40829 -2.300633,0.14646 a 0.94173298,0.94173298 0 0 0 0.09586,-0.0471 c 0.347048,-0.19083 0.338172,-0.65947 0.338172,-0.65947 0,0 1.362451,-0.39942 1.736126,0 a 0.98344972,0.98344972 0 0 1 0.130476,0.17751 z"
         opacity="0.1"
         id="path119"
         style="stroke-width:0.0887589" />
      <path
         d="m 86.756153,462.83698 a 3.4793529,3.4793529 0 0 0 -0.242312,0.52102 v 1.37132 c -0.347935,0.5725 -2.152406,0.38167 -2.396493,0.0692 -0.244087,-0.31244 -0.498826,-1.12547 -0.22456,-1.26659 0.274265,-0.14113 0.503263,-0.83345 0.503263,-0.83345 0,0 -0.295567,0.0692 -0.764215,-0.4864 -0.468647,-0.55563 -0.329296,-1.78761 -0.242312,-2.08229 0.08698,-0.29468 0,-1.28434 0,-1.28434 0,0 0.01775,-0.69498 -0.120712,-0.92043 -0.138464,-0.22545 -0.434032,-1.5089 -0.434032,-1.5089 0,0 0,-0.43404 -0.243199,-0.65948 -0.2432,-0.22545 -0.399416,-1.11127 -0.399416,-1.11127 a 1.138778,1.138778 0 0 1 -0.17308,-0.74646 c 0.05148,-0.43403 -0.295567,-0.90268 -0.295567,-0.90268 l -0.590248,-1.87548 -0.555631,-1.40594 -0.312432,0.8157 c 0,0 -0.08876,1.9092 -0.01686,2.30773 0.07189,0.39853 0.177517,1.45831 0.177517,1.45831 0,0 -0.347047,0.69409 -0.190831,1.28434 0.156215,0.59025 0.09941,1.85862 0.09941,1.85862 0,0 0.156215,2.62016 0.01686,2.82875 -0.139352,0.20858 -0.1216,0.72959 -0.1216,0.72959 0,0 0.710072,1.52666 0.486399,1.73524 -0.223672,0.20859 -0.156216,0.78108 -0.156216,0.78108 0,0 0.485512,0 0.277816,0.20859 -0.207696,0.20858 -0.364799,1.30209 -0.364799,1.30209 l -2.099151,0.24586 c 0,0 -0.191719,-0.24231 -0.469535,-0.88759 -0.277815,-0.64527 0.05148,-0.57249 0.331071,-0.64261 0.279591,-0.0701 0.102961,-0.24232 -0.227223,-0.4509 -0.330183,-0.20858 -0.138464,-0.67723 -0.138464,-0.67723 0,0 0.503264,-0.85031 0.329296,-0.91954 -0.173968,-0.0692 -0.190832,-1.26748 -0.190832,-1.26748 0,0 -0.347047,-1.42014 -0.260064,-1.80536 0.08698,-0.38521 -0.277815,-1.30121 -0.277815,-1.30121 l -0.1216,-1.09351 a 3.0089301,3.0089301 0 0 1 -0.381664,-2.0663 v -1.68643 c 0,0 -0.486399,-3.26278 -0.555631,-4.91192 -0.04438,-1.05623 -0.03195,-2.49768 -0.01775,-3.39681 0.0089,-0.50415 0.01775,-0.83877 0.01775,-0.83877 l 7.49836,-0.78108 c 0,0 -0.0071,0.34616 0.135802,1.11393 0.07722,0.41184 0.197045,0.94528 0.385213,1.61186 0.53788,1.90921 0.208584,3.33201 0.208584,3.33201 l -0.07012,2.41336 c 0,0 0.65948,1.61364 0.521016,2.16927 a 4.6270067,4.6270067 0 0 0 -0.140239,1.0083 c 0,0 1.475174,3.52374 1.318958,4.54801 -0.156216,1.02428 0.485512,2.63881 0.485512,2.63881 0,0 0.175743,1.14499 0.0018,1.45742 z"
         fill="#464353"
         id="path121"
         style="fill:url(#linearGradient1956);fill-opacity:1;stroke-width:0.0887589" />
      <path
         d="m 82.469093,453.79421 2.282882,-0.30444 c 0,0 -1.293219,1.31985 -2.282882,0.30444 z"
         opacity="0.05"
         id="path123"
         style="stroke-width:0.0887589" />
      <path
         d="m 84.421791,451.25926 c 0,0 0.07811,0.80771 -0.416279,1.11126 0,0 0.884927,-0.13846 0.416279,-1.11126 z"
         opacity="0.1"
         id="path125"
         style="stroke-width:0.0887589" />
      <path
         d="m 84.281552,448.69057 c 0,0 -1.908318,1.57104 -2.602414,1.44056 -0.694095,-0.13047 2.602414,-1.44056 2.602414,-1.44056 z"
         opacity="0.1"
         id="path127"
         style="stroke-width:0.0887589" />
      <path
         d="m 79.639456,454.53091 c 0,0 -1.449434,0.3293 -1.492926,0.91156 -0.04349,0.58226 1.492926,-0.91156 1.492926,-0.91156 z"
         opacity="0.1"
         id="path129"
         style="stroke-width:0.0887589" />
      <path
         d="m 79.958101,461.7701 c 0,0 -2.04767,0.38166 -1.466298,0.64172 0.581371,0.26007 1.536418,0.46865 1.536418,0.46865 0,0 0.661254,0.0346 -0.07012,-1.11037 z"
         opacity="0.05"
         id="path131"
         style="stroke-width:0.0887589" />
      <g
         opacity="0.05"
         id="g155"
         transform="matrix(0.088759,0,0,0.088759,14.338572,418.78145)">
        <path
           d="m 802.58,614.45 a 4.55,4.55 0 0 1 -2.11,-3.34 l -0.24,0.41 c 0,0 -2.15,5.28 1.57,7.62 0.42,0.27 0.83,0.54 1.2,0.8 0.69,-0.13 1.43,-0.23 2.14,-0.41 3.15,-0.78 1.16,-2.73 -2.56,-5.08 z"
           transform="translate(-84.46,-118.23)"
           id="path133" />
        <path
           d="m 832.3,612.88 c 0.64,-0.58 0.62,-2.08 0.23,-4 -1,1.51 -1.29,3.87 -1.31,5.66 a 4.88,4.88 0 0 1 1.08,-1.66 z"
           transform="translate(-84.46,-118.23)"
           id="path135" />
        <path
           d="m 828.75,515.59 a 26.67,26.67 0 0 0 -1.56,7.19 29,29 0 0 1 1.79,-4.94 z"
           transform="translate(-84.46,-118.23)"
           id="path137" />
        <path
           d="m 881.59,505.33 a 9.18,9.18 0 0 0 0.21,-2.14 c -0.29,1.46 -0.49,2.81 -0.64,4 0.13,-0.61 0.27,-1.19 0.43,-1.86 z"
           transform="translate(-84.46,-118.23)"
           id="path139" />
        <path
           d="m 828.2,585.12 c 0.32,-0.48 0.5,-2.1 0.58,-4.35 a 14.77,14.77 0 0 0 -1.13,5.49 5.25,5.25 0 0 1 0.55,-1.14 z"
           transform="translate(-84.46,-118.23)"
           id="path141" />
        <path
           d="m 833,622 a 77.62,77.62 0 0 0 -2.69,12 l -23.65,2.73 c 0,0 -2.16,-2.73 -5.29,-10 a 18.1,18.1 0 0 1 -0.67,-1.72 c -1.42,0.65 -2,2.12 -0.12,6.41 3.13,7.24 5.3,10 5.3,10 l 23.65,-2.74 c 0,0 1.76,-12.32 4.1,-14.67 1.2,-1.13 0.46,-1.72 -0.63,-2.01 z"
           transform="translate(-84.46,-118.23)"
           id="path143" />
        <path
           d="m 801.8,586.88 c 0,0 0.19,13.49 2.15,14.27 v 0 c 1,-2.23 1.65,-4.35 0.77,-4.7 -2,-0.78 -2.15,-14.28 -2.15,-14.28 0,0 -3.91,-16 -2.93,-20.34 0.98,-4.34 -3.13,-14.66 -3.13,-14.66 l -1.37,-12.32 a 33.9,33.9 0 0 1 -4.3,-23.28 v -19 c 0,0 -5.48,-36.76 -6.26,-55.34 -0.5,-11.9 -0.36,-28.14 -0.2,-38.27 0,-1.83 0.06,-3.45 0.09,-4.82 l -0.67,0.07 c 0,0 -0.11,3.76 -0.2,9.45 -0.16,10.13 -0.31,26.37 0.2,38.26 0.78,18.58 6.25,55.35 6.25,55.35 v 19 a 33.92,33.92 0 0 0 4.31,23.27 l 1.36,12.32 c 0,0 4.11,10.36 3.13,14.67 -0.98,4.31 2.95,20.35 2.95,20.35 z"
           transform="translate(-84.46,-118.23)"
           id="path145" />
        <path
           d="m 871.42,631.46 a 22.87,22.87 0 0 1 -3.75,-9.29 c -2.41,2.18 0.36,10.64 3,14 2.73,3.52 23.07,5.67 27,-0.79 v -3.72 c -5.33,5.23 -23.67,3.13 -26.25,-0.2 z"
           transform="translate(-84.46,-118.23)"
           id="path147" />
        <path
           d="m 901.14,609.36 a 39.51,39.51 0 0 0 -2.74,5.87 V 618 c 0.45,-1 1.08,-2.34 2,-3.92 a 12,12 0 0 0 0.86,-4.85 c 0,0 -0.09,0.09 -0.12,0.13 z"
           transform="translate(-84.46,-118.23)"
           id="path149" />
        <path
           d="m 872.62,612.45 a 38.66,38.66 0 0 0 1.93,-4.65 c 0,0 -3.33,0.78 -8.61,-5.48 -3.84,-4.55 -4.06,-13.15 -3.51,-18.77 -1,3.33 -2.55,17.21 2.73,23.47 3.45,4.09 6.06,5.17 7.46,5.43 z"
           transform="translate(-84.46,-118.23)"
           id="path151" />
        <path
           d="m 862.42,569.08 a 104.22,104.22 0 0 1 0.39,11.59 15.82,15.82 0 0 1 0.4,-1.81 c 1,-3.33 0,-14.47 0,-14.47 0,0 0.2,-7.83 -1.37,-10.37 C 860.27,551.48 857,537 857,537 c 0,0 0,-4.89 -2.74,-7.43 -2.74,-2.54 -4.5,-12.52 -4.5,-12.52 a 12.87,12.87 0 0 1 -2,-8.41 c 0.59,-4.89 -3.32,-10.17 -3.32,-10.17 l -6.65,-21.12 -6.26,-15.84 -3.53,9.2 c 0,0 0,1.16 -0.12,3 l 2.86,-7.47 6.26,15.81 6.65,21.12 c 0,0 3.91,5.28 3.32,10.17 a 12.87,12.87 0 0 0 2,8.41 c 0,0 1.76,10 4.5,12.52 2.74,2.52 2.73,7.43 2.73,7.43 0,0 3.33,14.47 4.89,17 1.56,2.53 1.33,10.38 1.33,10.38 z"
           transform="translate(-84.46,-118.23)"
           id="path153" />
      </g>
      <path
         d="m 84.846947,426.86296 -0.130476,0.63374 0.008,0.28226 0.0053,0.20769 -0.724273,0.0746 -0.08077,-0.15001 v 0 c -0.150003,-0.2716 -0.461547,-0.82368 -0.561844,-0.90889 -0.134027,-0.11183 -0.372788,-1.87459 -0.08876,-1.76985 a 0.75711427,0.75711427 0 0 1 0.402966,0.3648 c 0,0 1.426357,0.16332 1.169844,1.2657 z"
         fill="#ffcdd3"
         id="path157"
         style="stroke-width:0.0887589" />
      <path
         d="m 84.729785,427.98665 -0.724273,0.0746 -0.08077,-0.15001 v 0 a 0.63817719,0.63817719 0 0 1 0.798831,-0.13136 z"
         opacity="0.1"
         id="path159"
         style="fill:#5c63a0;fill-opacity:1;stroke-width:0.0887589" />
      <path
         d="m 84.912629,428.33015 -0.955047,0.22101 -0.02041,-0.14202 -0.05414,-0.38255 c 0,0 0.378114,-0.50415 0.924869,-0.12604 l 0.04793,0.19439 z"
         fill="#6c63ff"
         id="path161"
         style="fill:#5c63a0;fill-opacity:1;stroke-width:0.0887589" />
      <path
         d="m 69.441933,426.93219 -1.01984,0.54676 -0.08876,-0.19172 c -0.09675,-0.20326 -0.241425,-0.50947 -0.281366,-0.62131 -0.06036,-0.16865 -0.485511,-0.38167 -0.485511,-0.38167 -1.065108,-1.01984 0.204145,-1.89678 0.204145,-1.89678 0.672793,-1.35357 1.420143,0.45978 1.420143,0.45978 0,0 0.104736,0.95593 0.03106,1.01984 -0.07367,0.0639 -0.07367,0.32574 -0.07367,0.32574 a 4.0065814,4.0065814 0 0 1 0.245864,0.58315 c 0.03106,0.0967 0.04793,0.15621 0.04793,0.15621 z"
         fill="#ffcdd3"
         id="path163"
         style="stroke-width:0.0887589" />
      <path
         d="m 69.441933,426.93219 -1.01984,0.54676 -0.08876,-0.19172 c 0.143788,-0.12071 0.654155,-0.53256 0.821908,-0.51569 a 1.2284246,1.2284246 0 0 0 0.241426,0.006 c 0.02841,0.095 0.04526,0.15443 0.04526,0.15443 z"
         opacity="0.1"
         id="path165"
         style="fill:#5c63a0;fill-opacity:1;stroke-width:0.0887589" />
      <path
         d="m 69.545784,427.24019 -1.145878,0.5645 -0.02308,-0.24586 -0.01597,-0.17041 c 0,0 0.663916,-0.56895 0.860074,-0.54676 a 1.0429182,1.0429182 0 0 0 0.299119,0 l 0.01332,0.20592 z"
         fill="#6c63ff"
         id="path167"
         style="fill:#5c63a0;fill-opacity:1;stroke-width:0.0887589" />
      <path
         d="m 82.069678,431.0728 c 0,0 -4.995357,0.56362 -4.061612,0.26006 0.649716,-0.21213 0.908005,-0.62131 0.962148,-1.08285 0.04438,-0.38433 -0.05503,-0.79883 -0.185507,-1.15387 a 5.0308601,5.0308601 0 0 0 -0.443795,-0.90268 c 0,0 3.816637,-2.10004 3.054197,-0.19083 a 3.0781621,3.0781621 0 0 0 -0.216572,0.90445 2.5553716,2.5553716 0 0 0 0.09852,0.916 2.7275641,2.7275641 0 0 0 0.792618,1.24972 z"
         fill="#ffcdd3"
         id="path169"
         style="stroke-width:0.0887589" />
      <path
         d="m 81.392447,427.99997 a 3.0781621,3.0781621 0 0 0 -0.216573,0.90445 c -0.359473,0.30267 -0.753563,0.28225 -1.260377,0.28225 -0.388765,0 -0.820133,0.0941 -1.13079,-0.0932 a 5.0308601,5.0308601 0 0 0 -0.443795,-0.90267 c 0,0 3.81575,-2.10004 3.051535,-0.19083 z"
         opacity="0.1"
         id="path171"
         style="stroke-width:0.0887589" />
      <circle
         cx="79.848038"
         cy="427.25439"
         r="2.0654221"
         fill="#ffcdd3"
         id="circle173"
         style="stroke-width:0.0887589" />
      <path
         d="m 82.069678,431.0728 c 0,0 -4.995357,0.56362 -4.061612,0.26006 0.649716,-0.21213 0.908005,-0.62131 0.962148,-1.08285 0.248525,-0.26628 0.748238,-0.46422 1.065108,-0.56717 a 1.4947016,1.4947016 0 0 1 0.905341,-0.0151 1.2870055,1.2870055 0 0 1 0.329296,0.15266 2.7275641,2.7275641 0 0 0 0.799719,1.25239 z"
         opacity="0.1"
         id="path175"
         style="stroke-width:0.0887589" />
      <path
         d="m 84.912629,428.33015 -0.955047,0.22101 -0.02041,-0.14202 a 0.84498568,0.84498568 0 0 1 0.918655,-0.3142 z"
         opacity="0.1"
         id="path177"
         style="fill:#5c63a0;fill-opacity:1;stroke-width:0.0887589" />
      <path
         d="m 69.545784,427.24019 -1.145878,0.5645 -0.02308,-0.24586 a 8.3575473,8.3575473 0 0 1 1.15387,-0.51214 z"
         opacity="0.1"
         id="path179"
         style="fill:#5c63a0;fill-opacity:1;stroke-width:0.0887589" />
      <path
         d="m 84.045453,443.65971 c -1.935834,0.30888 -4.687363,0.70297 -5.124057,0.56983 -0.363024,-0.11006 -1.520442,-0.0985 -2.527856,-0.0639 0.0089,-0.50415 0.01775,-0.83877 0.01775,-0.83877 l 7.49836,-0.78108 c 0,0 -0.0071,0.34616 0.135803,1.11392 z"
         opacity="0.1"
         id="path181"
         style="stroke-width:0.0887589" />
      <path
         d="m 85.975074,443.20527 c 0,0 -6.370233,1.09351 -7.053678,0.88759 -0.683444,-0.20592 -4.193863,0.0169 -4.193863,0.0169 -1.579909,1.05889 -0.920431,-0.50326 -0.920431,-0.50326 0,0 -0.138464,-0.8157 0.05237,-1.47518 a 9.0125887,9.0125887 0 0 0 0.261839,-1.47695 c 0,0 -0.03462,-1.04203 0.156214,-1.28523 0.190834,-0.2432 0.41717,-1.97844 0.41717,-1.97844 0,0 0.173077,-1.18049 0.156214,-1.44055 -0.01687,-0.26006 0.05148,-0.98967 0.05148,-0.98967 l 0.226337,-1.2151 c -1.302096,-0.17308 -5.259859,-2.60331 -5.259859,-2.60331 -0.190831,-0.81569 -1.666007,-2.7249 -1.666007,-2.7249 a 2.0086162,2.0086162 0 0 0 -0.1216,-0.46864 c -0.103847,-0.27782 1.458312,-0.83345 1.458312,-0.83345 0,0 1.162743,1.42014 1.405943,1.80536 0.243197,0.38521 1.075759,1.09351 1.075759,1.09351 a 0.83699737,0.83699737 0 0 1 0.381661,0.0497 l 0.02043,0.006 v 0 a 3.0941387,3.0941387 0 0 1 0.77664,0.44379 1.508903,1.508903 0 0 1 1.058895,0.39942 c 0,0 0.710073,-0.10474 0.833448,0.0169 0.123374,0.1216 0.728711,0 0.728711,0 0,0 0.607111,-1.28434 1.006527,-0.91155 0.399415,0.37278 2.093825,0.35504 2.093825,0.35504 0.225447,-0.30001 0.774865,-0.51481 1.118363,-0.62132 a 1.5009147,1.5009147 0 0 1 0.905342,-0.0151 1.1485415,1.1485415 0 0 1 0.355036,0.17752 l 1.030492,1.00653 c 0,0 0.294679,-0.38255 0.260064,-0.46865 -0.03462,-0.0861 0.347047,-0.15621 0.347047,-0.15621 0,0 0.503264,-0.15622 0.694096,-0.20859 0.190831,-0.0524 0.365687,0.15444 0.381663,0.17309 -0.0062,-0.0222 -0.136689,-0.4438 -0.08876,-0.76333 0.04793,-0.31954 -0.208583,-0.62132 -0.208583,-0.62132 0.607111,-1.49292 1.978438,-0.2432 1.978438,-0.2432 0,0 0.156215,0.8157 0.01775,1.12813 -0.138464,0.31243 0.138464,0.97191 0.103848,1.14588 -0.03462,0.17397 0.07012,0.46865 0.07012,0.79883 0,0.33018 -0.177519,0.95416 -0.277816,1.23198 -0.100298,0.27781 -0.937295,0.90267 -0.937295,0.90267 0,0 -0.05237,0.98967 -0.417168,1.56216 -0.364799,0.5725 -0.135801,2.53052 -0.135801,2.53052 0,0 0.347048,1.52754 0.781079,2.01394 0.434032,0.4864 1.075759,3.25834 1.075759,3.25834 z"
         fill="#3f3d56"
         id="path183"
         style="fill:#ffffff;fill-opacity:1;stroke-width:0.0887589" />
      <path
         d="m 76.689107,431.78376 c 0,0 -0.190832,-0.5725 -0.364799,-0.62131 A 4.0154572,4.0154572 0 0 1 75.821044,430.937 l 0.111836,-0.21391 c 0,0 0.651492,0.17752 0.756227,0.37013 0.104736,0.1926 0,0.69054 0,0.69054 z"
         opacity="0.1"
         id="path185"
         style="stroke-width:0.0887589" />
      <path
         d="m 73.19999,430.51717 c -0.03462,0.17752 -1.579909,0.3293 -1.579909,0.3293 l 0.781078,-0.78286 v 0 l 0.01952,0.007 v 0 a 3.0941387,3.0941387 0 0 1 0.779304,0.44646 z"
         opacity="0.1"
         id="path187"
         style="stroke-width:0.0887589" />
      <circle
         cx="68.730095"
         cy="428.13489"
         r="0.13846403"
         fill="#575988"
         id="circle189"
         style="fill:#5c63a0;fill-opacity:1;stroke-width:0.0887589" />
      <circle
         cx="68.907616"
         cy="428.41272"
         r="0.13846403"
         fill="#575988"
         id="circle191"
         style="fill:#5c63a0;fill-opacity:1;stroke-width:0.0887589" />
      <circle
         cx="69.081581"
         cy="428.66922"
         r="0.13846403"
         fill="#575988"
         id="circle193"
         style="fill:#5c63a0;fill-opacity:1;stroke-width:0.0887589" />
      <circle
         cx="69.263542"
         cy="428.94614"
         r="0.13846403"
         fill="#575988"
         id="circle195"
         style="fill:#5c63a0;fill-opacity:1;stroke-width:0.0887589" />
      <circle
         cx="85.625366"
         cy="428.93106"
         r="0.11272393"
         fill="#575988"
         id="circle197"
         style="fill:#5c63a0;fill-opacity:1;stroke-width:0.0887589" />
      <circle
         cx="85.64312"
         cy="429.18756"
         r="0.11272393"
         fill="#575988"
         id="circle199"
         style="fill:#5c63a0;fill-opacity:1;stroke-width:0.0887589" />
      <circle
         cx="85.658195"
         cy="429.44321"
         r="0.11272393"
         fill="#575988"
         id="circle201"
         style="fill:#5c63a0;fill-opacity:1;stroke-width:0.0887589" />
      <path
         d="m 76.69532,436.48798 c -0.01686,-0.0204 3.89652,4.9208 6.933854,2.06542 0.0027,10e-4 -4.796537,0.6515 -6.933854,-2.06542 z"
         opacity="0.1"
         id="path203"
         style="stroke-width:0.0887589" />
      <path
         d="m 74.449719,439.05667 c 0,0 2.341461,0.0639 2.586436,0.73759 v 0.70119 a 0.44912052,0.44912052 0 0 1 -0.435807,0 c -0.236099,-0.12781 -1.651806,-0.84676 -2.150629,-0.5006 z"
         opacity="0.1"
         id="path205"
         style="stroke-width:0.0887589" />
      <path
         d="m 74.493209,439.05667 c 0,0 2.23939,0.0612 2.473714,0.70386 v 0.66746 a 0.42959355,0.42959355 0 0 1 -0.417168,0 c -0.225447,-0.12071 -1.579022,-0.80681 -2.056546,-0.47663 z"
         fill="#3f3d56"
         id="path207"
         style="fill:#5c63a0;fill-opacity:1;stroke-width:0.0887589" />
      <path
         d="m 75.727847,433.97256 a 7.5338639,7.5338639 0 0 0 0.908005,1.55772 6.1119447,6.1119447 0 0 0 1.420144,1.3731 c 0,0 -2.289095,-2.60951 -2.328149,-2.93082 z"
         opacity="0.1"
         id="path209"
         style="stroke-width:0.0887589" />
      <path
         d="m 74.961857,431.25209 c 0,0 0.39054,1.68642 1.397067,2.25892 z"
         opacity="0.1"
         id="path211"
         style="stroke-width:0.0887589" />
      <path
         d="m 74.362732,431.42251 c -0.0098,-0.0311 -0.347047,1.33139 1.297658,2.0885 0,0 -0.698533,-0.23699 -1.297658,-2.0885 z"
         opacity="0.1"
         id="path213"
         style="stroke-width:0.0887589" />
      <path
         d="m 84.586883,430.29172 c -0.02574,0 0.811257,0.53256 1.039368,0.78108 0,0 -0.54498,-0.81658 -1.039368,-0.78108 z"
         opacity="0.1"
         id="path215"
         style="stroke-width:0.0887589" />
      <path
         d="m 79.289746,429.12632 a 0.32574553,0.32574553 0 0 0 0.355036,0.32219 c 0.629301,0.0391 1.28523,0.0666 1.863939,-0.17752 a 0.71007198,0.71007198 0 0 0 0.284029,-0.18817 c 0.10296,-0.12692 0.123375,-0.29911 0.165092,-0.4571 0.08166,-0.30889 0.255625,-0.58315 0.380776,-0.87694 a 2.9379229,2.9379229 0 0 0 0.205033,-1.57548 1.065108,1.065108 0 0 0 -0.157991,-0.46065 c -0.166867,-0.23876 -0.47131,-0.33551 -0.69232,-0.52546 -0.22101,-0.18994 -0.363025,-0.48018 -0.621313,-0.62131 -0.232549,-0.12959 -0.517465,-0.11361 -0.779305,-0.0692 a 4.0909024,4.0909024 0 0 0 -1.453872,0.54586 c -0.150002,0.0888 -0.314207,0.19794 -0.486399,0.1651 -0.15089,-0.0284 -0.260952,-0.15533 -0.355036,-0.27427 a 1.9225199,1.9225199 0 0 0 -0.148228,0.9009 0.38698923,0.38698923 0 0 1 -0.0044,0.13581 0.40829139,0.40829139 0 0 1 -0.09675,0.1429 c -0.155329,0.17752 -0.252076,0.46598 -0.09852,0.64883 0.06657,0.079 0.16953,0.12249 0.234324,0.20326 0.116274,0.14467 0.07722,0.35503 0.07456,0.53965 a 0.27781567,0.27781567 0 0 0 0.04615,0.18284 0.266277,0.266277 0 0 0 0.254738,0.0613 0.69320779,0.69320779 0 0 1 0.271603,-0.0257 0.45533367,0.45533367 0 0 1 0.236099,0.17751 c 0.286692,0.37368 0.400303,0.7802 0.522791,1.22577 z"
         fill="#2d293d"
         id="path217"
         style="stroke-width:0.0887589" />
      <g
         opacity="0.1"
         id="g223"
         transform="matrix(0.088759,0,0,0.088759,14.338572,418.78145)">
        <path
           d="m 845.26,232.52 a 8,8 0 0 1 -3.2,2.12 c -6.56,2.73 -13.94,2.42 -21,2 a 4.92,4.92 0 0 1 -2.19,-0.49 c -1.08,-0.63 -1.49,-1.95 -1.82,-3.15 -1.38,-5 -2.65,-9.59 -5.93,-13.76 a 5.14,5.14 0 0 0 -2.66,-2.05 8.2,8.2 0 0 0 -3.06,0.29 3,3 0 0 1 -2.87,-0.68 3.13,3.13 0 0 1 -0.52,-2.06 c 0,-2.1 0.47,-4.45 -0.84,-6.08 -0.73,-0.91 -1.89,-1.4 -2.64,-2.3 a 4.56,4.56 0 0 1 -0.45,-4.66 c -1.25,2 -1.78,4.51 -0.33,6.23 0.75,0.89 1.91,1.38 2.64,2.29 1.31,1.64 0.87,4 0.84,6.08 a 3.11,3.11 0 0 0 0.51,2.06 3,3 0 0 0 2.88,0.69 7.81,7.81 0 0 1 3.06,-0.29 5.13,5.13 0 0 1 2.66,2 c 3.27,4.17 4.55,8.75 5.93,13.77 a 5,5 0 0 0 1.73,3.17 4.85,4.85 0 0 0 2.2,0.48 c 7.09,0.44 14.48,0.76 21,-2 a 7.92,7.92 0 0 0 3.2,-2.12 6.11,6.11 0 0 0 1,-1.88 c 0.01,0.13 -0.06,0.24 -0.14,0.34 z"
           transform="translate(-84.46,-118.23)"
           id="path219" />
        <path
           d="m 800,198.61 a 3.42,3.42 0 0 0 0.71,-1.18 4.36,4.36 0 0 0 0,-1.53 21.69,21.69 0 0 1 1.09,-8.42 l -0.13,-0.15 a 21.5,21.5 0 0 0 -1.67,10.14 7.23,7.23 0 0 1 0,1.14 z"
           transform="translate(-84.46,-118.23)"
           id="path221" />
      </g>
      <path
         d="m 78.921396,430.37782 c 0,0 2.580224,0.34261 2.811885,-0.0453"
         opacity="0.1"
         id="path225"
         style="stroke-width:0.0887589" />
      <path
         d="m 83.937167,429.31005 c 0,0 1.434345,0 1.74944,0.53965"
         opacity="0.1"
         id="path227"
         style="stroke-width:0.0887589" />
      <path
         d="m 91.961868,477.25322 a 2.2748931,2.2748931 0 0 1 -1.548844,0.57871 c -0.145565,0 -0.347048,0.0275 -0.347936,0.17308 a 0.24408725,0.24408725 0 0 0 0.0426,0.11893 1.4245819,1.4245819 0 0 0 0.798831,0.62753 c 0.310656,0.0941 0.642615,0.0781 0.966585,0.0612 l 0.945284,-0.0488 c 0.177518,-0.01 0.355036,-0.0187 0.532554,-0.0408 0.177518,-0.0222 0.371012,-0.0586 0.556518,-0.0888 a 7.278238,7.278238 0 0 1 1.376653,-0.0639 c 0.122487,0.004 0.266277,0 0.339059,-0.0888 0.07278,-0.0888 0.0355,-0.25829 0.008,-0.39143 -0.05681,-0.27426 0,-0.56184 -0.05237,-0.83699 -0.08876,-0.48285 -0.506813,-0.85297 -0.96481,-1.02783 -0.426043,-0.16154 -1.180495,-0.34705 -1.58346,-0.0772 -0.425156,0.28314 -0.68522,0.75623 -1.068659,1.10505 z"
         fill="#3f3d56"
         id="path229"
         style="stroke-width:0.0887589" />
      <path
         d="m 92.900938,461.076 c 0.08343,0.39675 0.467761,0.70031 0.478412,1.10505 0.0098,0.32486 -0.221898,0.59735 -0.388765,0.87517 a 5.8385669,5.8385669 0 0 0 -0.396753,0.89824 13.721254,13.721254 0 0 1 -1.164518,2.31661 c -0.221897,0.35503 -0.470422,0.73403 -0.41983,1.14676 a 1.7183742,1.7183742 0 0 0 0.201483,0.54853 l 0.665693,1.32251 a 3.8299509,3.8299509 0 0 1 0.339947,0.83523 c 0.05769,0.25118 0.06302,0.51125 0.09675,0.76687 0.104736,0.81126 0.485512,1.62784 0.260064,2.41425 -0.01953,0.0675 -0.08876,0.14911 -0.142902,0.10207 0.220122,0.41096 0.396752,0.82457 0.379888,1.29056 -0.0089,0.24408 -0.08343,0.49882 0.0062,0.72604 0.03817,0.095 0.104736,0.18374 0.103848,0.28581 0,0.0675 -0.03106,0.13048 -0.03817,0.19616 -0.01864,0.18728 0.153553,0.3435 0.331959,0.40296 0.178405,0.0595 0.372787,0.055 0.552968,0.10917 0.34616,0.10386 0.593798,0.40209 0.88759,0.60889 a 1.8896791,1.8896791 0 0 0 1.022504,0.33285 0.2574011,0.2574011 0 0 0 0.15089,-0.0302 0.24408725,0.24408725 0 0 0 0.08343,-0.18285 1.015403,1.015403 0 0 0 -0.365686,-0.88226 0.3994155,0.3994155 0 0 1 -0.135802,-0.14202 0.34260975,0.34260975 0 0 1 -0.01243,-0.15887 11.962938,11.962938 0 0 0 -0.03905,-2.18347 3.3160362,3.3160362 0 0 1 -0.03462,-0.69499 c 0.01864,-0.19349 0.07722,-0.38521 0.05592,-0.57782 -0.0213,-0.1926 -0.119825,-0.36835 -0.177518,-0.55386 -0.102961,-0.33018 -0.07456,-0.68521 -0.08876,-1.03049 -0.01775,-0.60001 -0.155329,-1.18937 -0.292017,-1.77518 -0.05414,-0.22988 -0.113612,-0.47042 -0.276041,-0.64084 -0.138464,-0.14467 -0.362137,-0.28314 -0.309769,-0.47575 a 0.56361963,0.56361963 0 0 1 0.126926,-0.18905 0.75888946,0.75888946 0 0 0 0.157991,-0.57871 0.26006387,0.26006387 0 0 0 0.299117,-0.14024 c 1.081085,-0.51037 1.952698,-1.53109 2.341463,-2.66277 a 0.87871411,0.87871411 0 0 1 0.104736,-0.23788 c 0.100297,-0.14023 0.274265,-0.20059 0.428705,-0.27781 0.484625,-0.24409 0.819246,-0.7012 1.126352,-1.14854 0.177518,-0.25918 0.355036,-0.52723 0.434919,-0.83256 a 2.7284517,2.7284517 0 0 0 0.05947,-0.6009 l 0.02752,-1.04292 a 0.56361963,0.56361963 0 0 0 -0.01953,-0.20414 0.51036423,0.51036423 0 0 0 -0.112724,-0.16509 2.0050658,2.0050658 0 0 0 -1.105937,-0.59646 c -0.284029,-0.0506 -0.57427,-0.0408 -0.86185,-0.0648 -0.557406,-0.0461 -1.107712,-0.21923 -1.665118,-0.17752 -0.876052,0.0648 -1.656243,0.67191 -2.068973,1.44766 -0.144677,0.27338 -0.297342,0.51125 -0.607999,0.51658 z"
         fill="#464353"
         id="path231"
         style="fill:#48486b;fill-opacity:1;stroke-width:0.0887589" />
      <path
         d="m 88.036945,454.29482 a 1.1654057,1.1654057 0 0 1 -0.06391,0.47486 c -0.06834,0.14556 -0.239649,0.25917 -0.389652,0.1997 0.04527,-0.10207 -0.07456,-0.21834 -0.186394,-0.20592 a 0.34882287,0.34882287 0 0 0 -0.245863,0.21125 0.78551716,0.78551716 0 0 0 -0.07101,0.48196 c 0.0355,0.20415 0.153553,0.4003 0.122488,0.60534 -0.02485,0.17041 -0.150003,0.33994 -0.08343,0.49793 a 0.80681932,0.80681932 0 0 0 0.160654,0.19261 0.54320509,0.54320509 0 0 1 -0.05769,0.74558 l 1.67932,0.0337 c -0.06124,0.28049 0.06479,0.56718 0.208584,0.81659 a 5.1480219,5.1480219 0 0 0 3.837939,2.50567 0.33373384,0.33373384 0 0 0 -0.08077,0.51036 c 0.136689,0.1358 0.36835,0.11894 0.539655,0.0311 0.171305,-0.0879 0.305331,-0.23343 0.461547,-0.34616 a 1.420144,1.420144 0 0 1 0.948833,-0.25562 c 0.210359,0.0204 0.414505,0.0888 0.625751,0.0994 0.621313,0.0328 1.153867,-0.41451 1.752103,-0.59735 0.435807,-0.13402 0.930194,-0.13402 1.295881,-0.40651 0.157991,-0.11717 0.287579,-0.30977 0.241425,-0.49972 a 0.83522218,0.83522218 0 0 0 -0.177518,-0.29379 c -0.210359,-0.27249 -0.334622,-0.60001 -0.485512,-0.90978 a 5.4418143,5.4418143 0 0 0 -1.213335,-1.62607 10.856113,10.856113 0 0 0 -1.203572,-0.91244 2.0521081,2.0521081 0 0 0 -0.324858,-0.19615 c -0.14734,-0.0648 -0.310657,-0.0959 -0.443795,-0.17752 -0.197045,-0.12426 -0.310657,-0.3435 -0.462435,-0.52013 -0.332846,-0.38877 -0.844098,-0.56717 -1.254165,-0.8725 -0.275152,-0.20504 -0.518352,-0.47486 -0.84676,-0.57339 -0.159767,-0.0488 -0.329296,-0.0524 -0.489063,-0.10029 -0.363024,-0.11006 -0.627526,-0.43226 -0.983449,-0.56274 -0.281366,-0.10295 -0.592023,-0.0763 -0.88759,-0.11272 a 2.0778482,2.0778482 0 0 1 -0.927532,-0.35326 1.1006116,1.1006116 0 0 0 -0.295567,-0.17219 c -0.450008,-0.13669 -0.486399,0.70119 -0.532554,0.99144 -0.05947,0.43136 -0.167755,0.86007 -0.167755,1.29677 z"
         fill="#6c63ff"
         id="path233"
         style="fill:#209ce9;fill-opacity:1;stroke-width:0.0887589" />
      <path
         d="m 88.475415,457.10493 c 0.07545,0.81835 -0.542318,1.61097 -0.362137,2.41246 0.03817,0.17042 0.111837,0.33285 0.138464,0.50593 0.07545,0.47486 -0.208583,0.92487 -0.479298,1.32251 l -2.325486,3.41278 a 2.1461926,2.1461926 0 0 1 -0.331959,0.41007 c -0.443795,0.39498 -1.111263,0.35504 -1.695297,0.4722 a 2.929047,2.929047 0 0 0 -1.136115,0.50237 0.07366997,0.07366997 0 0 0 -0.0142,0.10208 0.97634899,0.97634899 0 0 0 0.844098,0.39675 c 0.06124,0.0799 0,0.19882 -0.08432,0.25651 -0.124262,0.0888 -0.296455,0.10918 -0.321307,0.32131 a 0.35503599,0.35503599 0 0 0 0.0426,0.21302 0.66302974,0.66302974 0 0 0 0.406516,0.28226 c 0.805045,0.24675 1.674883,-0.1864 2.277557,-0.77487 0.602673,-0.58847 1.034929,-1.33138 1.626064,-1.92962 0.327521,-0.33196 0.699421,-0.6151 1.036706,-0.93641 0.672793,-0.64173 1.196471,-1.42014 1.700622,-2.20033 0.151778,-0.23522 0.305331,-0.47664 0.36835,-0.74913 0.06302,-0.27249 0.03373,-0.54853 0.105623,-0.81214 0.09408,-0.34528 0.347048,-0.62132 0.557406,-0.91067 0.41273,-0.56806 0.68877,-1.26304 0.63374,-1.96335 -0.05503,-0.70031 -0.488175,-1.39085 -1.148542,-1.62873 a 1.0322672,1.0322672 0 0 0 -0.643502,-0.0391 c -0.270715,0.0834 -0.470423,0.3071 -0.655042,0.5219 l -0.443795,0.50948 a 1.188483,1.188483 0 0 0 -0.249413,0.39142 0.40917901,0.40917901 0 0 0 0.08876,0.43492"
         fill="#fbbebe"
         id="path235"
         style="stroke-width:0.0887589" />
      <path
         d="m 89.654134,453.74806 c -0.30533,0.0177 -0.641727,0.0479 -0.857412,0.26628 a 1.2204363,1.2204363 0 0 0 -0.216572,0.33905 c -0.209471,0.42694 -0.413616,0.87339 -0.428706,1.34914 -0.01242,0.37989 0.09763,0.75179 0.155329,1.12724 0.04793,0.31243 -0.07367,0.63108 -0.09675,0.94706 0.379001,-0.11627 0.879602,-0.27426 1.2231,-0.47042 0.234323,-0.13403 0.460659,-0.28669 0.716284,-0.3719 0.3648,-0.1216 0.97635,0.0888 1.323397,0.2574 0.01864,-0.2432 -0.164204,-0.66747 -0.144677,-0.91156 a 1.0180657,1.0180657 0 0 1 0.05414,-0.30178 1.8302106,1.8302106 0 0 1 0.183731,-0.29202 1.1946961,1.1946961 0 0 0 -0.107398,-1.39972 c -0.307994,-0.34616 -0.789955,-0.47575 -1.249727,-0.53256 a 5.4054232,5.4054232 0 0 0 -0.872501,-0.0302"
         fill="#6c63ff"
         id="path237"
         style="fill:#209ce9;fill-opacity:1;stroke-width:0.0887589" />
    </g>
  </g>
</svg>
