<?xml version="1.0" encoding="UTF-8" standalone="no"?>
<svg
   xmlns:dc="http://purl.org/dc/elements/1.1/"
   xmlns:cc="http://creativecommons.org/ns#"
   xmlns:rdf="http://www.w3.org/1999/02/22-rdf-syntax-ns#"
   xmlns:svg="http://www.w3.org/2000/svg"
   xmlns="http://www.w3.org/2000/svg"
   xmlns:xlink="http://www.w3.org/1999/xlink"
   xmlns:sodipodi="http://sodipodi.sourceforge.net/DTD/sodipodi-0.dtd"
   xmlns:inkscape="http://www.inkscape.org/namespaces/inkscape"
   width="613.87"
   height="504.42499"
   viewBox="0 0 162.41976 133.46245"
   version="1.1"
   id="svg8"
   inkscape:version="1.0.2-2 (e86c870879, 2021-01-15)"
   sodipodi:docname="illustration4.svg">
  <defs
     id="defs2">
    <linearGradient
       id="b6a338e9-6675-4055-aeec-b883651a73ae-33"
       x1="790.67999"
       y1="664.40997"
       x2="790.67999"
       y2="175.75"
       gradientUnits="userSpaceOnUse"
       gradientTransform="matrix(0.088759,0,0,0.088759,6.8419868,408.28748)">
      <stop
         offset="0"
         stop-color="gray"
         stop-opacity="0.25"
         id="stop2" />
      <stop
         offset="0.54"
         stop-color="gray"
         stop-opacity="0.12"
         id="stop4" />
      <stop
         offset="1"
         stop-color="gray"
         stop-opacity="0.1"
         id="stop6" />
    </linearGradient>
    <linearGradient
       inkscape:collect="always"
       id="linearGradient1460">
      <stop
         style="stop-color:#ffce39;stop-opacity:1;"
         offset="0"
         id="stop1456" />
      <stop
         style="stop-color:#f8981c;stop-opacity:1"
         offset="1"
         id="stop1458" />
    </linearGradient>
    <linearGradient
       inkscape:collect="always"
       xlink:href="#linearGradient1460"
       id="linearGradient1172"
       gradientUnits="userSpaceOnUse"
       gradientTransform="matrix(0.12364288,0,0,0.12364288,46.686188,927.8557)"
       x1="662.19403"
       y1="-520.70813"
       x2="760.10437"
       y2="-520.70813" />
  </defs>
  <sodipodi:namedview
     id="base"
     pagecolor="#ffffff"
     bordercolor="#666666"
     borderopacity="1.0"
     inkscape:pageopacity="0.0"
     inkscape:pageshadow="2"
     inkscape:zoom="0.7"
     inkscape:cx="266.63591"
     inkscape:cy="240.06535"
     inkscape:document-units="mm"
     inkscape:current-layer="layer1"
     inkscape:document-rotation="0"
     showgrid="false"
     units="px"
     inkscape:window-width="1680"
     inkscape:window-height="987"
     inkscape:window-x="-8"
     inkscape:window-y="-8"
     inkscape:window-maximized="1" />
  <metadata
     id="metadata5">
    <rdf:RDF>
      <cc:Work
         rdf:about="">
        <dc:format>image/svg+xml</dc:format>
        <dc:type
           rdf:resource="http://purl.org/dc/dcmitype/StillImage" />
        <dc:title></dc:title>
      </cc:Work>
    </rdf:RDF>
  </metadata>
  <g
     inkscape:label="Calque 1"
     inkscape:groupmode="layer"
     id="layer1">
    <g
       id="g2968"
       transform="translate(-23.790117,-795.04119)">
      <rect
         x="471.48953"
         y="644.22791"
         width="135.94489"
         height="72.630989"
         transform="rotate(31.459059)"
         fill="#f2f2f2"
         id="rect6-7"
         style="fill:#dfefff;fill-opacity:1;stroke-width:0.211753" />
      <g
         id="g137"
         transform="matrix(0.17750809,0,0,0.17750809,48.837427,784.90302)">
        <path
           d="m 645.015,164.92488 c -5.68507,21.01543 -25.15771,34.03081 -25.15771,34.03081 0,0 -10.25533,-21.05736 -4.57026,-42.07279 5.68507,-21.01543 25.15771,-34.03081 25.15771,-34.03081 0,0 10.25526,21.05736 4.57026,42.07279 z"
           transform="translate(-112.4066,-65.73816)"
           fill="#6c63ff"
           id="path6-1"
           style="fill:#ff95ff;fill-opacity:1" />
        <path
           d="m 593.29668,164.92488 c 5.68507,21.01543 25.15772,34.03081 25.15772,34.03081 0,0 10.25532,-21.05736 4.57025,-42.07279 -5.68507,-21.01543 -25.15771,-34.03081 -25.15771,-34.03081 0,0 -10.25532,21.05736 -4.57026,42.07279 z"
           transform="translate(-112.4066,-65.73816)"
           fill="#6c63ff"
           id="path8-4"
           style="fill:#ff95ff;fill-opacity:1" />
        <path
           d="m 601.65049,160.40844 c 15.59991,15.18588 17.50533,38.53012 17.50533,38.53012 0,0 -23.387,-1.27695 -38.98695,-16.46283 -15.59995,-15.18588 -17.50533,-38.53012 -17.50533,-38.53012 0,0 23.38704,1.27694 38.98695,16.46283 z"
           transform="translate(-112.4066,-65.73816)"
           fill="#3f3d56"
           id="path10-1"
           style="fill:#75ae06;fill-opacity:1" />
        <path
           d="m 636.66114,160.40844 c -15.59991,15.18588 -17.50532,38.53012 -17.50532,38.53012 0,0 23.387,-1.27695 38.98694,-16.46283 15.59994,-15.18588 17.50533,-38.53012 17.50533,-38.53012 0,0 -23.38704,1.27694 -38.98695,16.46283 z"
           transform="translate(-112.4066,-65.73816)"
           fill="#3f3d56"
           id="path12-9"
           style="fill:#75ae06;fill-opacity:1" />
      </g>
      <rect
         x="23.790094"
         y="921.08215"
         width="162.41982"
         height="0.35501617"
         fill="#3f3d56"
         id="rect70"
         style="stroke-width:0.177508" />
      <g
         id="g150"
         transform="matrix(0.25138622,0,0,0.25138622,-29.141545,762.31838)">
        <path
           d="m 392.59448,383.93277 h 272.22969 v 25.61126 H 392.59448 Z m 0,76.83242 h 272.24111 v 25.61124 H 392.58313 Z"
           fill="#209ce9"
           id="path4-0-5"
           style="stroke-width:0.667324" />
        <path
           d="M 696.89582,632.35302 H 661.88333 L 529.0103,425.18945 394.11064,632.35302 h -34.7229 L 510.5788,397.65496 372.85669,182.05707 h 35.69392 l 121.02759,189.6343 123.58853,-189.6343 h 33.49101 l -139.2039,214.98329 z"
           fill="#209ce9"
           id="path2-2"
           style="stroke-width:0.667324" />
      </g>
      <g
         id="g153"
         transform="matrix(0.17750809,0,0,0.17750809,14.914665,794.35245)">
        <path
           d="m 240.5714,435.59792 c 21.76581,0.4669 39.08024,16.24012 39.08024,16.24012 0,0 -17.9749,15.01621 -39.74071,14.54931 -21.76581,-0.4669 -39.08024,-16.24012 -39.08024,-16.24012 0,0 17.97489,-15.01622 39.74071,-14.54931 z"
           fill="#6c63ff"
           id="path42-0"
           style="fill:#75ae06;fill-opacity:1" />
        <path
           d="m 131.14404,361.29993 c 19.66446,9.34222 42.21331,3.00712 42.21331,3.00712 0,0 -9.33354,-21.48182 -28.998,-30.824 -19.66446,-9.34218 -42.21331,-3.00712 -42.21331,-3.00712 0,0 9.33353,21.48178 28.998,30.824 z"
           fill="#6c63ff"
           id="path44"
           style="fill:#75ae06;fill-opacity:1" />
        <path
           d="m 133.14298,352.01615 c 21.68042,-1.98131 40.65734,11.74679 40.65734,11.74679 0,0 -16.17409,16.94056 -37.85455,18.92192 -21.68046,1.98136 -40.65737,-11.74679 -40.65737,-11.74679 0,0 16.17412,-16.94056 37.85458,-18.92192 z"
           fill="#3f3d56"
           id="path46-2"
           style="fill:#ffce39;fill-opacity:1" />
        <path
           d="m 212.61678,355.76976 c -2.07806,21.67141 11.56528,40.70935 11.56528,40.70935 0,0 17.01256,-16.09836 19.09063,-37.76977 C 245.35076,337.03793 231.7074,318 231.7074,318 c 0,0 -17.01255,16.09835 -19.09062,37.76976 z"
           fill="#3f3d56"
           id="path48-3"
           style="fill:#ffce39;fill-opacity:1" />
        <path
           d="m 314.72104,488.67984 c -11.37152,18.56494 -7.45917,41.65774 -7.45917,41.65774 0,0 22.34921,-7.00691 33.72072,-25.57185 11.37151,-18.56494 7.45917,-41.65774 7.45917,-41.65774 0,0 -22.34921,7.00692 -33.72072,25.57185 z"
           fill="#3f3d56"
           id="path50-1"
           style="fill:#ffce39;fill-opacity:1" />
        <path
           d="m 281.7311,690.52844 a 53.936,53.936 0 0 1 -9.50635,-29.918 c 0.0483,-15.55468 7.56347,-29.70508 14.83105,-43.38965 1.32227,-2.49023 2.64014,-4.97168 3.90821,-7.45117 a 161.42813,161.42813 0 0 0 12.55273,-31.50195 c 10.939,-40.65137 0.13428,-88.65918 -28.90332,-128.42285 -23.13232,-31.67871 -57.66553,-59.40576 -105.57373,-84.76758 l 0.93555,-1.76758 c 48.18261,25.50684 82.93847,53.42676 106.25341,85.35547 29.39112,40.24805 40.31446,88.8916 29.21973,130.12207 a 163.41153,163.41153 0 0 1 -12.7041,31.89258 c -1.27246,2.48926 -2.59522,4.97949 -3.92236,7.47851 -7.15332,13.46973 -14.5503,27.39844 -14.59717,42.458 a 51.91945,51.91945 0 0 0 9.16357,28.793 z"
           fill="#3f3d56"
           id="path52-07"
           style="fill:#209ce9;fill-opacity:1" />
        <circle
           cx="75.000389"
           cy="346.93765"
           r="19"
           fill="#3f3d56"
           id="circle54"
           style="fill:#f8981c;fill-opacity:1" />
        <path
           d="m 237.42862,125.59792 c -21.76581,0.4669 -39.08024,16.24012 -39.08024,16.24012 0,0 17.9749,15.01621 39.74071,14.54931 21.76581,-0.4669 39.08024,-16.24012 39.08024,-16.24012 0,0 -17.97493,-15.01622 -39.74071,-14.54931 z"
           fill="#6c63ff"
           id="path56-8"
           style="fill:#75ae06;fill-opacity:1" />
        <path
           d="m 346.85596,51.29993 c -19.66446,9.34222 -42.21331,3.00712 -42.21331,3.00712 0,0 9.33354,-21.48182 28.998,-30.824 19.66446,-9.34218 42.21332,-3.00721 42.21332,-3.00721 0,0 -9.33357,21.48187 -28.99801,30.82409 z"
           fill="#6c63ff"
           id="path58-5"
           style="fill:#75ae06;fill-opacity:1" />
        <path
           d="m 344.85702,42.01615 c -21.68046,-1.98136 -40.65735,11.74679 -40.65735,11.74679 0,0 16.1741,16.94056 37.85456,18.92192 21.68046,1.98136 40.65735,-11.74679 40.65735,-11.74679 0,0 -16.1741,-16.94056 -37.85456,-18.92192 z"
           fill="#3f3d56"
           id="path60-8"
           style="fill:#ffce39;fill-opacity:1" />
        <path
           d="m 265.38322,45.76976 c 2.07806,21.67141 -11.56529,40.70935 -11.56529,40.70935 0,0 -17.01253,-16.09836 -19.09062,-37.76977 C 232.64922,27.03793 246.29259,8 246.29259,8 c 0,0 17.01256,16.09835 19.09063,37.76976 z"
           fill="#3f3d56"
           id="path62-2"
           style="fill:#ffce39;fill-opacity:1" />
        <path
           d="m 163.27896,178.67984 c 11.37152,18.56494 7.45917,41.65774 7.45917,41.65774 0,0 -22.34921,-7.00691 -33.72073,-25.57185 -11.37152,-18.56494 -7.45916,-41.65774 -7.45916,-41.65774 0,0 22.34921,7.00692 33.72072,25.57185 z"
           fill="#3f3d56"
           id="path64-3"
           style="fill:#ffce39;fill-opacity:1" />
        <path
           d="m 196.26918,380.52844 -1.65723,-1.12012 a 51.91878,51.91878 0 0 0 9.16309,-28.79248 c -0.0464,-15.05761 -7.44238,-28.98486 -14.59521,-42.45361 -1.32764,-2.5 -2.65088,-4.99219 -3.92383,-7.48242 a 163.33418,163.33418 0 0 1 -12.7041,-31.89258 c -11.09473,-41.23 -0.17139,-89.87353 29.21923,-130.12207 23.31543,-31.92871 58.07178,-59.84863 106.25391,-85.35547 l 0.93555,1.76758 c -47.90772,25.36133 -82.44141,53.08936 -105.57419,84.76757 -29.03711,39.76367 -39.8418,87.77246 -28.90283,128.42285 a 161.39429,161.39429 0 0 0 12.55273,31.502 c 1.269,2.481 2.5874,4.96338 3.91016,7.45459 7.2666,13.6836 14.78076,27.833 14.82861,43.38574 a 53.937,53.937 0 0 1 -9.50589,29.91842 z"
           fill="#3f3d56"
           id="path66-3"
           style="fill:#209ce9;fill-opacity:1" />
        <circle
           cx="402.9996"
           cy="36.937653"
           r="19"
           fill="#3f3d56"
           id="circle68"
           style="fill:#f8981c;fill-opacity:1" />
      </g>
      <path
         d="m 70.357367,921.1879 -0.352938,-0.0385 a 9.5746674,9.5746674 0 0 1 2.147436,-5.14218 c 1.791809,-2.10011 4.433542,-3.15337 6.988167,-4.1718 0.465005,-0.18548 0.928545,-0.37027 1.385049,-0.56043 a 28.676167,28.676167 0 0 0 5.315968,-2.82418 c 6.147432,-4.24806 10.195621,-11.98839 10.828862,-20.70552 0.504441,-6.94465 -0.98817,-14.66314 -4.563201,-23.59645 l 0.329535,-0.13174 c 3.595579,8.98427 5.096258,16.75423 4.587821,23.75384 -0.64104,8.8234 -4.746174,16.6634 -10.981233,20.97178 a 28.999209,28.999209 0 0 1 -5.381147,2.8599 c -0.458244,0.19103 -0.923423,0.37651 -1.390161,0.56251 -2.51458,1.00264 -5.1148,2.03926 -6.849578,4.07263 a 9.2155597,9.2155597 0 0 0 -2.06458,4.95013 z"
         fill="#3f3d56"
         id="path24-6"
         style="fill:#209ce9;fill-opacity:1;stroke-width:0.177508" />
      <path
         d="m 93.696244,881.90851 c 2.89335,2.56181 3.426935,6.685 3.426935,6.685 0,0 -4.157461,-0.0303 -7.050811,-2.59213 -2.89335,-2.5618 -3.426935,-6.68499 -3.426935,-6.68499 0,0 4.157461,0.0303 7.050811,2.59212 z"
         fill="#6c63ff"
         id="path14-7"
         style="fill:#75ae06;fill-opacity:1;stroke-width:0.177508" />
      <path
         d="m 87.409481,859.28741 c 1.590005,3.52225 5.370205,5.253 5.370205,5.253 0,0 1.202291,-3.97994 -0.387717,-7.50218 -1.590007,-3.52225 -5.370205,-5.253 -5.370205,-5.253 0,0 -1.202291,3.97994 0.387717,7.50218 z"
         fill="#6c63ff"
         id="path16-79"
         style="fill:#75ae06;fill-opacity:1;stroke-width:0.177508" />
      <path
         d="m 88.745854,858.25992 c 3.162839,2.22053 4.156275,6.25767 4.156275,6.25767 0,0 -4.134546,0.43695 -7.297389,-1.78359 -3.162843,-2.22053 -4.156274,-6.25766 -4.156274,-6.25766 0,0 4.134549,-0.43695 7.297388,1.78358 z"
         fill="#3f3d56"
         id="path18-6"
         style="fill:#ffce39;fill-opacity:1;stroke-width:0.177508" />
      <path
         d="m 99.07519,867.89127 c -2.76911,2.69562 -3.107336,6.83941 -3.107336,6.83941 0,0 4.151386,-0.22667 6.920496,-2.92229 2.76912,-2.69561 3.10734,-6.8394 3.10734,-6.8394 0,0 -4.15139,0.22666 -6.9205,2.92228 z"
         fill="#3f3d56"
         id="path20-8"
         style="fill:#ffce39;fill-opacity:1;stroke-width:0.177508" />
      <circle
         cx="81.456703"
         cy="850.89789"
         r="3.3726537"
         fill="#3f3d56"
         id="circle26"
         style="fill:#f8981c;fill-opacity:1;stroke-width:0.177508" />
      <path
         d="m 116.41728,862.56013 c 2.89335,2.56181 3.42694,6.68499 3.42694,6.68499 0,0 -4.15747,-0.0303 -7.05082,-2.59212 -2.89335,-2.56181 -3.42693,-6.685 -3.42693,-6.685 0,0 4.15746,0.0303 7.05081,2.59213 z"
         fill="#6c63ff"
         id="path28"
         style="fill:#75ae06;fill-opacity:1;stroke-width:0.177508" />
      <path
         d="m 110.13052,839.93903 c 1.59,3.52225 5.3702,5.253 5.3702,5.253 0,0 1.20229,-3.97994 -0.38772,-7.50218 -1.59,-3.52225 -5.3702,-5.253 -5.3702,-5.253 0,0 -1.20229,3.97994 0.38772,7.50218 z"
         fill="#6c63ff"
         id="path30-8"
         style="fill:#75ae06;fill-opacity:1;stroke-width:0.177508" />
      <path
         d="m 120.36316,878.25903 c -3.67078,1.20819 -5.792,4.78392 -5.792,4.78392 0,0 3.83029,1.61687 7.50107,0.40869 3.67078,-1.20819 5.79199,-4.78392 5.79199,-4.78392 0,0 -3.83029,-1.61687 -7.50106,-0.40869 z"
         fill="#3f3d56"
         id="path36-0"
         style="fill:#ffce39;fill-opacity:1;stroke-width:0.177508" />
      <path
         d="m 93.078402,901.83951 -0.352938,-0.0385 a 9.5746674,9.5746674 0 0 1 2.147437,-5.14218 c 1.791809,-2.10011 4.433541,-3.1532 6.988169,-4.1718 0.465,-0.18548 0.92854,-0.37027 1.38505,-0.56043 a 28.662205,28.662205 0 0 0 5.31596,-2.82418 c 6.14744,-4.24806 10.19545,-11.98839 10.82887,-20.70553 0.50444,-6.94474 -0.98826,-14.66313 -4.56338,-23.59626 l 0.32971,-0.13192 c 3.59557,8.98427 5.09625,16.75423 4.58764,23.75384 -0.64086,8.8234 -4.74608,16.66322 -10.98106,20.97178 a 28.992943,28.992943 0 0 1 -5.38114,2.85989 c -0.45825,0.19103 -0.92343,0.37652 -1.39017,0.56252 -2.514575,1.00264 -5.114795,2.03926 -6.849573,4.07263 a 9.2155597,9.2155597 0 0 0 -2.064575,4.95012 z"
         fill="#3f3d56"
         id="path38-0"
         style="fill:#209ce9;fill-opacity:1;stroke-width:0.177508" />
      <circle
         cx="104.17775"
         cy="831.5495"
         r="3.3726537"
         fill="#3f3d56"
         id="circle40-4"
         style="fill:#f8981c;fill-opacity:1;stroke-width:0.177508" />
      <path
         d="m 97.642121,897.60741 c -3.670779,1.20819 -5.791993,4.78392 -5.791993,4.78392 0,0 3.830291,1.61687 7.501067,0.40869 3.670775,-1.20819 5.791995,-4.78392 5.791995,-4.78392 0,0 -3.8303,-1.61687 -7.501069,-0.40869 z"
         fill="#3f3d56"
         id="path22-9"
         style="fill:#ffce39;fill-opacity:1;stroke-width:0.177508" />
      <path
         d="m 111.46689,838.91154 c 3.16284,2.22053 4.15627,6.25767 4.15627,6.25767 0,0 -4.13454,0.43694 -7.29738,-1.78359 -3.16285,-2.22053 -4.15628,-6.25767 -4.15628,-6.25767 0,0 4.13455,-0.43694 7.29739,1.78359 z"
         fill="#3f3d56"
         id="path32"
         style="fill:#ffce39;fill-opacity:1;stroke-width:0.177508" />
      <path
         d="m 130.02863,871.87512 c -1.92882,1.87762 -2.16441,4.76397 -2.16441,4.76397 0,0 2.89164,-0.15788 4.82046,-2.03551 1.92882,-1.87762 2.16441,-4.76397 2.16441,-4.76397 0,0 -2.89164,0.15788 -4.82046,2.03551 z"
         fill="#3f3d56"
         id="path1148"
         style="fill:#ffce39;fill-opacity:1;stroke-width:0.123643" />
      <path
         d="m 144.94715,883.0623 c 0,0 12.04289,6.85424 10.27314,10.61495 -1.76975,3.76071 -5.35426,12.15526 -5.35426,12.15526 l -3.24584,-1.5681 0.93009,-3.43633 c 0,0 0.19166,-4.73505 2.61019,-6.81645 0,0 -0.38019,-1.45535 -2.92106,-2.09414 -2.54088,-0.63879 -7.98011,-4.49112 -7.98011,-4.49112 z"
         fill="#ffb9b9"
         id="path1150"
         style="fill:#ffd5d5;fill-opacity:1;stroke-width:0.123643" />
      <path
         d="m 150.5939,904.95958 -4.31679,-1.97935 -2.43389,4.20504 c 0,0 -3.95199,1.59962 -4.47879,4.0062 0,0 5.56041,10.66958 7.09424,9.78568 1.53386,-0.88389 0.22515,-4.36563 0.22515,-4.36563 l 2.12878,-6.64869 z"
         fill="#2f2e41"
         id="path1152"
         style="fill:#48486b;fill-opacity:1;stroke-width:0.123643" />
      <path
         d="m 131.15449,888.40912 8.15747,10.55838 c 0,0 2.94142,9.16881 7.01497,13.02075 l 3.95198,-1.59962 -4.9228,-9.11341 c 0,0 0.62764,-2.66402 -2.20337,-6.50441 -2.83101,-3.84039 -4.2513,-8.55351 -4.2513,-8.55351 z"
         fill="#ffb9b9"
         id="path1154"
         style="fill:#ffd5d5;fill-opacity:1;stroke-width:0.123643" />
      <path
         d="m 150.36876,909.32522 -4.6912,3.03225 5.13677,4.62464 c 0,0 -0.77269,1.06322 -0.6615,3.66028 0.11119,2.59706 0.30129,3.32473 0.30129,3.32473 0,0 12.39076,3.84313 13.34279,2.01877 0.95202,-1.82437 -4.21901,-4.08706 -4.21901,-4.08706 l -5.31531,-6.59485 z"
         fill="#2f2e41"
         id="path1156"
         style="fill:#48486b;fill-opacity:1;stroke-width:0.123643" />
      <circle
         cx="56.746048"
         cy="858.04376"
         r="4.3275008"
         fill="#ffb9b9"
         id="circle1158"
         transform="rotate(-5.1779943)"
         style="fill:#ffd5d5;stroke-width:0.123643" />
      <polygon
         points="808.868,219.551 796.868,192.551 785.868,182.551 794.868,153.551 766.868,138.551 751.868,170.551 810.868,261.551 "
         fill="#ffb9b9"
         id="polygon1160"
         transform="matrix(0.12313831,-0.01115878,0.01115878,0.12313831,35.333863,842.58437)"
         style="fill:#ffd5d5;fill-opacity:1" />
      <path
         d="m 130.8391,856.15883 -0.95123,-0.907 c 0,0 -3.64892,-1.2212 -4.54554,2.58454 -0.35215,1.49468 -0.48162,3.2277 -0.50901,4.78131 a 19.778505,19.778505 0 0 0 1.3003,7.37571 v 0 c 0,0 -1.36764,6.82801 -0.36139,11.08205 l -0.16856,2.24997 c 0,0 -4.48995,3.88307 -1.69164,4.62268 2.79832,0.73961 3.3594,-4.02891 3.3594,-4.02891 l 1.80557,-11.58538 -0.56949,-4.91437 1.34297,1.11979 z"
         fill="#ffb9b9"
         id="path1162"
         style="fill:#ffd5d5;fill-opacity:1;stroke-width:0.123643" />
      <path
         d="m 135.87603,857.6267 c 0,0 2.52952,1.19849 2.87623,2.28442 0.34671,1.08593 3.47822,10.98241 3.47822,10.98241 l 4.82158,10.73653 c 0,0 6.55824,5.24072 3.27813,6.03456 -3.28009,0.79384 -5.05825,-5.12835 -5.05825,-5.12835 l -5.23641,-8.46424 -2.22373,-13.57908 z"
         fill="#ffb9b9"
         id="path1164"
         style="fill:#ffd5d5;fill-opacity:1;stroke-width:0.123643" />
      <path
         d="m 138.25052,848.06634 c 0,0 2.00158,-5.6645 -4.51694,-5.0679 0,0 -4.18993,-1.73865 -6.79406,3.40997 l -2.67874,5.408 0.78857,-0.23238 0.17436,0.79017 1.0816,0.53574 0.69849,-0.86629 -0.017,1.2308 9.16836,2.94933 c 0,0 -3.66251,-3.38427 -2.77237,-7.84633 l 0.61762,1.01659 z"
         fill="#2f2e41"
         id="path1166"
         style="fill:#48486b;fill-opacity:1;stroke-width:0.123643" />
      <path
         d="m 140.41845,865.96761 c 0,0 0.56029,-2.03717 0.001,-2.73136 -0.5595,-0.6942 -4.6494,-6.09652 -4.6494,-6.09652 l -0.36941,0.0335 c 0,0 2.25397,5.69285 1.7164,6.61061 0,0 -6.43413,-8.66608 -7.41923,-8.57681 l 0.50351,0.76135 -1.63928,11.91972 1.41762,3.85331 9.8907,-0.89629 z"
         fill="#6c63ff"
         id="path1168"
         style="fill:url(#linearGradient1172);fill-opacity:1;stroke-width:0.123643" />
      <path
         d="m 147.86861,883.79075 -4.82393,-2.54244 c 0,0 -2.4935,-9.706 -3.17615,-10.38904 l 0.002,-0.0142 -9.8907,0.89629 0.0492,0.13373 c 0,0 -4.52616,13.07342 -2.56867,18.23446 0,0 0.0446,0.49255 3.2016,-0.29013 3.15696,-0.78268 9.53782,-1.60922 9.53782,-1.60922 0,0 8.48578,-2.25877 7.66923,-4.41947 z"
         fill="#2f2e41"
         id="path1170"
         style="fill:#5c63a0;fill-opacity:1;stroke-width:0.123643" />
    </g>
  </g>
</svg>
