<?xml version="1.0" encoding="UTF-8" standalone="no"?>
<svg
   xmlns:dc="http://purl.org/dc/elements/1.1/"
   xmlns:cc="http://creativecommons.org/ns#"
   xmlns:rdf="http://www.w3.org/1999/02/22-rdf-syntax-ns#"
   xmlns:svg="http://www.w3.org/2000/svg"
   xmlns="http://www.w3.org/2000/svg"
   xmlns:xlink="http://www.w3.org/1999/xlink"
   xmlns:sodipodi="http://sodipodi.sourceforge.net/DTD/sodipodi-0.dtd"
   xmlns:inkscape="http://www.inkscape.org/namespaces/inkscape"
   width="327.14301"
   height="306.577"
   viewBox="0 0 86.556583 81.115166"
   version="1.1"
   id="svg8"
   inkscape:version="1.0.2-2 (e86c870879, 2021-01-15)"
   sodipodi:docname="illustration3.svg">
  <defs
     id="defs2">
    <linearGradient
       id="b6a338e9-6675-4055-aeec-b883651a73ae-33"
       x1="790.67999"
       y1="664.40997"
       x2="790.67999"
       y2="175.75"
       gradientUnits="userSpaceOnUse"
       gradientTransform="matrix(0.088759,0,0,0.088759,6.8419868,408.28748)">
      <stop
         offset="0"
         stop-color="gray"
         stop-opacity="0.25"
         id="stop2" />
      <stop
         offset="0.54"
         stop-color="gray"
         stop-opacity="0.12"
         id="stop4" />
      <stop
         offset="1"
         stop-color="gray"
         stop-opacity="0.1"
         id="stop6" />
    </linearGradient>
    <linearGradient
       inkscape:collect="always"
       xlink:href="#linearGradient1460"
       id="linearGradient2216"
       x1="483.32999"
       y1="599.57501"
       x2="744.60999"
       y2="599.57501"
       gradientUnits="userSpaceOnUse" />
    <linearGradient
       inkscape:collect="always"
       id="linearGradient1460">
      <stop
         style="stop-color:#ffce39;stop-opacity:1;"
         offset="0"
         id="stop1456" />
      <stop
         style="stop-color:#f8981c;stop-opacity:1"
         offset="1"
         id="stop1458" />
    </linearGradient>
    <linearGradient
       inkscape:collect="always"
       xlink:href="#linearGradient1460"
       id="linearGradient2224"
       x1="511.39999"
       y1="599.57501"
       x2="744.60999"
       y2="599.57501"
       gradientUnits="userSpaceOnUse" />
    <linearGradient
       inkscape:collect="always"
       xlink:href="#linearGradient1460"
       id="linearGradient2240"
       x1="550.15002"
       y1="534.23999"
       x2="713.84998"
       y2="534.23999"
       gradientUnits="userSpaceOnUse" />
    <linearGradient
       inkscape:collect="always"
       xlink:href="#linearGradient1460"
       id="linearGradient2096"
       x1="12.190904"
       y1="562.44116"
       x2="40.128201"
       y2="562.44116"
       gradientUnits="userSpaceOnUse"
       gradientTransform="matrix(-0.3438056,0,0,0.3438056,178.42894,529.20372)" />
  </defs>
  <sodipodi:namedview
     id="base"
     pagecolor="#ffffff"
     bordercolor="#666666"
     borderopacity="1.0"
     inkscape:pageopacity="0.0"
     inkscape:pageshadow="2"
     inkscape:zoom="0.7"
     inkscape:cx="266.63591"
     inkscape:cy="125.77963"
     inkscape:document-units="mm"
     inkscape:current-layer="layer1"
     inkscape:document-rotation="0"
     showgrid="false"
     units="px"
     inkscape:window-width="1680"
     inkscape:window-height="987"
     inkscape:window-x="-8"
     inkscape:window-y="-8"
     inkscape:window-maximized="1" />
  <metadata
     id="metadata5">
    <rdf:RDF>
      <cc:Work
         rdf:about="">
        <dc:format>image/svg+xml</dc:format>
        <dc:type
           rdf:resource="http://purl.org/dc/dcmitype/StillImage" />
        <dc:title></dc:title>
      </cc:Work>
    </rdf:RDF>
  </metadata>
  <g
     inkscape:label="Calque 1"
     inkscape:groupmode="layer"
     id="layer1">
    <g
       id="g2559"
       transform="translate(-112.639,-691.7421)">
      <g
         id="g2631">
        <rect
           style="fill:#dfefff;fill-opacity:1;stroke:#ffffff;stroke-width:0"
           id="rect2437"
           width="55.596088"
           height="67.534645"
           x="-402.78796"
           y="615.89734"
           transform="matrix(-0.95382458,-0.30036424,-0.30036424,0.95382458,0,0)" />
        <path
           d="m 126.5149,749.23073 c -0.35393,-0.65004 0.0472,-1.44755 0.50494,-2.02681 0.45774,-0.57925 1.01694,-1.17975 1.00515,-1.92182 -0.0177,-1.06177 -1.14436,-1.68821 -2.04452,-2.25214 a 9.9099151,9.9099151 0 0 1 -1.83569,-1.47587 2.6674189,2.6674189 0 0 1 -0.56392,-0.75504 c -0.1864,-0.41527 -0.18169,-0.88717 -0.16988,-1.34138 q 0.0578,-2.2722 0.22533,-4.54087"
           fill="none"
           stroke="#3f3d56"
           stroke-miterlimit="10"
           stroke-width="0.471901"
           id="path2170" />
        <path
           d="m 121.92449,734.83422 a 1.6516526,1.6516526 0 0 1 0.82582,-1.35671 l 0.37044,0.73381 -0.0118,-0.88836 a 1.6740679,1.6740679 0 0 1 0.54622,-0.0661 1.6516526,1.6516526 0 1 1 -1.73187,1.57732 z"
           fill="#57b793"
           id="path2172"
           style="fill:#209ce9;fill-opacity:1;stroke-width:0.117975" />
        <path
           d="m 124.8774,746.04069 a 1.6516526,1.6516526 0 1 0 -0.0802,-1.33312 l 1.03465,0.84588 -1.13846,-0.26309 a 1.6516526,1.6516526 0 0 0 0.18403,0.75033 z"
           fill="#57b793"
           id="path2174"
           style="fill:#209ce9;fill-opacity:1;stroke-width:0.117975" />
        <path
           d="m 125.69497,742.82587 a 1.6516526,1.6516526 0 0 0 0.52381,-3.24786 l 0.008,0.68189 -0.37398,-0.74206 v 0 a 1.6516526,1.6516526 0 0 0 -1.73423,1.57614 1.6327766,1.6327766 0 0 0 0.0708,0.56511 1.6516526,1.6516526 0 0 0 1.50536,1.16678 z"
           fill="#57b793"
           id="path2176"
           style="fill:#209ce9;fill-opacity:1;stroke-width:0.117975" />
        <path
           d="m 121.67556,740.15137 a 1.6516526,1.6516526 0 1 0 -0.73263,-3.09921 l 0.29258,0.80223 -0.60167,-0.57808 a 1.6516526,1.6516526 0 0 0 -0.53443,1.14318 1.6268778,1.6268778 0 0 0 0.0413,0.45656 1.6516526,1.6516526 0 0 0 1.53486,1.27532 z"
           fill="#57b793"
           id="path2178"
           style="fill:#209ce9;fill-opacity:1;stroke-width:0.117975" />
        <path
           d="m 122.14746,735.27545 c 0.38224,0.0413 0.75387,0.16045 1.13728,0.18404 0.38342,0.0236 0.8046,-0.0673 1.04644,-0.36572 0.13095,-0.16045 0.19702,-0.36336 0.30673,-0.53914 a 1.1797519,1.1797519 0 0 1 0.41764,-0.39286 1.6516526,1.6516526 0 1 1 -3.09567,1.09952 q 0.0932,0.004 0.18758,0.0142 z"
           opacity="0.1"
           id="path2180"
           style="stroke-width:0.117975" />
        <path
           d="m 121.67556,740.15137 a 1.6575513,1.6575513 0 0 0 1.57497,-2.35951 1.2234026,1.2234026 0 0 0 -0.33504,0.32915 c -0.11799,0.17815 -0.18994,0.3846 -0.32916,0.5474 -0.25719,0.30321 -0.69724,0.40231 -1.09717,0.38461 -0.39994,-0.0177 -0.78571,-0.13213 -1.17975,-0.1687 -0.0554,0 -0.11798,-0.008 -0.16753,-0.009 a 1.6516526,1.6516526 0 0 0 1.53368,1.2765 z"
           opacity="0.1"
           id="path2182"
           style="stroke-width:0.117975" />
        <path
           d="m 125.69497,742.82587 a 1.6516526,1.6516526 0 0 0 1.58559,-2.33119 1.3354791,1.3354791 0 0 0 -0.35392,0.33622 c -0.1286,0.18169 -0.20882,0.39168 -0.35393,0.5592 -0.2796,0.31028 -0.74914,0.42 -1.17267,0.41056 -0.42353,-0.009 -0.80459,-0.10972 -1.21161,-0.14157 a 1.6516526,1.6516526 0 0 0 1.50654,1.16678 z"
           opacity="0.1"
           id="path2184"
           style="stroke-width:0.117975" />
        <path
           d="m 124.8774,746.04069 a 1.6531751,1.6531751 0 0 0 3.01782,-1.35082 1.6516526,1.6516526 0 0 0 -0.36219,0.32444 c -0.15809,0.19111 -0.26191,0.40937 -0.44359,0.58987 -0.33858,0.33269 -0.88482,0.4719 -1.37205,0.48252 a 7.0785112,7.0785112 0 0 1 -0.83999,-0.046 z"
           opacity="0.1"
           id="path2186"
           style="stroke-width:0.117975" />
        <path
           d="m 136.16453,751.3361 c 0.63797,-1.17172 -0.085,-2.60926 -0.91016,-3.65339 -0.82508,-1.04412 -1.83306,-2.12653 -1.8118,-3.46413 0.0319,-1.91388 2.06273,-3.04306 3.68528,-4.05954 a 17.862892,17.862892 0 0 0 3.30889,-2.6603 4.8080953,4.8080953 0 0 0 1.01648,-1.36098 c 0.336,-0.74854 0.3275,-1.59916 0.30622,-2.41788 q -0.10421,-4.0957 -0.40616,-8.18503"
           fill="none"
           stroke="#3f3d56"
           stroke-miterlimit="10"
           stroke-width="0.850614"
           id="path2098" />
        <path
           d="m 144.43888,725.38599 a 2.9771488,2.9771488 0 0 0 -1.48857,-2.44551 l -0.66773,1.32271 0.0212,-1.60129 a 3.017553,3.017553 0 0 0 -0.98458,-0.11908 2.9771488,2.9771488 0 1 0 3.12176,2.84317 z"
           fill="#57b793"
           id="path2100"
           style="fill:#209ce9;fill-opacity:1;stroke-width:0.212654" />
        <path
           d="m 139.11617,745.58595 a 2.9771488,2.9771488 0 1 1 0.1446,-2.40299 l -1.86498,1.52473 2.05211,-0.47423 a 2.9771488,2.9771488 0 0 1 -0.33173,1.35249 z"
           fill="#57b793"
           id="path2102"
           style="fill:#209ce9;fill-opacity:1;stroke-width:0.212654" />
        <path
           d="m 137.64248,739.79114 a 2.9771488,2.9771488 0 0 1 -0.94418,-5.85435 l -0.0149,1.22913 0.6741,-1.33759 v 0 a 2.9771488,2.9771488 0 0 1 3.126,2.84105 2.9431243,2.9431243 0 0 1 -0.12759,1.01862 2.9771488,2.9771488 0 0 1 -2.71345,2.10314 z"
           fill="#57b793"
           id="path2104"
           style="fill:#209ce9;fill-opacity:1;stroke-width:0.212654" />
        <path
           d="m 144.88757,734.97029 a 2.9771488,2.9771488 0 1 1 1.32059,-5.58641 l -0.52738,1.44605 1.08454,-1.04201 a 2.9771488,2.9771488 0 0 1 0.96332,2.06061 2.9324915,2.9324915 0 0 1 -0.0745,0.82296 2.9771488,2.9771488 0 0 1 -2.76663,2.2988 z"
           fill="#57b793"
           id="path2106"
           style="fill:#209ce9;fill-opacity:1;stroke-width:0.212654" />
        <path
           d="m 144.03697,726.18131 c -0.68901,0.0745 -1.35887,0.28921 -2.04998,0.33175 -0.69113,0.0424 -1.45031,-0.12125 -1.88624,-0.65923 -0.23604,-0.28921 -0.35513,-0.65497 -0.55289,-0.97182 a 2.1265349,2.1265349 0 0 0 -0.7528,-0.70814 2.9771488,2.9771488 0 1 0 5.58003,1.98192 q -0.168,0.007 -0.33812,0.0256 z"
           opacity="0.1"
           id="path2108"
           style="stroke-width:0.212654" />
        <path
           d="m 144.88757,734.97029 a 2.9877815,2.9877815 0 0 1 -2.83892,-4.25307 2.2052165,2.2052165 0 0 1 0.60393,0.5933 c 0.21267,0.32111 0.34237,0.69325 0.59331,0.9867 0.46359,0.54653 1.25679,0.72516 1.97769,0.69326 0.72089,-0.0319 1.41626,-0.23817 2.12652,-0.30409 0.0999,0 0.21266,-0.0149 0.30198,-0.017 a 2.9771488,2.9771488 0 0 1 -2.76451,2.30091 z"
           opacity="0.1"
           id="path2110"
           style="stroke-width:0.212654" />
        <path
           d="m 137.64248,739.79114 a 2.9771488,2.9771488 0 0 1 -2.85806,-4.20203 2.4072374,2.4072374 0 0 1 0.63795,0.60605 c 0.23179,0.3275 0.37639,0.70602 0.63796,1.00798 0.50399,0.55929 1.35036,0.75707 2.11378,0.74004 0.76342,-0.017 1.45029,-0.19777 2.18395,-0.25518 a 2.9771488,2.9771488 0 0 1 -2.71558,2.10314 z"
           opacity="0.1"
           id="path2112"
           style="stroke-width:0.212654" />
        <path
           d="m 139.11617,745.58595 a 2.9798874,2.9798874 0 0 1 -5.43969,-2.43489 2.9771488,2.9771488 0 0 1 0.65285,0.58481 c 0.28496,0.34449 0.4721,0.7379 0.79958,1.06326 0.61031,0.59969 1.59491,0.85062 2.47317,0.86976 a 12.75921,12.75921 0 0 0 1.51409,-0.083 z"
           opacity="0.1"
           id="path2114"
           style="stroke-width:0.212654" />
        <ellipse
           cx="-164.37991"
           cy="756.04907"
           rx="25.197367"
           ry="4.9121222"
           fill="#3f3d56"
           id="ellipse4"
           style="fill:#48486b;fill-opacity:1;stroke-width:0.0909653"
           transform="scale(-1,1)" />
        <path
           d="m 184.54964,754.86653 c 0,0 4.67198,-1.25623 5.55343,-1.16345 0.88145,0.0928 -1.33537,-4.3081 -2.81173,-3.77141 -1.47637,0.53669 -3.44486,1.94847 -4.5701,-0.0455 -1.12524,-1.99396 -1.75654,-3.06735 -3.12738,-2.96001 -1.37085,0.10734 -3.26929,-0.8578 -4.63923,0 -1.36994,0.8578 -2.33235,1.91573 -4.22442,1.87024 -1.89208,-0.0455 -3.68592,-4.33812 -5.15955,-2.62071 -1.47364,1.71743 -3.24109,3.2884 -4.62649,2.71714 -1.3854,-0.57127 -2.96638,0.28745 -4.23171,1.2535 -1.26532,0.96605 -3.48033,0.5367 -4.32357,-0.21468 -0.84325,-0.75137 -1.47728,-1.28807 -3.26929,-1.18255 -1.79202,0.10552 -7.48735,1.39541 -9.59684,3.00186 -2.10948,1.60645 2.7417,3.64952 5.06222,3.64952 2.32052,0 2.74169,0.64403 4.74565,1.61008 2.00397,0.96606 5.27599,-0.53669 7.59287,1.0734 2.31689,1.61008 5.27599,-0.85872 9.27846,0 4.00247,0.85871 3.16377,2.03853 5.48429,1.18254 2.32052,-0.85598 1.47637,-1.18254 4.85117,-1.39541 3.37482,-0.21285 7.06527,0.5367 7.38183,-0.8587 0.31656,-1.39541 2.42332,-1.71743 3.68955,-2.14678 1.26624,-0.42936 -3.05916,0.001 -3.05916,0.001 z"
           fill="#3f3d56"
           id="path6-9"
           style="fill:#48486b;fill-opacity:1;stroke-width:0.0909653" />
        <path
           d="m 148.64385,755.82712 c 0,0 3.1483,-0.83324 3.7414,-0.77229 0.59309,0.0609 -0.89965,-2.85085 -1.8939,-2.49608 -0.99425,0.35476 -2.32143,1.28988 -3.07917,-0.03 -0.75774,-1.31991 -1.18255,-2.03034 -2.10767,-1.95939 -0.92511,0.071 -2.20227,-0.56853 -3.12556,0 -0.9233,0.56853 -1.57098,1.26805 -2.8463,1.23803 -1.27534,-0.03 -2.48244,-2.87177 -3.4767,-1.73561 -0.99424,1.13615 -2.18316,2.17771 -3.11646,1.79929 -0.93331,-0.37842 -2.00124,0.19012 -2.85177,0.8296 -0.85052,0.63949 -2.34417,0.35568 -2.91088,-0.1419 -0.56672,-0.49758 -0.99516,-0.85234 -2.20318,-0.7814 -1.20801,0.071 -5.04402,0.9233 -6.4649,1.98941 -1.42088,1.06612 1.84751,2.41513 3.41029,2.41513 1.56278,0 1.8475,0.42663 3.19743,1.06612 1.34992,0.63948 3.55219,-0.35568 5.11497,0.71043 1.56279,1.06612 3.55219,-0.56853 6.25204,0 2.69985,0.56854 2.13131,1.34993 3.69501,0.7814 1.56369,-0.56854 0.99425,-0.7814 3.26747,-0.9233 2.27322,-0.14191 4.76021,0.35476 4.97398,-0.56853 0.21377,-0.92331 1.63737,-1.13707 2.48608,-1.42089 0.8487,-0.2838 -2.06218,0 -2.06218,0 z"
           fill="#3f3d56"
           id="path12-6"
           style="fill:#48486b;fill-opacity:1;stroke-width:0.0909653" />
        <polygon
           points="483.33,620.74 501,549.28 501.94,545.52 511.4,507.27 511.42,507.18 568.82,500 744.61,561.58 731.21,602.65 730.63,604.44 708.2,673.2 669.8,699.15 "
           fill="#f8ce6d"
           id="polygon14"
           transform="matrix(-0.09096523,0,0,0.09096523,190.30319,694.92045)"
           style="fill:url(#linearGradient2216);fill-opacity:1" />
        <polygon
           points="511.42,507.18 568.82,500 744.61,561.58 708.2,673.2 669.8,699.15 705.05,577.34 511.4,507.27 "
           opacity="0.1"
           id="polygon16"
           transform="matrix(-0.09096523,0,0,0.09096523,190.30319,694.92045)"
           style="fill:url(#linearGradient2224);fill-opacity:1" />
        <polygon
           points="581.13,509.8 713.85,556.72 710.11,558.68 579.18,512.51 553.24,514.93 550.15,513.05 "
           opacity="0.1"
           id="polygon18"
           transform="matrix(-0.09096523,0,0,0.09096523,190.30319,694.92045)"
           style="fill:url(#linearGradient2240);fill-opacity:1" />
        <polyline
           points="731.21 602.65 692.45 620.88 501.94 545.52 501 549.28 691.68 623.56 730.63 604.44"
           opacity="0.1"
           id="polyline20"
           transform="matrix(-0.09096523,0,0,0.09096523,190.30319,694.92045)" />
        <ellipse
           cx="-752.34741"
           cy="83.690102"
           rx="0.60673815"
           ry="0.65494967"
           transform="matrix(-0.29654158,-0.95501994,-0.95501994,0.29654158,0,0)"
           fill="#3f3d56"
           id="ellipse22"
           style="stroke-width:0.0909653" />
        <ellipse
           cx="-753.466"
           cy="100.03087"
           rx="0.60673815"
           ry="0.65494967"
           transform="matrix(-0.29654158,-0.95501994,-0.95501994,0.29654158,0,0)"
           fill="#3f3d56"
           id="ellipse24"
           style="stroke-width:0.0909653" />
        <ellipse
           cx="-761.19641"
           cy="99.903687"
           rx="0.60673815"
           ry="0.65494967"
           transform="matrix(-0.29654158,-0.95501994,-0.95501994,0.29654158,0,0)"
           fill="#3f3d56"
           id="ellipse26"
           style="stroke-width:0.0909653" />
        <ellipse
           cx="-759.67871"
           cy="84.009811"
           rx="0.60673815"
           ry="0.65494967"
           transform="matrix(-0.29654158,-0.95501994,-0.95501994,0.29654158,0,0)"
           fill="#3f3d56"
           id="ellipse28"
           style="stroke-width:0.0909653" />
        <path
           d="m 141.71775,741.43825 c 0.0364,0.11825 0.32839,0 0.69953,-0.11644 0.37113,-0.11643 0.6604,-0.24379 0.62402,-0.36386 -0.0364,-0.12008 -0.38569,-0.18193 -0.75684,-0.0664 -0.37113,0.11553 -0.604,0.42845 -0.56671,0.54671 z"
           fill="#3f3d56"
           id="path30"
           style="stroke-width:0.0909653" />
        <ellipse
           cx="-749.1524"
           cy="85.543587"
           rx="0.22377448"
           ry="0.63857591"
           transform="matrix(-0.29654158,-0.95501994,-0.95501994,0.29654158,0,0)"
           fill="#3f3d56"
           id="ellipse32"
           style="stroke-width:0.0909653" />
        <path
           d="m 133.862,744.31457 c 0.0364,0.11825 0.40116,0.009 0.75501,-0.10098 0.35386,-0.11007 0.62948,-0.23287 0.59309,-0.35112 -0.0364,-0.11826 -0.37204,-0.18193 -0.72772,-0.0755 -0.35568,0.10643 -0.65859,0.40752 -0.62038,0.5276 z"
           fill="#3f3d56"
           id="path34"
           style="stroke-width:0.0909653" />
        <path
           d="m 126.31552,747.02442 c 0.0409,0.13281 0.42845,0.0173 0.80414,-0.0992 0.37568,-0.11644 0.66768,-0.25016 0.62674,-0.38297 -0.0409,-0.13281 -0.40025,-0.21376 -0.77593,-0.0973 -0.37568,0.11644 -0.69679,0.44664 -0.65495,0.57945 z"
           fill="#3f3d56"
           id="path36"
           style="stroke-width:0.0909653" />
        <path
           d="m 124.10871,746.70604 c 0.0419,0.13281 0.42844,0.0173 0.80413,-0.0992 0.37569,-0.11644 0.6686,-0.25016 0.62675,-0.38296 -0.0419,-0.13281 -0.40025,-0.21377 -0.77593,-0.0973 -0.37569,0.11644 -0.69589,0.44664 -0.65495,0.57945 z"
           fill="#3f3d56"
           id="path38"
           style="stroke-width:0.0909653" />
        <path
           d="m 123.02076,746.05746 c 0.0419,0.13281 0.36386,0.0382 0.67132,-0.0582 0.30746,-0.0964 0.5458,-0.21286 0.5085,-0.34567 -0.0373,-0.1328 -0.34749,-0.23105 -0.65768,-0.13463 -0.31019,0.0964 -0.56307,0.40571 -0.52214,0.53852 z"
           fill="#3f3d56"
           id="path40"
           style="stroke-width:0.0909653" />
        <path
           d="m 130.30799,743.39946 c 0.0327,0.10552 0.36386,0.008 0.6786,-0.091 0.31474,-0.0992 0.56671,-0.21013 0.53305,-0.31565 -0.0337,-0.10552 -0.33384,-0.16647 -0.65222,-0.0682 -0.31838,0.0982 -0.59127,0.36841 -0.55943,0.47484 z"
           fill="#3f3d56"
           id="path42-5"
           style="stroke-width:0.0909653" />
        <ellipse
           cx="-748.32172"
           cy="87.94767"
           rx="0.22377448"
           ry="0.55124933"
           transform="matrix(-0.29654158,-0.95501994,-0.95501994,0.29654158,0,0)"
           fill="#3f3d56"
           id="ellipse44"
           style="stroke-width:0.0909653" />
        <path
           d="m 134.09669,747.88495 a 0.57490024,0.57490024 0 0 1 0.26379,-0.6695 0.58490644,0.58490644 0 0 1 -0.11916,-0.21195 0.57490024,0.57490024 0 0 1 0.65859,-0.735 0.57490024,0.57490024 0 0 1 1.03155,-0.47757 0.57490024,0.57490024 0 0 1 0.886,0.29564 c 0,0.0127 0.006,0.0246 0.009,0.0364 l 0.02,0.01 a 0.57490024,0.57490024 0 1 1 0.5558,0.97605 0.51395355,0.51395355 0 0 1 -0.091,0.02 l -0.007,0.21104 -2.7526,1.12524 0.0182,-0.18193 a 0.57671955,0.57671955 0 0 1 -0.47302,-0.39843 z"
           opacity="0.1"
           id="path46"
           style="stroke-width:0.0909653" />
        <path
           d="m 134.73981,749.69152 a 0.57580992,0.57580992 0 0 0 0.65495,0.29928 0.56216513,0.56216513 0 0 0 0.061,0.23469 0.57490024,0.57490024 0 0 0 0.77229,0.25561 0.58490644,0.58490644 0 0 0 0.21195,-0.18193 0.57490024,0.57490024 0 0 0 1.07339,-0.37205 0.58399679,0.58399679 0 0 0 0.18193,-0.0564 0.57490024,0.57490024 0 0 0 0.25561,-0.77139 l -0.0182,-0.0337 0.007,-0.0209 a 0.56853268,0.56853268 0 0 0 0.23923,-0.0609 0.57767783,0.57767783 0 0 0 -0.52214,-1.03063 0.59946087,0.59946087 0 0 0 -0.0773,0.0464 l -0.15101,-0.14646 -2.76898,1.10705 0.13918,0.11825 a 0.57490024,0.57490024 0 0 0 -0.0591,0.61311 z"
           opacity="0.1"
           id="path48"
           style="stroke-width:0.0909653" />
        <path
           d="m 136.42995,746.64691 0.66859,2.1668 a 0.65131106,0.65131106 0 0 1 -0.39388,0.80322 v 0 a 0.6504014,0.6504014 0 0 1 -0.84779,-0.41662 l -0.6686,-2.1677 a 0.64949174,0.64949174 0 0 1 0.4621,-0.81869 v 0 a 0.64949174,0.64949174 0 0 1 0.77958,0.43299 z"
           opacity="0.1"
           id="path50-8"
           style="stroke-width:0.0909653" />
        <path
           d="m 136.40084,746.77882 0.60674,1.94301 a 0.58217747,0.58217747 0 0 1 -0.35386,0.71953 v 0 a 0.58308713,0.58308713 0 0 1 -0.75956,-0.37386 l -0.6031,-1.94393 a 0.58399679,0.58399679 0 0 1 0.4148,-0.73864 v 0 a 0.58399679,0.58399679 0 0 1 0.69498,0.39389 z"
           fill="#3f3d56"
           id="path52-0"
           style="stroke-width:0.0909653" />
        <path
           d="m 144.31026,756.82138 c 0,0 3.14831,-0.83324 3.7414,-0.77139 0.5931,0.0619 -0.89964,-2.85176 -1.89389,-2.49608 -0.99425,0.35567 -2.32144,1.28897 -3.07918,-0.0309 -0.75774,-1.31991 -1.18255,-2.02943 -2.10766,-1.95848 -0.92512,0.071 -2.20227,-0.56853 -3.12556,0 -0.9233,0.56854 -1.57097,1.26715 -2.84631,1.23713 -1.27533,-0.03 -2.48244,-2.87177 -3.4776,-1.73471 -0.99515,1.13707 -2.18316,2.1768 -3.11647,1.7993 -0.9333,-0.37751 -2.00123,0.19011 -2.85085,0.8296 -0.84961,0.63949 -2.34508,0.35476 -2.91089,-0.14191 -0.5658,-0.49667 -0.99424,-0.85325 -2.20227,-0.7823 -1.20801,0.0709 -5.04401,0.92421 -6.46489,1.98941 -1.42088,1.06521 1.84659,2.41604 3.41028,2.41604 1.56369,0 1.8466,0.42571 3.19652,1.0652 1.34993,0.63948 3.55311,-0.35476 5.11589,0.71044 1.56278,1.0652 3.55219,-0.56762 6.25203,0 2.69985,0.56762 2.13132,1.34992 3.6941,0.7823 1.56279,-0.56763 0.99517,-0.7823 3.26839,-0.92421 2.27321,-0.14189 4.76021,0.35569 4.97307,-0.56851 0.21285,-0.92422 1.63282,-1.13616 2.48607,-1.42088 0.85326,-0.28472 -2.06218,0 -2.06218,0 z"
           fill="#3f3d56"
           id="path54-8"
           style="fill:#48486b;fill-opacity:1;stroke-width:0.0909653" />
        <path
           d="m 117.58741,754.42717 c -0.2729,-0.50122 0.0364,-1.11614 0.38933,-1.56278 0.35294,-0.44664 0.78412,-0.90966 0.77502,-1.48183 -0.0136,-0.81868 -0.88236,-1.30171 -1.57642,-1.73652 a 7.6410792,7.6410792 0 0 1 -1.41543,-1.13798 2.0567239,2.0567239 0 0 1 -0.43481,-0.58217 c -0.14372,-0.3202 -0.14009,-0.68406 -0.13099,-1.03428 q 0.0446,-1.75199 0.17374,-3.50125"
           fill="none"
           stroke="#3f3d56"
           stroke-miterlimit="10"
           stroke-width="0.36386"
           id="path56" />
        <path
           d="m 114.04795,743.32668 a 1.2735132,1.2735132 0 0 1 0.63675,-1.0461 l 0.28563,0.56581 -0.009,-0.68497 a 1.2907966,1.2907966 0 0 1 0.42116,-0.0509 1.2735132,1.2735132 0 1 1 -1.33537,1.2162 z"
           fill="#57b793"
           id="path58-9"
           style="fill:#209ce9;fill-opacity:1;stroke-width:0.0909653" />
        <path
           d="m 116.32481,751.96747 a 1.2735132,1.2735132 0 1 0 -0.0619,-1.02791 l 0.79777,0.65222 -0.87782,-0.20285 a 1.2735132,1.2735132 0 0 0 0.14191,0.57854 z"
           fill="#57b793"
           id="path60"
           style="fill:#209ce9;fill-opacity:1;stroke-width:0.0909653" />
        <path
           d="m 116.9552,749.48867 a 1.2735132,1.2735132 0 0 0 0.40388,-2.50428 l 0.006,0.52578 -0.28836,-0.57217 v 0 a 1.2735132,1.2735132 0 0 0 -1.33718,1.21529 1.2589588,1.2589588 0 0 0 0.0546,0.43573 1.2735132,1.2735132 0 0 0 1.16071,0.89965 z"
           fill="#57b793"
           id="path62-0"
           style="fill:#209ce9;fill-opacity:1;stroke-width:0.0909653" />
        <path
           d="m 113.85602,747.42649 a 1.2735132,1.2735132 0 1 0 -0.5649,-2.38966 l 0.22559,0.61857 -0.46392,-0.44574 a 1.2735132,1.2735132 0 0 0 -0.41207,0.88146 1.2544105,1.2544105 0 0 0 0.0318,0.35203 1.2735132,1.2735132 0 0 0 1.18346,0.98334 z"
           fill="#57b793"
           id="path64"
           style="fill:#209ce9;fill-opacity:1;stroke-width:0.0909653" />
        <path
           d="m 114.21987,743.66689 c 0.29473,0.0319 0.58128,0.12371 0.87691,0.14191 0.29563,0.0181 0.62038,-0.0519 0.80686,-0.28199 0.10097,-0.12372 0.15191,-0.28017 0.23651,-0.41571 a 0.90965232,0.90965232 0 0 1 0.32202,-0.30292 1.2735132,1.2735132 0 1 1 -2.38693,0.84779 q 0.0719,0.003 0.14463,0.0109 z"
           opacity="0.1"
           id="path66"
           style="stroke-width:0.0909653" />
        <path
           d="m 113.85602,747.42649 a 1.2780615,1.2780615 0 0 0 1.21438,-1.81931 0.9433094,0.9433094 0 0 0 -0.25834,0.2538 c -0.091,0.13735 -0.14645,0.29654 -0.25379,0.42207 -0.19831,0.23378 -0.53761,0.3102 -0.84599,0.29655 -0.30837,-0.0136 -0.60582,-0.10188 -0.90964,-0.13008 -0.0427,0 -0.091,-0.006 -0.12918,-0.007 a 1.2735132,1.2735132 0 0 0 1.18256,0.98424 z"
           opacity="0.1"
           id="path68-4"
           style="stroke-width:0.0909653" />
        <path
           d="m 116.9552,749.48867 a 1.2735132,1.2735132 0 0 0 1.22257,-1.79747 1.0297264,1.0297264 0 0 0 -0.27289,0.25924 c -0.0992,0.14009 -0.16101,0.30201 -0.2729,0.43118 -0.21559,0.23924 -0.57763,0.32384 -0.90419,0.31656 -0.32657,-0.007 -0.62039,-0.0846 -0.93422,-0.10916 a 1.2735132,1.2735132 0 0 0 1.16163,0.89965 z"
           opacity="0.1"
           id="path70-5"
           style="stroke-width:0.0909653" />
        <path
           d="m 116.32481,751.96747 a 1.2746835,1.2746835 0 0 0 2.32689,-1.04155 1.2735132,1.2735132 0 0 0 -0.27926,0.25015 c -0.12189,0.14737 -0.20195,0.31565 -0.34203,0.45483 -0.26107,0.25652 -0.68224,0.36386 -1.05793,0.37205 a 5.4579139,5.4579139 0 0 1 -0.64767,-0.0355 z"
           opacity="0.1"
           id="path72"
           style="stroke-width:0.0909653" />
        <path
           d="m 119.51314,753.84954 c 0,0 -1.00789,-0.0309 -1.31172,-0.24742 -0.30382,-0.2165 -1.54641,-0.47393 -1.62555,-0.12735 -0.0791,0.34657 -1.51366,1.72834 -0.37659,1.73379 1.13706,0.005 2.64345,-0.17647 2.94636,-0.36386 0.30292,-0.18739 0.3675,-0.99516 0.3675,-0.99516 z"
           fill="#656380"
           id="path74"
           style="stroke-width:0.0909653" />
        <path
           d="m 116.17654,755.08849 c 1.13797,0.009 2.64345,-0.18194 2.94636,-0.36387 0.23105,-0.14099 0.32293,-0.64493 0.35385,-0.8778 h 0.0337 c 0,0 -0.0637,0.81322 -0.36386,1.00061 -0.30019,0.18739 -1.80839,0.37023 -2.94637,0.36386 -0.32838,0 -0.44118,-0.11916 -0.43572,-0.292 0.0482,0.10188 0.17011,0.16647 0.41207,0.1692 z"
           opacity="0.2"
           id="path76-9"
           style="stroke-width:0.0909653" />
        <path
           d="m 171.63713,711.21959 a 0.41025318,0.41025318 0 0 0 -0.0282,-0.19466 c -0.0737,-0.13099 -0.26653,-0.0955 -0.41207,-0.0582 -0.58582,0.14736 -1.20256,0.0136 -1.80475,0.0482 -0.60219,0.0346 -1.2817,0.33567 -1.40269,0.92694 a 4.3890725,4.3890725 0 0 1 -1.1125,-1.14343 c -0.16738,-0.25015 -0.31292,-0.5367 -0.29018,-0.83688 0.0328,-0.433 0.3957,-0.75683 0.73227,-1.03155 l 1.00062,-0.81868 a 1.501836,1.501836 0 0 1 0.44937,-0.28564 c 0.23105,-0.0791 0.48393,-0.0419 0.72772,-0.0419 0.72772,0 1.50729,-0.33111 2.15678,0 0.2729,0.13918 0.47484,0.37751 0.67133,0.61038 l 0.89509,1.05974 a 0.55761685,0.55761685 0 0 1 0.14282,0.24288 c 0.0255,0.12917 -0.0409,0.25653 -0.0637,0.3866 -0.0427,0.23651 0.06,0.48849 -0.0191,0.7159 -0.13008,0.37751 -0.58763,0.43117 -0.86781,0.64676 -0.10461,0.081 -0.26834,0.35386 -0.39206,0.35113 -0.22195,-0.003 -0.37659,-0.40389 -0.38296,-0.57763 z"
           fill="#3f3d56"
           id="path78-9"
           style="stroke-width:0.0909653" />
        <path
           d="m 171.48976,713.75025 c 0.01,0.29473 0.18194,0.55671 0.34749,0.8014 0.22105,0.32566 0.45483,0.66405 0.80413,0.84598 a 7.7265864,7.7265864 0 0 1 -5.71079,0.60219 c -0.30656,-0.091 -0.6686,-0.28017 -0.6504,-0.59946 0.36386,-0.0992 0.74045,-0.20195 1.04973,-0.42117 0.36932,-0.26198 0.61311,-0.6695 0.77048,-1.09158 0.15737,-0.42209 0.23742,-0.87327 0.34749,-1.31264 a 0.24742543,0.24742543 0 0 1 0.0564,-0.12189 0.25106403,0.25106403 0 0 1 0.17283,-0.0455 l 1.21166,-0.0219 c 0.49758,0 1.03791,-0.0118 1.50002,0.19922 0.5749,0.2638 0.0846,0.67587 0.10097,1.16526 z"
           fill="#ffc0c6"
           id="path80"
           style="stroke-width:0.0909653" />
        <path
           d="m 171.48976,713.75025 c 0.01,0.29473 0.18194,0.55671 0.34749,0.8014 0.22105,0.32566 0.45483,0.66405 0.80413,0.84598 a 7.7265864,7.7265864 0 0 1 -5.71079,0.60219 c -0.30656,-0.091 -0.6686,-0.28017 -0.6504,-0.59946 0.36386,-0.0992 0.74045,-0.20195 1.04973,-0.42117 0.36932,-0.26198 0.61311,-0.6695 0.77048,-1.09158 0.15737,-0.42209 0.23742,-0.87327 0.34749,-1.31264 a 0.24742543,0.24742543 0 0 1 0.0564,-0.12189 0.25106403,0.25106403 0 0 1 0.17283,-0.0455 l 1.21166,-0.0219 c 0.49758,0 1.03791,-0.0118 1.50002,0.19922 0.5749,0.2638 0.0846,0.67587 0.10097,1.16526 z"
           opacity="0.1"
           id="path82-6"
           style="stroke-width:0.0909653" />
        <path
           d="m 172.54405,755.25223 c 0.29837,0.45482 0.68861,0.8396 1.01608,1.27351 0.32748,0.4339 0.60128,0.93967 0.60492,1.48273 a 0.23469029,0.23469029 0 0 1 -0.0628,0.19103 0.24560612,0.24560612 0 0 1 -0.12463,0.0391 l -1.26441,0.16192 a 2.1185802,2.1185802 0 0 1 -0.58218,0.02 2.0649107,2.0649107 0 0 1 -0.59673,-0.21741 0.82323533,0.82323533 0 0 1 -0.35841,-0.27289 c -0.0609,-0.10007 -0.0773,-0.22287 -0.13553,-0.32475 -0.17557,-0.30837 -0.61766,-0.29473 -0.96878,-0.24106 -0.10097,-0.93785 0.15828,-1.87297 0.41571,-2.7808 a 0.36386091,0.36386091 0 0 1 0.07,-0.15283 0.36386091,0.36386091 0 0 1 0.16465,-0.091 c 0.30291,-0.0992 1.03518,-0.48758 1.28989,-0.30565 0.18647,0.13463 0.38114,0.97697 0.53214,1.21803 z"
           fill="#575a88"
           id="path84-5"
           style="fill:#1a1a1a;fill-opacity:1;stroke-width:0.0909653" />
        <path
           d="m 166.44756,757.10155 c -0.24287,-0.11371 -0.50213,-0.26016 -0.76411,-0.20012 -0.36931,0.0828 -0.53396,0.5194 -0.84779,0.72772 -0.19285,0.13008 -0.43118,0.16828 -0.66132,0.1983 a 15.41133,15.41133 0 0 1 -2.13768,0.12644 c -0.22832,0 -0.51577,-0.0546 -0.57126,-0.27289 -0.0555,-0.21832 0.15464,-0.39206 0.34112,-0.50577 a 10.006175,10.006175 0 0 1 1.26259,-0.65586 2.5315624,2.5315624 0 0 0 0.60219,-0.3202 c 0.31201,-0.25197 0.46393,-0.64676 0.6031,-1.02245 0.11189,-0.302 0.21468,-0.95422 0.44391,-1.18254 0.25107,-0.24652 0.58855,-0.0828 0.90329,-0.0136 0.48939,0.10734 1.06247,0.18193 1.37721,0.6213 0.46029,0.64312 0.81414,3.13193 -0.55125,2.49972 z"
           fill="#575a88"
           id="path86"
           style="fill:#1a1a1a;fill-opacity:1;stroke-width:0.0909653" />
        <circle
           cx="-170.14439"
           cy="711.33331"
           r="2.404211"
           fill="#ffc0c6"
           id="circle90"
           style="stroke-width:0.0909653"
           transform="scale(-1,1)" />
        <path
           d="m 171.4552,714.19598 a 0.55852649,0.55852649 0 0 1 0.38751,-0.0682 0.66222685,0.66222685 0 0 1 0.18193,0.0992 l 1.13707,0.79685 a 1.7583579,1.7583579 0 0 1 0.43026,0.3766 c 0.19467,0.26471 0.2256,0.61674 0.20012,0.94422 -0.0564,0.73863 -0.35476,1.43543 -0.51668,2.15769 -0.16192,0.72227 -0.16192,1.54641 0.30383,2.12495 a 1.1261496,1.1261496 0 0 1 0.1983,0.28108 0.81868709,0.81868709 0 0 1 0.0373,0.2729 7.442775,7.442775 0 0 1 -0.0218,1.037 c -0.0509,0.44482 -0.18193,0.8769 -0.25288,1.31809 -0.12462,0.75137 -0.091,1.52185 -0.18739,2.27413 a 0.36386091,0.36386091 0 0 1 -0.36386,0.39479 10.712975,10.712975 0 0 1 -1.69832,0.11189 c -0.65768,0 -1.31445,-0.0364 -1.97122,-0.071 l -2.98912,-0.15737 a 0.29472735,0.29472735 0 0 1 -0.33202,-0.30473 c -0.26198,-1.25714 -0.52578,-2.53702 -0.40207,-3.81418 0.08,-0.82505 0.3202,-1.62463 0.5458,-2.42149 0.18193,-0.64585 0.35658,-1.32354 0.22013,-1.98122 -0.091,-0.43391 -0.31201,-0.83506 -0.36932,-1.27351 a 1.501836,1.501836 0 0 1 0.41117,-1.26442 c 0.33475,-0.32111 0.82323,-0.443 1.15707,-0.76502 a 2.6316241,2.6316241 0 0 1 0.29837,-0.28927 0.37295746,0.37295746 0 0 1 0.39206,-0.0455 0.50485703,0.50485703 0 0 1 0.14918,0.16647 c 0.29109,0.44209 0.72772,1.17072 1.34174,1.0561 0.66405,-0.11916 1.12797,-0.67404 1.71287,-0.95604 z"
           fill="#6c63ff"
           id="path92-7"
           style="fill:#ffffff;fill-opacity:1;stroke-width:0.0909653" />
        <path
           d="m 171.78722,710.31722 a 0.40752422,0.40752422 0 0 0 -0.0282,-0.19376 c -0.0737,-0.13098 -0.26652,-0.091 -0.41207,-0.0591 -0.58582,0.14827 -1.20256,0.0146 -1.80475,0.0491 -0.60219,0.0346 -1.2817,0.33566 -1.40268,0.92694 a 4.4036268,4.4036268 0 0 1 -1.11342,-1.14344 c -0.16737,-0.25015 -0.31292,-0.53669 -0.29018,-0.83688 0.0327,-0.43299 0.3957,-0.75683 0.73227,-1.03154 l 1.00062,-0.81869 a 1.499107,1.499107 0 0 1 0.44937,-0.28472 c 0.23105,-0.0791 0.48393,-0.0419 0.72772,-0.0419 0.72772,0 1.5073,-0.33111 2.15679,0 0.27289,0.14009 0.47484,0.37842 0.67223,0.61129 l 0.89419,1.05975 a 0.56489409,0.56489409 0 0 1 0.14372,0.24196 c 0.0255,0.12917 -0.0409,0.25743 -0.0646,0.38661 -0.0419,0.23651 0.06,0.48939 -0.0182,0.7168 -0.13008,0.37751 -0.58854,0.43027 -0.86872,0.64676 -0.10461,0.081 -0.26743,0.35386 -0.39206,0.35022 -0.22104,-0.003 -0.37568,-0.4048 -0.38205,-0.57945 z"
           fill="#3f3d56"
           id="path96"
           style="fill:#48486b;fill-opacity:1;stroke-width:0.0909653" />
        <path
           d="m 173.68021,728.07363 a 9.2729957,9.2729957 0 0 1 0.6786,3.23291 c 0.0218,0.82869 -0.0673,1.65465 -0.15737,2.4788 q -0.21559,2.00123 -0.433,4.00247 a 11.291514,11.291514 0 0 1 -0.26107,1.64738 c -0.15737,0.60492 -0.41298,1.18255 -0.59582,1.77746 -0.5658,1.85387 -0.40479,3.85329 -0.0309,5.75537 a 2.8754109,2.8754109 0 0 1 0.0782,0.63676 c -0.0109,0.32111 -0.13462,0.62675 -0.21467,0.93785 -0.4894,1.89662 0.63675,4.00247 -0.0983,5.82177 a 0.28835978,0.28835978 0 0 1 -0.11552,0.15919 0.29290804,0.29290804 0 0 1 -0.22923,-0.01 3.1010047,3.1010047 0 0 1 -0.59947,-0.28381 3.657712,3.657712 0 0 1 -1.48637,1.07611 c -0.43117,-0.10642 -0.51213,-0.63038 -0.65313,-1.05155 a 7.1862534,7.1862534 0 0 1 -0.26198,-0.91602 7.2908632,7.2908632 0 0 1 -0.0955,-1.15344 l -0.37296,-13.13083 0.0273,4.00702 a 4.7301919,4.7301919 0 0 1 -0.0609,0.96969 c -0.0546,0.26653 -0.15465,0.52214 -0.21195,0.78867 -0.081,0.38114 -0.071,0.77593 -0.0673,1.16617 a 34.274789,34.274789 0 0 1 -0.63221,6.89698 c -0.14554,0.7441 -0.32019,1.49547 -0.69224,2.15497 a 0.23741925,0.23741925 0 0 1 -0.13554,0.13281 c -0.0791,0.0173 -0.15191,-0.0455 -0.21195,-0.10097 a 2.3187037,2.3187037 0 0 0 -2.66255,-0.28927 c 0.08,-0.38569 -0.28745,-0.83415 -0.0246,-1.12706 0.0755,-0.0846 0.18829,-0.12553 0.27289,-0.19921 0.16738,-0.14282 0.2074,-0.38297 0.23105,-0.60219 a 13.948609,13.948609 0 0 0 0,-2.93545 c -0.12826,-1.21984 -0.41662,-2.4497 -0.20376,-3.6568 0.15464,-0.876 0.57126,-1.72834 0.48849,-2.6098 -0.0546,-0.59127 -0.3293,-1.13615 -0.51851,-1.69922 -0.82596,-2.46153 0,-5.20503 -0.59764,-7.73205 -0.13736,-0.58036 -0.34476,-1.20802 -0.0955,-1.74926 l -0.37933,-0.11553 0.78776,-1.79838 c 0.16738,-0.38296 0.34203,-0.77685 0.63676,-1.07157 0.49485,-0.49212 1.2344,-0.62402 1.92482,-0.72772 l 5.6162,-0.876 c 0.49758,-0.081 1.1689,-0.26835 1.3572,0.19376 z"
           fill="#3c354c"
           id="path88-8"
           style="fill:#5c63a0;fill-opacity:1;stroke-width:0.0909653" />
        <path
           d="m 165.44785,730.44965 c 0.21286,0.15918 0.37114,0.44208 0.2729,0.6886 a 1.3890391,1.3890391 0 0 1 -0.85143,-0.11826 c -0.17011,-0.0828 -0.38206,-0.1992 -0.52942,-0.0791 a 0.44845858,0.44845858 0 0 0 -0.10825,0.16374 5.5325053,5.5325053 0 0 1 -0.57672,0.95786 c -0.16192,-0.0764 -0.33202,-0.1601 -0.42936,-0.3102 a 0.89782681,0.89782681 0 0 1 -0.11188,-0.33202 8.8236273,8.8236273 0 0 1 -0.12645,-0.88508 c -0.0191,-0.2156 -0.0227,-0.45483 0.12463,-0.61493 0.63221,-0.68224 1.81111,0.13736 2.33598,0.52942 z"
           fill="#ffc0c6"
           id="path94-9"
           style="stroke-width:0.0909653" />
        <path
           d="m 165.84992,715.19387 a 1.8647872,1.8647872 0 0 0 -1.47727,0.27289 c -0.6877,0.47121 -0.9706,1.33174 -1.20984,2.13041 l -0.53579,1.7911 c -0.23469,0.78503 -0.4712,1.57734 -0.52578,2.39512 -0.05,0.74319 0.0519,1.48728 0.15374,2.225 0.14099,1.02155 -0.19103,2.14133 -0.19558,3.17196 0,1.18255 0.007,2.43697 0.60947,3.45668 a 0.57671955,0.57671955 0 0 1 0.36386,-0.38842 1.6965015,1.6965015 0 0 1 0.54124,-0.091 l 1.60099,-0.10279 a 4.9366829,4.9366829 0 0 1 -0.35113,-0.72136 c -0.61401,-1.57734 -0.37841,-3.34024 -0.13372,-5.014 a 3.4566789,3.4566789 0 0 1 0.091,-0.47302 4.5100563,4.5100563 0 0 0 0.10825,-1.83295 4.275366,4.275366 0 0 1 -0.0282,-0.83506 0.93330327,0.93330327 0 0 1 0.0737,-0.34203 1.075209,1.075209 0 0 1 0.17647,-0.24378 l 0.32384,-0.36387 c 0.0264,-1.10068 0.19921,-2.20954 0.37023,-3.29749 a 7.4054792,7.4054792 0 0 0 0.0446,-1.73743 z"
           fill="#6c63ff"
           id="path98-6"
           style="fill:#ffffff;fill-opacity:1;stroke-width:0.0909653" />
        <path
           d="m 168.9955,720.05414 a 7.7265864,7.7265864 0 0 0 2.89633,-4.90576 c 0.0528,-0.34476 0.19012,-0.79503 0.53852,-0.78321 a 0.68678746,0.68678746 0 0 1 0.29654,0.1037 l 1.2626,0.67679 a 0.47574815,0.47574815 0 0 1 0.22014,0.18193 c 0.0828,0.16191 -0.0346,0.34839 -0.13554,0.4994 -0.67951,1.0279 -0.72772,2.33325 -0.75501,3.56492 -0.008,0.36386 -0.0109,0.74683 0.16464,1.06521 0.14282,0.25743 0.39115,0.44663 0.52214,0.71134 0.12281,0.24834 0.12826,0.53579 0.1319,0.81323 0.0255,1.97941 0.0509,3.96154 -0.0528,5.93912 -0.0155,0.29837 -0.0391,0.61129 -0.1983,0.86417 -0.14827,0.23378 -0.39297,0.38479 -0.62948,0.5276 l -1.91482,1.15708 c -0.36386,0.22105 -0.74227,0.44573 -1.16344,0.51668 -0.42117,0.0709 -0.90238,-0.0491 -1.14435,-0.40115 -0.11734,-0.17102 -0.16919,-0.37933 -0.28199,-0.55307 -0.11279,-0.17375 -0.32838,-0.31474 -0.52032,-0.23742 -0.13645,0.0546 -0.21104,0.19739 -0.2729,0.32929 -0.12189,0.25197 -0.24924,0.51031 -0.44845,0.70771 -0.19922,0.19739 -0.48758,0.3302 -0.76138,0.2729 -0.23651,-0.0519 -0.42117,-0.23106 -0.59128,-0.40207 -0.52578,-0.52669 -1.05701,-1.06065 -1.44361,-1.69832 a 0.40934354,0.40934354 0 0 1 -0.0819,-0.25743 0.51850182,0.51850182 0 0 1 0.14099,-0.23652 c 0.24197,-0.29654 0.33748,-0.68496 0.40935,-1.06156 0.71953,-3.78415 -0.29655,-7.71749 0.26289,-11.52893 0.0637,-0.43663 0.20376,-0.83779 0.53123,-1.13343 0.32748,-0.29564 0.735,-0.48393 1.13616,-0.66768 0.1319,-0.06 0.2829,-0.12189 0.41753,-0.0673 0.22286,0.091 0.22377,0.39752 0.2074,0.63676 a 8.3424212,8.3424212 0 0 0 0.0728,1.46727 l 0.19558,1.8002 a 3.4785106,3.4785106 0 0 0 0.15282,0.80959 3.2601938,3.2601938 0 0 0 0.83597,1.28898 z"
           fill="#575a88"
           id="path100-1"
           style="fill:url(#linearGradient2096);fill-opacity:1;stroke-width:0.0909653" />
        <path
           d="m 180.14874,705.75168 c 0,0 0.69407,0.56398 1.51367,-0.91511 0.81959,-1.4791 4.77749,-5.03402 4.77749,-5.03402 0,0 0.51213,-0.46847 -1.43361,-1.24895 -1.94575,-0.78049 -4.60284,-3.63315 -4.60284,-3.63315 0,0 -4.43365,3.94152 -4.86755,5.89363 -0.43391,1.95212 0.51577,2.28323 2.14587,3.32024 1.6301,1.037 2.46697,1.61736 2.46697,1.61736 z"
           fill="#3f3d56"
           id="path102-7"
           style="fill:#d3dbee;fill-opacity:1;stroke-width:0.0909653" />
        <path
           d="m 167.44181,724.62878 11.18873,-20.16426 -0.94968,-0.3302 -10.99952,20.07693 a 0.43572347,0.43572347 0 0 0 0.18193,0.59491 v 0 a 0.43390415,0.43390415 0 0 0 0.57854,-0.17738 z"
           fill="#656380"
           id="path104-3"
           style="fill:#5c63a0;fill-opacity:1;stroke-width:0.0909653" />
        <path
           d="m 172.03647,719.48106 c -0.29291,-0.62675 0.007,-1.34993 0.2074,-2.01215 a 6.798741,6.798741 0 0 0 0.2829,-1.61919 1.182548,1.182548 0 0 0 -0.0564,-0.51213 0.45482613,0.45482613 0 0 0 -0.38933,-0.29745 1.8675162,1.8675162 0 0 0 -0.292,1.32991 4.4773088,4.4773088 0 0 0 -0.51486,-0.10098 0.96332177,0.96332177 0 0 0 -1.04701,0.66496 c -0.28836,0.92421 -0.3866,1.91028 0.0155,2.77444 a 5.2759833,5.2759833 0 0 0 0.44482,0.73227 l 0.8769,1.28079 c 0.06,0.091 0.13372,0.18193 0.23924,0.1974 0.10552,0.0155 0.21559,-0.0801 0.29291,-0.16829 0.26653,-0.3011 0.73954,-0.73955 0.68769,-1.15435 -0.0519,-0.4148 -0.57308,-0.74682 -0.74773,-1.11523 z"
           fill="#ffc0c6"
           id="path106-6"
           style="stroke-width:0.0909653" />
        <path
           d="m 174.06317,715.61776 c 0.89055,-0.10097 1.91027,0.14009 2.37601,0.90966 0.23378,0.38842 0.292,0.85416 0.33294,1.30535 0.0573,0.63221 0.091,1.26623 0.1228,1.89935 l 0.17192,3.33297 c 0.0209,0.39843 0.0409,0.79776 0.0482,1.19619 a 2.6952998,2.6952998 0 0 1 -0.0992,0.92421 c -0.11007,0.32292 -0.32838,0.59582 -0.54579,0.86143 -0.21741,0.26563 -0.48939,0.53943 -0.80868,0.46211 a 0.87872415,0.87872415 0 0 1 -0.34658,-0.21376 l -0.72772,-0.62948 c -0.49485,-0.42481 -0.99516,-0.85599 -1.37176,-1.38905 -0.18193,-0.25652 -0.33111,-0.53396 -0.51486,-0.78867 -0.54033,-0.74955 -1.37176,-1.31808 -1.65648,-2.1968 0.2729,-0.0146 0.66951,-0.10462 0.79504,-0.34659 0.0664,-0.12825 0.0755,-0.28107 0.14918,-0.40388 0.11189,-0.18739 0.36386,-0.28927 0.40116,-0.50395 0.71498,0.57582 1.31354,1.24441 1.8848,1.96213 l -0.23196,-0.90147 a 0.57308096,0.57308096 0 0 0 -0.10279,-0.23378 1.030636,1.030636 0 0 0 -0.2729,-0.17193 c -0.2829,-0.17101 -0.39024,-0.52486 -0.44755,-0.85052 a 5.9518548,5.9518548 0 0 1 0.84416,-4.22352 z"
           fill="#6c63ff"
           id="path108-7"
           style="fill:#ffffff;fill-opacity:1;stroke-width:0.0909653" />
      </g>
    </g>
  </g>
</svg>
