<?xml version="1.0" encoding="UTF-8" standalone="no"?>
<!-- Created with Inkscape (http://www.inkscape.org/) -->

<svg
   width="21.551001mm"
   height="21.551001mm"
   viewBox="0 0 21.551001 21.551001"
   version="1.1"
   id="svg5224"
   inkscape:version="1.2.1 (9c6d41e410, 2022-07-14)"
   sodipodi:docname="icon-telegram.svg"
   xmlns:inkscape="http://www.inkscape.org/namespaces/inkscape"
   xmlns:sodipodi="http://sodipodi.sourceforge.net/DTD/sodipodi-0.dtd"
   xmlns="http://www.w3.org/2000/svg"
   xmlns:svg="http://www.w3.org/2000/svg">
  <sodipodi:namedview
     id="namedview5226"
     pagecolor="#505050"
     bordercolor="#eeeeee"
     borderopacity="1"
     inkscape:showpageshadow="0"
     inkscape:pageopacity="0"
     inkscape:pagecheckerboard="0"
     inkscape:deskcolor="#505050"
     inkscape:document-units="mm"
     showgrid="false"
     inkscape:zoom="3.6845679"
     inkscape:cx="139.77216"
     inkscape:cy="54.551851"
     inkscape:window-width="1366"
     inkscape:window-height="697"
     inkscape:window-x="-8"
     inkscape:window-y="-8"
     inkscape:window-maximized="1"
     inkscape:current-layer="layer1" />
  <defs
     id="defs5221">
    <inkscape:path-effect
       effect="bspline"
       id="path-effect5420"
       is_visible="true"
       lpeversion="1"
       weight="33.333333"
       steps="2"
       helper_size="0"
       apply_no_weight="true"
       apply_with_weight="true"
       only_selected="false" />
  </defs>
  <g
     inkscape:label="Calque 1"
     inkscape:groupmode="layer"
     id="layer1">
    <g
       id="g31123"
       transform="matrix(2.0363137,0,0,2.0363021,-481.20589,-2484.5531)">
      <path
         fill="url(#BiF7D16UlC0RZ_VqXJHnXa)"
         d="m 246.8956,1225.4216 c 0,2.9223 -2.36935,5.2917 -5.29167,5.2917 -2.92232,0 -5.29167,-2.3694 -5.29167,-5.2917 0,-2.9223 2.36935,-5.2917 5.29167,-5.2917 2.92232,0 5.29167,2.3694 5.29167,5.2917 z"
         id="path7"
         style="fill:#000000;fill-opacity:1;stroke-width:0.264583" />
      <path
         fill="#ffffff"
         d="m 238.31066,1225.3467 c 1.84944,-0.8136 4.24259,-1.8055 4.57306,-1.9428 0.86651,-0.3593 1.13242,-0.2905 0.99986,0.5053 -0.0953,0.5721 -0.36989,2.4657 -0.58896,3.6444 -0.12991,0.699 -0.42148,0.7819 -0.87974,0.4794 -0.2204,-0.1455 -1.33297,-0.8813 -1.57454,-1.0541 -0.2204,-0.1574 -0.5244,-0.3468 -0.14314,-0.7199 0.13573,-0.1328 1.025,-0.9821 1.71794,-1.6431 0.0908,-0.087 -0.0233,-0.2294 -0.12806,-0.1598 -0.93398,0.6194 -2.22885,1.4791 -2.39368,1.591 -0.24897,0.169 -0.48816,0.2466 -0.91731,0.1233 -0.32438,-0.093 -0.64109,-0.2043 -0.76438,-0.2466 -0.47493,-0.163 -0.36222,-0.3741 0.099,-0.5771 z"
         id="path13"
         style="fill:#fffffc;fill-opacity:1;stroke-width:0.264583" />
    </g>
  </g>
</svg>
