<?xml version="1.0" encoding="UTF-8" standalone="no"?>
<!-- Created with Inkscape (http://www.inkscape.org/) -->

<svg
   width="269.23099"
   height="269.23099"
   viewBox="0 0 71.23403 71.234032"
   version="1.1"
   id="svg5"
   xml:space="preserve"
   inkscape:version="1.2.1 (9c6d41e410, 2022-07-14)"
   sodipodi:docname="light_mode_icon.svg"
   xmlns:inkscape="http://www.inkscape.org/namespaces/inkscape"
   xmlns:sodipodi="http://sodipodi.sourceforge.net/DTD/sodipodi-0.dtd"
   xmlns="http://www.w3.org/2000/svg"
   xmlns:svg="http://www.w3.org/2000/svg"><sodipodi:namedview
     id="namedview7"
     pagecolor="#505050"
     bordercolor="#eeeeee"
     borderopacity="1"
     inkscape:showpageshadow="0"
     inkscape:pageopacity="0"
     inkscape:pagecheckerboard="0"
     inkscape:deskcolor="#505050"
     inkscape:document-units="mm"
     showgrid="false"
     inkscape:zoom="1.3026915"
     inkscape:cx="236.43357"
     inkscape:cy="170.41641"
     inkscape:window-width="1366"
     inkscape:window-height="697"
     inkscape:window-x="-8"
     inkscape:window-y="-8"
     inkscape:window-maximized="1"
     inkscape:current-layer="g6317" /><defs
     id="defs2"><inkscape:path-effect
       effect="bspline"
       id="path-effect4798"
       is_visible="true"
       lpeversion="1"
       weight="33.333333"
       steps="2"
       helper_size="0"
       apply_no_weight="true"
       apply_with_weight="true"
       only_selected="false" /><inkscape:path-effect
       effect="bspline"
       id="path-effect4779"
       is_visible="true"
       lpeversion="1"
       weight="33.333333"
       steps="2"
       helper_size="0"
       apply_no_weight="true"
       apply_with_weight="true"
       only_selected="false" /><inkscape:path-effect
       effect="bspline"
       id="path-effect2429"
       is_visible="true"
       lpeversion="1"
       weight="33.333333"
       steps="2"
       helper_size="0"
       apply_no_weight="true"
       apply_with_weight="true"
       only_selected="false" /></defs><g
     inkscape:label="Calque 1"
     inkscape:groupmode="layer"
     id="layer1"><g
       id="g4805"
       transform="matrix(1.000003,0,0,0.99829651,-18.889098,-61.880009)"
       style="fill:#000000"><g
         id="g6317"
         transform="translate(32.744582,-51.214904)"><g
           id="g6325"
           transform="translate(-88.167182,-10.959959)"><ellipse
             style="fill:#831ecc;fill-opacity:1;stroke:#000000;stroke-width:0;stroke-linecap:round;stroke-dasharray:none;stroke-opacity:1"
             id="path5344"
             cx="109.92855"
             cy="159.83826"
             rx="35.616913"
             ry="35.677795" /><g
             id="g5290"
             transform="translate(35.971777,-32.679196)"
             style="fill:#ffffff"><g
               id="g5829"
               transform="translate(-51.588551,13.02091)"><path
                 id="path3753"
                 style="fill:#ffffff;stroke:#ffffff;stroke-width:0"
                 inkscape:transform-center-x="-0.23937594"
                 inkscape:transform-center-y="0.12034444"
                 d="m 119.13511,198.61819 2.46889,-0.16105 1.53233,1.94251 0.60976,-2.39783 2.32095,-0.85706 -2.09204,-1.32088 -0.0979,-2.4722 -1.90272,1.58147 -2.38145,-0.67085 0.9161,2.29829 z m 27.27765,-23.40957 -2.46889,-0.16106 -1.53233,1.94251 -0.60976,-2.39782 -2.32095,-0.85706 2.09204,-1.32089 0.0979,-2.4722 1.90271,1.58148 2.38146,-0.67085 -0.9161,2.29829 z M 136.221,178.9466 a 9.4069138,9.4069138 0 0 0 -9.40717,9.40718 9.4069138,9.4069138 0 0 0 9.40717,9.40666 9.4069138,9.4069138 0 0 0 9.40666,-9.40666 9.4069138,9.4069138 0 0 0 -0.0822,-1.23765 5.9999995,5.9999995 0 0 1 -5.40742,3.39979 5.9999995,5.9999995 0 0 1 -5.99964,-6.00015 5.9999995,5.9999995 0 0 1 3.51813,-5.45858 9.4069138,9.4069138 0 0 0 -1.43557,-0.11059 z" /><path
                 id="path4790"
                 style="fill:#ffffff;fill-opacity:1;stroke:#ffffff;stroke-width:0;stroke-dasharray:none"
                 d="m 114.22935,182.34832 -1.783,-1.66748 -3.09001,3.30396 c -0.46199,0.4939 -0.4362,1.26329 0.0578,1.72522 0.49396,0.46192 1.26327,0.4362 1.7252,-0.0577 z m -3.83397,-6.60979 0.0517,-2.44066 -4.52273,-0.0959 c -0.67614,-0.0144 -1.23187,0.51832 -1.24618,1.19447 -0.0143,0.67613 0.51832,1.23186 1.19446,1.24617 z m 2.18497,-7.71069 1.71244,-1.73983 -3.22405,-3.17329 c -0.48199,-0.4744 -1.25174,-0.46829 -1.72613,0.0137 -0.47441,0.48199 -0.4683,1.25174 0.0137,1.72614 z m 7.15273,-3.65852 2.4403,-0.0664 -0.1231,-4.52207 c -0.0184,-0.67604 -0.57732,-1.20534 -1.25334,-1.18695 -0.67604,0.0184 -1.20534,0.57732 -1.18693,1.25336 z m 7.33336,2.06919 1.70671,1.74546 3.23447,-3.16267 c 0.48355,-0.47281 0.49219,-1.24254 0.0194,-1.72608 -0.47281,-0.48355 -1.24254,-0.49219 -1.72608,-0.0194 z m 0.37267,3.40942 a 8.2579775,8.2579775 0 0 0 -6.87245,-3.68298 8.2579775,8.2579775 0 0 0 -8.25789,8.2579 8.2579775,8.2579775 0 0 0 3.69435,6.86108 z" /><path
                 style="fill:#ffffff;fill-opacity:1;stroke:#ffffff;stroke-width:1;stroke-linecap:round;stroke-dasharray:none;stroke-opacity:1"
                 d="m 105.84574,198.04788 c 0,0 38.34575,-38.34575 38.34575,-38.34575"
                 id="path4796"
                 inkscape:original-d="m 105.84574,198.04788 38.34575,-38.34575"
                 inkscape:path-effect="#path-effect4798" /></g></g></g></g></g></g></svg>
