<?xml version="1.0" encoding="UTF-8" standalone="no"?>
<!-- Created with Inkscape (http://www.inkscape.org/) -->

<svg
   width="372.431"
   height="153.34599"
   viewBox="0 0 98.539033 40.572794"
   version="1.1"
   id="svg3797"
   inkscape:version="1.2.1 (9c6d41e410, 2022-07-14)"
   sodipodi:docname="logo-1.svg"
   xmlns:inkscape="http://www.inkscape.org/namespaces/inkscape"
   xmlns:sodipodi="http://sodipodi.sourceforge.net/DTD/sodipodi-0.dtd"
   xmlns="http://www.w3.org/2000/svg"
   xmlns:svg="http://www.w3.org/2000/svg">
  <sodipodi:namedview
     id="namedview3799"
     pagecolor="#505050"
     bordercolor="#eeeeee"
     borderopacity="1"
     inkscape:showpageshadow="0"
     inkscape:pageopacity="0"
     inkscape:pagecheckerboard="0"
     inkscape:deskcolor="#505050"
     inkscape:document-units="mm"
     showgrid="false"
     inkscape:zoom="0.92114197"
     inkscape:cx="374.5351"
     inkscape:cy="39.081923"
     inkscape:window-width="1366"
     inkscape:window-height="697"
     inkscape:window-x="-8"
     inkscape:window-y="-8"
     inkscape:window-maximized="1"
     inkscape:current-layer="layer1" />
  <defs
     id="defs3794" />
  <g
     inkscape:label="Calque 1"
     inkscape:groupmode="layer"
     id="layer1">
    <g
       id="g493"
       transform="matrix(0.35368002,0,0,0.35368002,-378.80559,138.18257)">
      <g
         id="g491"
         transform="translate(70.303571)">
        <g
           id="g489"
           transform="translate(3.7797619,-6.047619)">
          <g
             id="g506"
             transform="matrix(0.5304095,0,0,0.5304095,772.80426,-157.48293)">
            <text
               xml:space="preserve"
               style="font-style:normal;font-variant:normal;font-weight:normal;font-stretch:normal;font-size:93.8387px;line-height:1.25;font-family:Ubiquitous;-inkscape-font-specification:Ubiquitous;stroke-width:2.34598"
               x="660.63458"
               y="-283.49463"
               id="text481"><tspan
                 sodipodi:role="line"
                 id="tspan479"
                 x="660.63458"
                 y="-283.49463"
                 style="font-style:normal;font-variant:normal;font-weight:normal;font-stretch:normal;font-family:Ubiquitous;-inkscape-font-specification:Ubiquitous;stroke-width:2.34598">Marte</tspan></text>
            <g
               id="g498"
               transform="translate(-74.835468,-9.621703)">
              <ellipse
                 style="fill:#fe5f4a;fill-opacity:1;stroke:#0000ff;stroke-width:0"
                 id="ellipse483"
                 cx="607.93103"
                 cy="-310.5285"
                 rx="110.27734"
                 ry="108.13918" />
              <path
                 id="path485"
                 style="fill:#ef4f42;fill-opacity:1;stroke:#0000ff;stroke-width:0"
                 d="m 607.69354,-418.66795 a 110.27734,108.13918 0 0 0 -110.04031,108.13912 110.27734,108.13918 0 0 0 98.0033,107.46736 109.89937,116.83262 0 0 1 -20.89639,-68.53587 109.89937,116.83262 0 0 1 109.65683,-116.83215 110.27734,108.13918 0 0 0 -76.48626,-30.23846 110.27734,108.13918 0 0 0 -0.23717,0 z" />
              <path
                 style="fill:#d7372b;fill-opacity:1;stroke-width:0.264583"
                 d="m 563.14696,-212.63482 c -0.87312,-0.11517 -1.88515,-0.31413 -2.24895,-0.44214 -1.25378,-0.44118 -5.82726,-3.05102 -5.70193,-3.2538 0.17709,-0.28655 3.54507,-1.23804 6.36339,-1.79773 2.10301,-0.41764 3.4942,-0.45831 11.90624,-0.34808 5.23875,0.0686 13.335,0.12363 17.99167,0.12218 9.59753,-0.003 12.22099,-0.30566 18.39862,-2.12282 1.81347,-0.53343 3.74109,-1.09764 4.28361,-1.25379 1.36712,-0.39348 2.3411,-0.007 2.91067,1.15556 0.56404,1.15106 0.2478,2.63954 -0.75902,3.57263 -0.91828,0.85103 -4.43882,2.63612 -6.20614,3.14681 -2.72219,0.78662 -12.34293,1.22259 -29.34336,1.32971 -8.80401,0.0555 -16.72167,0.007 -17.5948,-0.10853 z m 64.82292,-37.21219 c -0.43656,-0.0398 -4.00844,-0.20766 -7.9375,-0.37296 -7.12361,-0.29971 -10.25822,-0.70596 -11.45586,-1.48467 -1.03579,-0.67347 -1.63894,-1.95474 -1.64003,-3.48388 -0.001,-1.73991 0.43944,-2.81367 1.97222,-4.80564 0.66099,-0.859 1.2018,-1.67207 1.2018,-1.80683 0,-0.13475 -1.9943,-0.44945 -4.43178,-0.69934 -7.40623,-0.75929 -12.34149,-1.94643 -13.94509,-3.35441 -1.8084,-1.58781 -1.74635,-3.96394 0.12376,-4.73857 0.73927,-0.30621 1.16764,-0.29421 3.00911,0.0843 2.56938,0.52815 8.54406,1.29246 15.244,1.95009 6.12978,0.60167 27.36055,0.69211 32.94065,0.14032 11.66253,-1.15325 26.12963,-3.04767 32.94333,-4.31383 1.672,-0.3107 3.3784,-0.56806 3.792,-0.57191 1.0514,-0.01 2.3789,1.3523 2.3789,2.44091 0,2.03061 -2.3466,3.44749 -6.835,4.12689 -4.1869,0.63375 -4.6799,0.79238 -5.6845,1.82888 l -0.9034,0.93207 0.9643,0.99127 c 2.355,2.42067 2.6902,5.62794 0.8635,8.26374 -0.9162,1.32206 -2.1222,1.93589 -5.691,2.89642 -2.6945,0.72523 -3.8147,0.86377 -9.7896,1.21068 -3.7108,0.21546 -7.9375,0.50833 -9.39273,0.65082 -2.315,0.22668 -15.5624,0.31309 -17.72708,0.11564 z m -89.13178,-19.85511 c -1.76701,-0.54262 -3.01901,-1.38106 -4.4667,-2.99123 -2.59675,-2.88821 -3.16197,-6.87243 -1.57354,-11.0918 1.53021,-4.0647 3.20747,-6.15417 6.00744,-7.48382 4.13047,-1.96147 8.63694,-0.14921 10.84102,4.35968 1.31936,2.69904 1.84923,4.91711 1.84383,7.71833 -0.005,2.62902 -0.41931,3.88763 -2.00725,6.09881 -2.22735,3.10152 -6.8207,4.56436 -10.6448,3.39003 z m 94.13734,-30.2785 c -0.4484,-0.1302 -1.02468,-0.46812 -1.28064,-0.75095 -0.63529,-0.70199 -1.00709,-2.47574 -0.69243,-3.30336 0.43929,-1.15541 1.31797,-1.48686 4.66493,-1.75966 4.51352,-0.36788 6.39076,-0.73857 8.11936,-1.60325 1.8929,-0.94691 2.91193,-0.97811 3.77443,-0.11556 0.8714,0.87143 0.9769,2.87346 0.214,4.06351 -0.5347,0.83407 -2.59053,2.10001 -4.19483,2.58311 -3.1021,0.93413 -8.79988,1.41024 -10.60482,0.88616 z m -38.34306,-0.13349 c -5.29721,-0.73384 -6.8311,-1.22585 -7.94361,-2.54799 -0.8974,-1.0665 -0.85608,-2.16572 0.11805,-3.13984 0.8924,-0.8924 1.43635,-0.94205 3.76929,-0.34403 1.28404,0.32915 2.44701,0.39832 4.98231,0.29635 5.14335,-0.20686 7.80247,-1.22222 14.65086,-5.59429 2.00756,-1.28165 4.51512,-2.72993 5.57234,-3.2184 3.80564,-1.75831 9.18833,-2.93628 12.3667,-2.70638 2.51201,0.1817 3.30248,1.39958 2.58508,3.98283 -0.37404,1.34688 -1.02952,1.70491 -4.24201,2.31704 -1.51045,0.28782 -3.33415,0.71856 -4.05266,0.95721 -1.26764,0.42104 -8.37276,3.85128 -14.84177,7.16537 -1.74625,0.8946 -4.06797,1.87662 -5.15937,2.18225 -1.91206,0.53545 -6.10885,0.88488 -7.80521,0.64988 z m -41.80416,-1.45318 c -1.45521,-0.11457 -4.43178,-0.62384 -6.61459,-1.13173 -2.18281,-0.50788 -4.62359,-1.00606 -5.42396,-1.10706 -2.01653,-0.25447 -13.00147,-2.51941 -19.84375,-4.0915 -3.12869,-0.71886 -7.65307,-1.7393 -10.05416,-2.26766 -12.836,-2.82453 -12.49268,-2.72689 -13.15784,-3.74205 -0.36779,-0.56133 -0.37998,-1.047 -0.10352,-4.1266 0.17234,-1.91973 0.37601,-3.91557 0.4526,-4.43522 l 0.13926,-0.94481 4.8134,1.27326 c 15.09158,3.99212 36.70783,8.31359 50.05714,10.00731 5.5681,0.70646 6.4543,1.07498 7.90903,3.28886 1.68101,2.55825 1.59548,4.59424 -0.26149,6.22469 -1.52218,1.33649 -2.55677,1.47412 -7.91212,1.05251 z m 118.79797,-3.14525 c -0.7421,-0.30896 -1.8979,-1.59072 -2.2321,-2.47533 -0.9399,-2.48746 0.7822,-5.2083 3.2964,-5.2083 1.177,0 3.0736,1.05343 3.7622,2.08965 1.6283,2.4502 -0.2048,5.87276 -3.1231,5.83108 -0.6458,-0.009 -1.4124,-0.11592 -1.7034,-0.2371 z m -19.9761,-17.7825 c -1.0146,-0.68043 -2.12,-2.59149 -2.1108,-3.64938 0.018,-2.04311 1.7235,-3.78641 3.7051,-3.78641 2.2035,0 3.9663,1.59 4.151,3.74398 0.1951,2.27491 -1.2452,3.97985 -3.5428,4.19391 -1.0274,0.0957 -1.4571,-0.002 -2.2025,-0.5021 z M 545.95653,-333.845 c -3.08194,-0.51525 -5.96612,-2.11507 -8.28816,-4.59734 -4.03798,-4.31662 -4.95999,-9.65502 -2.8167,-16.3086 1.7953,-5.57327 3.32972,-8.25656 6.58028,-11.50712 4.4789,-4.47889 9.6571,-6.72769 15.49155,-6.72769 4.8832,0 7.36455,0.9935 10.62785,4.25527 1.50958,1.50887 2.25831,2.51832 2.94962,3.97668 1.5454,3.26015 1.89603,5.08416 1.90155,9.892 0.004,3.81221 -0.0584,4.40866 -0.63108,5.99576 -1.92135,5.32475 -7.46132,9.9837 -15.92263,13.39043 -4.57977,1.84393 -6.61232,2.17897 -9.89228,1.63061 z m 100.93106,-19.56296 c -3.61813,-0.61908 -4.73203,-1.37887 -5.57343,-3.80168 -0.8002,-2.30448 -0.2677,-4.11739 1.5659,-5.33083 0.8651,-0.5725 1.8298,-0.77658 6.93803,-1.46767 12.0148,-1.62553 28.9692,-4.89223 42.6504,-8.2177 3.6794,-0.89434 4.5082,-1.02055 4.8484,-0.73821 0.2257,0.1873 1.2051,1.52493 2.1765,2.9725 4.0435,6.02573 3.6943,5.33278 3.0471,6.04795 -0.8807,0.97315 -5.1304,2.00525 -15.0393,3.65247 -5.3843,0.89507 -12.3494,2.1608 -15.4781,2.81274 -3.1287,0.65194 -7.9508,1.60123 -10.7156,2.10954 -2.7649,0.5083 -5.682,1.089 -6.4824,1.29045 -3.3561,0.84471 -5.7414,1.04619 -7.9375,0.67044 z m -56.3773,-16.155 c -2.44322,-0.38518 -4.7303,-2.15846 -5.7795,-4.48113 -1.15673,-2.5607 -0.49018,-6.39816 1.56122,-8.98826 1.87623,-2.36894 5.58552,-3.22532 8.17188,-1.88668 1.49995,0.77634 3.26917,2.61156 4.04335,4.19421 0.8751,1.78894 1.00524,4.84887 0.27632,6.49672 -1.4619,3.30487 -4.83542,5.20713 -8.27327,4.66514 z"
                 id="path487" />
            </g>
          </g>
        </g>
      </g>
    </g>
  </g>
</svg>
