<?xml version="1.0" encoding="UTF-8" standalone="no"?>
<svg
   xmlns:dc="http://purl.org/dc/elements/1.1/"
   xmlns:cc="http://creativecommons.org/ns#"
   xmlns:rdf="http://www.w3.org/1999/02/22-rdf-syntax-ns#"
   xmlns:svg="http://www.w3.org/2000/svg"
   xmlns="http://www.w3.org/2000/svg"
   xmlns:sodipodi="http://sodipodi.sourceforge.net/DTD/sodipodi-0.dtd"
   xmlns:inkscape="http://www.inkscape.org/namespaces/inkscape"
   width="52.362999"
   height="52.404999"
   viewBox="0 0 13.854376 13.865492"
   version="1.1"
   id="svg8"
   inkscape:version="1.0.2-2 (e86c870879, 2021-01-15)"
   sodipodi:docname="binancelogo.svg">
  <defs
     id="defs2">
    <clipPath
       clipPathUnits="userSpaceOnUse"
       id="clipPath106">
      <path
         d="m 756.427,285.166 -9.779,-24.891 -9.83,24.891 h -2.351 l -0.003,-10e-4 11.034,-27.243 h 2.248 l 10.981,27.244 z"
         id="path104" />
    </clipPath>
    <clipPath
       clipPathUnits="userSpaceOnUse"
       id="clipPath128">
      <path
         d="m 763.695,271.517 c 0,-8.001 5.596,-13.648 13.282,-13.648 v 0 c 4.341,0 8.054,1.621 10.564,4.341 v 0 l -1.256,1.412 c -2.195,-2.406 -5.49,-3.767 -9.203,-3.767 v 0 c -6.327,0 -10.929,4.447 -11.242,11.086 v 0 h 23.793 c 0.156,8.42 -4.655,14.277 -12.656,14.277 v 0 c -7.686,0 -13.282,-5.701 -13.282,-13.701 m 13.282,11.715 c 6.223,0 10.25,-4.184 10.668,-10.355 v 0 h -21.754 c 0.524,6.171 4.968,10.355 11.086,10.355"
         id="path126" />
    </clipPath>
    <clipPath
       clipPathUnits="userSpaceOnUse"
       id="clipPath150">
      <path
         d="m 802.916,278.211 v 6.955 h -2.198 v -27.242 l 0.001,-0.002 h 2.197 v 14.746 c 0.471,6.274 4.34,10.198 10.616,10.352 v 0 c 5.594,0 8.889,-3.294 8.889,-8.887 v 0 -16.211 h 2.195 10e-4 v 16.627 c 0,6.642 -3.922,10.669 -10.562,10.669 v 0 c -5.44,-0.103 -9.309,-2.51 -11.139,-7.007"
         id="path148" />
    </clipPath>
    <clipPath
       clipPathUnits="userSpaceOnUse"
       id="clipPath172">
      <path
         d="m 834.971,271.517 c 0,-8.001 5.597,-13.648 13.283,-13.648 v 0 c 4.339,0 8.053,1.621 10.563,4.341 v 0 l -1.255,1.412 c -2.196,-2.406 -5.492,-3.767 -9.204,-3.767 v 0 c -6.327,0 -10.929,4.447 -11.242,11.086 v 0 h 23.793 c 0.156,8.42 -4.654,14.277 -12.655,14.277 v 0 c -7.686,0 -13.283,-5.701 -13.283,-13.701 m 13.283,11.715 c 6.222,0 10.249,-4.184 10.667,-10.355 v 0 h -21.754 c 0.524,6.171 4.967,10.355 11.087,10.355"
         id="path170" />
    </clipPath>
    <clipPath
       clipPathUnits="userSpaceOnUse"
       id="clipPath194">
      <path
         d="m 869.591,283.126 h 18.144 L 869.12,259.909 v -1.987 l 21.439,-0.053 v 1.986 l -18.982,0.054 18.617,23.217 v 1.989 l -20.603,0.051 z"
         id="path192" />
    </clipPath>
    <clipPath
       clipPathUnits="userSpaceOnUse"
       id="clipPath216">
      <path
         d="m 922.249,285.166 v -13.335 c 0,-7.111 -3.87,-11.61 -10.459,-11.765 v 0 c -5.49,0 -8.733,3.296 -8.733,8.889 v 0 16.211 h -2.143 v -16.628 c 0,-6.696 3.816,-10.669 10.404,-10.669 v 0 c 5.388,0.053 9.206,2.614 10.931,7.32 v 0 -7.267 h 2.144 v 27.244 z"
         id="path214" />
    </clipPath>
    <clipPath
       clipPathUnits="userSpaceOnUse"
       id="clipPath238">
      <path
         d="m 935.689,271.517 c 0,-8.001 5.595,-13.648 13.282,-13.648 v 0 c 4.341,0 8.052,1.621 10.563,4.341 v 0 l -1.254,1.412 c -2.197,-2.406 -5.492,-3.767 -9.205,-3.767 v 0 c -6.327,0 -10.929,4.447 -11.242,11.086 v 0 h 23.792 c 0.157,8.42 -4.653,14.277 -12.654,14.277 v 0 c -7.687,0 -13.282,-5.701 -13.282,-13.701 m 13.282,11.715 c 6.222,0 10.248,-4.184 10.668,-10.355 v 0 h -21.754 c 0.524,6.171 4.968,10.355 11.086,10.355"
         id="path236" />
    </clipPath>
    <clipPath
       clipPathUnits="userSpaceOnUse"
       id="clipPath260">
      <path
         d="m 972.974,296.723 v 0 -38.8 -10e-4 h 2.196 v 0 38.8 0.001 z"
         id="path258" />
    </clipPath>
    <clipPath
       clipPathUnits="userSpaceOnUse"
       id="clipPath282">
      <path
         d="m 988.661,281.349 1.046,-1.673 c 2.876,2.195 5.752,3.556 9.151,3.556 v 0 c 5.439,0 8.104,-2.772 8.158,-7.375 v 0 -2.667 h -9.676 c -6.274,0 -10.142,-2.77 -10.142,-7.32 v 0 c 0,-4.603 3.607,-8.001 8.993,-8.001 v 0 c 4.706,0 8.575,1.674 10.877,5.439 v 0 l 0.052,-5.386 h 2.144 l -0.105,18.093 c -0.052,5.647 -3.556,9.203 -9.987,9.203 v 0 c -4.131,0 -7.268,-1.515 -10.511,-3.869 m 0.628,-15.426 c 0,3.503 2.928,5.332 8.262,5.332 v 0 h 9.517 v -4.445 c -1.673,-4.757 -5.491,-6.955 -10.564,-6.955 v 0 c -4.444,0 -7.215,2.458 -7.215,6.068"
         id="path280" />
    </clipPath>
    <clipPath
       clipPathUnits="userSpaceOnUse"
       id="clipPath106-8">
      <path
         d="m 756.427,285.166 -9.779,-24.891 -9.83,24.891 h -2.351 l -0.003,-10e-4 11.034,-27.243 h 2.248 l 10.981,27.244 z"
         id="path104-44" />
    </clipPath>
    <clipPath
       clipPathUnits="userSpaceOnUse"
       id="clipPath128-2">
      <path
         d="m 763.695,271.517 c 0,-8.001 5.596,-13.648 13.282,-13.648 v 0 c 4.341,0 8.054,1.621 10.564,4.341 v 0 l -1.256,1.412 c -2.195,-2.406 -5.49,-3.767 -9.203,-3.767 v 0 c -6.327,0 -10.929,4.447 -11.242,11.086 v 0 h 23.793 c 0.156,8.42 -4.655,14.277 -12.656,14.277 v 0 c -7.686,0 -13.282,-5.701 -13.282,-13.701 m 13.282,11.715 c 6.223,0 10.25,-4.184 10.668,-10.355 v 0 h -21.754 c 0.524,6.171 4.968,10.355 11.086,10.355"
         id="path126-7" />
    </clipPath>
    <clipPath
       clipPathUnits="userSpaceOnUse"
       id="clipPath150-8">
      <path
         d="m 802.916,278.211 v 6.955 h -2.198 v -27.242 l 0.001,-0.002 h 2.197 v 14.746 c 0.471,6.274 4.34,10.198 10.616,10.352 v 0 c 5.594,0 8.889,-3.294 8.889,-8.887 v 0 -16.211 h 2.195 10e-4 v 16.627 c 0,6.642 -3.922,10.669 -10.562,10.669 v 0 c -5.44,-0.103 -9.309,-2.51 -11.139,-7.007"
         id="path148-1" />
    </clipPath>
    <clipPath
       clipPathUnits="userSpaceOnUse"
       id="clipPath172-3">
      <path
         d="m 834.971,271.517 c 0,-8.001 5.597,-13.648 13.283,-13.648 v 0 c 4.339,0 8.053,1.621 10.563,4.341 v 0 l -1.255,1.412 c -2.196,-2.406 -5.492,-3.767 -9.204,-3.767 v 0 c -6.327,0 -10.929,4.447 -11.242,11.086 v 0 h 23.793 c 0.156,8.42 -4.654,14.277 -12.655,14.277 v 0 c -7.686,0 -13.283,-5.701 -13.283,-13.701 m 13.283,11.715 c 6.222,0 10.249,-4.184 10.667,-10.355 v 0 h -21.754 c 0.524,6.171 4.967,10.355 11.087,10.355"
         id="path170-1" />
    </clipPath>
    <clipPath
       clipPathUnits="userSpaceOnUse"
       id="clipPath194-1">
      <path
         d="m 869.591,283.126 h 18.144 L 869.12,259.909 v -1.987 l 21.439,-0.053 v 1.986 l -18.982,0.054 18.617,23.217 v 1.989 l -20.603,0.051 z"
         id="path192-0" />
    </clipPath>
    <clipPath
       clipPathUnits="userSpaceOnUse"
       id="clipPath216-2">
      <path
         d="m 922.249,285.166 v -13.335 c 0,-7.111 -3.87,-11.61 -10.459,-11.765 v 0 c -5.49,0 -8.733,3.296 -8.733,8.889 v 0 16.211 h -2.143 v -16.628 c 0,-6.696 3.816,-10.669 10.404,-10.669 v 0 c 5.388,0.053 9.206,2.614 10.931,7.32 v 0 -7.267 h 2.144 v 27.244 z"
         id="path214-9" />
    </clipPath>
    <clipPath
       clipPathUnits="userSpaceOnUse"
       id="clipPath238-8">
      <path
         d="m 935.689,271.517 c 0,-8.001 5.595,-13.648 13.282,-13.648 v 0 c 4.341,0 8.052,1.621 10.563,4.341 v 0 l -1.254,1.412 c -2.197,-2.406 -5.492,-3.767 -9.205,-3.767 v 0 c -6.327,0 -10.929,4.447 -11.242,11.086 v 0 h 23.792 c 0.157,8.42 -4.653,14.277 -12.654,14.277 v 0 c -7.687,0 -13.282,-5.701 -13.282,-13.701 m 13.282,11.715 c 6.222,0 10.248,-4.184 10.668,-10.355 v 0 h -21.754 c 0.524,6.171 4.968,10.355 11.086,10.355"
         id="path236-7" />
    </clipPath>
    <clipPath
       clipPathUnits="userSpaceOnUse"
       id="clipPath260-0">
      <path
         d="m 972.974,296.723 v 0 -38.8 -10e-4 h 2.196 v 0 38.8 0.001 z"
         id="path258-0" />
    </clipPath>
    <clipPath
       clipPathUnits="userSpaceOnUse"
       id="clipPath282-1">
      <path
         d="m 988.661,281.349 1.046,-1.673 c 2.876,2.195 5.752,3.556 9.151,3.556 v 0 c 5.439,0 8.104,-2.772 8.158,-7.375 v 0 -2.667 h -9.676 c -6.274,0 -10.142,-2.77 -10.142,-7.32 v 0 c 0,-4.603 3.607,-8.001 8.993,-8.001 v 0 c 4.706,0 8.575,1.674 10.877,5.439 v 0 l 0.052,-5.386 h 2.144 l -0.105,18.093 c -0.052,5.647 -3.556,9.203 -9.987,9.203 v 0 c -4.131,0 -7.268,-1.515 -10.511,-3.869 m 0.628,-15.426 c 0,3.503 2.928,5.332 8.262,5.332 v 0 h 9.517 v -4.445 c -1.673,-4.757 -5.491,-6.955 -10.564,-6.955 v 0 c -4.444,0 -7.215,2.458 -7.215,6.068"
         id="path280-7" />
    </clipPath>
    <linearGradient
       id="SVGID_1_"
       gradientUnits="userSpaceOnUse"
       x1="207.8929"
       y1="111.3549"
       x2="207.8929"
       y2="0.565">
      <stop
         offset="3.720238e-04"
         style="stop-color:#65BB99"
         id="stop4-8" />
      <stop
         offset="0.9996"
         style="stop-color:#52967C"
         id="stop6-4" />
    </linearGradient>
    <linearGradient
       id="SVGID_2_"
       gradientUnits="userSpaceOnUse"
       x1="223.8437"
       y1="207.10921"
       x2="223.8437"
       y2="89.384804">
      <stop
         offset="3.720238e-04"
         style="stop-color:#65BB99"
         id="stop11" />
      <stop
         offset="0.9996"
         style="stop-color:#52967C"
         id="stop13" />
    </linearGradient>
    <linearGradient
       id="SVGID_3_"
       gradientUnits="userSpaceOnUse"
       x1="225.6618"
       y1="302.91971"
       x2="225.6618"
       y2="171.4874">
      <stop
         offset="3.720238e-04"
         style="stop-color:#65BB99"
         id="stop18" />
      <stop
         offset="0.9996"
         style="stop-color:#52967C"
         id="stop20" />
    </linearGradient>
    <linearGradient
       id="SVGID_4_"
       gradientUnits="userSpaceOnUse"
       x1="162.3455"
       y1="350.435"
       x2="162.3455"
       y2="302.91971">
      <stop
         offset="3.720238e-04"
         style="stop-color:#65BB99"
         id="stop25" />
      <stop
         offset="0.9996"
         style="stop-color:#52967C"
         id="stop27" />
    </linearGradient>
    <linearGradient
       id="SVGID_5_"
       gradientUnits="userSpaceOnUse"
       x1="-82.253304"
       y1="265.7471"
       x2="-81.623802"
       y2="265.7471"
       gradientTransform="matrix(0.26458333,0,0,0.26458333,154.08072,478.70165)">
      <stop
         offset="3.720238e-04"
         style="stop-color:#193D60"
         id="stop36" />
      <stop
         offset="1"
         style="stop-color:#1D1C3A"
         id="stop38" />
    </linearGradient>
    <linearGradient
       id="SVGID_6_"
       gradientUnits="userSpaceOnUse"
       x1="-149.2728"
       y1="56.982201"
       x2="-148.4198"
       y2="56.982201"
       gradientTransform="matrix(0.26458333,0,0,0.26458333,154.08072,478.70165)">
      <stop
         offset="3.720238e-04"
         style="stop-color:#193D60"
         id="stop43" />
      <stop
         offset="1"
         style="stop-color:#1D1C3A"
         id="stop45" />
    </linearGradient>
    <linearGradient
       id="SVGID_7_"
       gradientUnits="userSpaceOnUse"
       x1="-128.5312"
       y1="56.1618"
       x2="-127.7502"
       y2="56.1618">
      <stop
         offset="3.720238e-04"
         style="stop-color:#193D60"
         id="stop50" />
      <stop
         offset="1"
         style="stop-color:#1D1C3A"
         id="stop52" />
    </linearGradient>
    <linearGradient
       id="SVGID_8_"
       gradientUnits="userSpaceOnUse"
       x1="-100.0455"
       y1="167.6996"
       x2="-99.496498"
       y2="167.6996">
      <stop
         offset="3.720238e-04"
         style="stop-color:#193D60"
         id="stop57" />
      <stop
         offset="1"
         style="stop-color:#1D1C3A"
         id="stop59" />
    </linearGradient>
    <linearGradient
       id="SVGID_9_"
       gradientUnits="userSpaceOnUse"
       x1="-162.3445"
       y1="171.1181"
       x2="-161.4545"
       y2="171.1181">
      <stop
         offset="3.720238e-04"
         style="stop-color:#193D60"
         id="stop66" />
      <stop
         offset="1"
         style="stop-color:#1D1C3A"
         id="stop68" />
    </linearGradient>
    <linearGradient
       id="SVGID_10_"
       gradientUnits="userSpaceOnUse"
       x1="-107.0091"
       y1="265.8671"
       x2="-106.2758"
       y2="265.8671">
      <stop
         offset="3.720238e-04"
         style="stop-color:#193D60"
         id="stop73" />
      <stop
         offset="1"
         style="stop-color:#1D1C3A"
         id="stop75" />
    </linearGradient>
  </defs>
  <sodipodi:namedview
     id="base"
     pagecolor="#ffffff"
     bordercolor="#666666"
     borderopacity="1.0"
     inkscape:pageopacity="0.0"
     inkscape:pageshadow="2"
     inkscape:zoom="3.959798"
     inkscape:cx="147.83211"
     inkscape:cy="12.784478"
     inkscape:document-units="mm"
     inkscape:current-layer="layer1"
     inkscape:document-rotation="0"
     showgrid="false"
     units="px"
     inkscape:window-width="1680"
     inkscape:window-height="987"
     inkscape:window-x="-8"
     inkscape:window-y="-8"
     inkscape:window-maximized="1" />
  <metadata
     id="metadata5">
    <rdf:RDF>
      <cc:Work
         rdf:about="">
        <dc:format>image/svg+xml</dc:format>
        <dc:type
           rdf:resource="http://purl.org/dc/dcmitype/StillImage" />
        <dc:title></dc:title>
      </cc:Work>
    </rdf:RDF>
  </metadata>
  <g
     inkscape:label="Calque 1"
     inkscape:groupmode="layer"
     id="layer1">
    <path
       style="fill:#f0b90b;fill-opacity:1;stroke-width:0.130804"
       d="m 4.7973634,11.7384 c -1.16827,-1.16987 -2.12412,-2.1617204 -2.12412,-2.2040904 0,-0.0424 0.3583,-0.38869 0.79623,-0.76958 l 0.79622,-0.69253 1.26629,1.26154 c 0.69646,0.6938404 1.32305,1.2615404 1.39241,1.2615404 0.0694,0 0.70135,-0.57306 1.40439,-1.2734704 l 1.27826,-1.27346 0.7843496,0.78434 0.78434,0.78435 -2.1271296,2.1242004 -2.12714,2.1242 z M 0.7779634,7.7189696 -5.6595599e-5,6.9327396 0.7779634,6.1465096 l 0.77803,-0.78622 0.78622,0.78622 0.78623,0.78623 -0.78623,0.78623 -0.78622,0.78623 z m 5.37405,0.0111 -0.76696,-0.77505 0.70067,-0.79601 c 0.38537,-0.4378 0.73356,-0.796 0.77377,-0.796 0.0402,0 0.4232,0.3538 0.85112,0.78622 l 0.77803,0.78623 -0.78483,0.78483 -0.78483,0.78483 z m 5.3519396,-0.0111 -0.77803,-0.78623 0.77803,-0.78623 0.77802,-0.78622 0.78623,0.78622 0.78623,0.78623 -0.78623,0.78623 -0.78623,0.78623 z m -8.0815196,-2.71823 -0.74689,-0.75476 2.1259,-2.12296 2.12589,-2.122969969822 2.12544,2.128379969822 2.1254396,2.12837 -0.78704,0.77883 -0.7870396,0.77884 -1.34221,-1.33764 -1.34221,-1.33764 -1.30325,1.30816 c -0.71679,0.71948 -1.33563,1.30815 -1.3752,1.30815 -0.0395,0 -0.40805,-0.33964 -0.81883,-0.75476 z"
       id="path1989" />
  </g>
</svg>
