<?xml version="1.0" encoding="UTF-8" standalone="no"?>
<svg
   xmlns:dc="http://purl.org/dc/elements/1.1/"
   xmlns:cc="http://creativecommons.org/ns#"
   xmlns:rdf="http://www.w3.org/1999/02/22-rdf-syntax-ns#"
   xmlns:svg="http://www.w3.org/2000/svg"
   xmlns="http://www.w3.org/2000/svg"
   xmlns:sodipodi="http://sodipodi.sourceforge.net/DTD/sodipodi-0.dtd"
   xmlns:inkscape="http://www.inkscape.org/namespaces/inkscape"
   width="287.51901mm"
   height="66.501999mm"
   viewBox="0 0 287.51901 66.501999"
   version="1.1"
   id="svg8"
   inkscape:version="1.0.2-2 (e86c870879, 2021-01-15)"
   sodipodi:docname="nano venezuela logo-full.svg">
  <defs
     id="defs2">
    <clipPath
       clipPathUnits="userSpaceOnUse"
       id="clipPath106">
      <path
         d="m 756.427,285.166 -9.779,-24.891 -9.83,24.891 h -2.351 l -0.003,-10e-4 11.034,-27.243 h 2.248 l 10.981,27.244 z"
         id="path104" />
    </clipPath>
    <clipPath
       clipPathUnits="userSpaceOnUse"
       id="clipPath128">
      <path
         d="m 763.695,271.517 c 0,-8.001 5.596,-13.648 13.282,-13.648 v 0 c 4.341,0 8.054,1.621 10.564,4.341 v 0 l -1.256,1.412 c -2.195,-2.406 -5.49,-3.767 -9.203,-3.767 v 0 c -6.327,0 -10.929,4.447 -11.242,11.086 v 0 h 23.793 c 0.156,8.42 -4.655,14.277 -12.656,14.277 v 0 c -7.686,0 -13.282,-5.701 -13.282,-13.701 m 13.282,11.715 c 6.223,0 10.25,-4.184 10.668,-10.355 v 0 h -21.754 c 0.524,6.171 4.968,10.355 11.086,10.355"
         id="path126" />
    </clipPath>
    <clipPath
       clipPathUnits="userSpaceOnUse"
       id="clipPath150">
      <path
         d="m 802.916,278.211 v 6.955 h -2.198 v -27.242 l 0.001,-0.002 h 2.197 v 14.746 c 0.471,6.274 4.34,10.198 10.616,10.352 v 0 c 5.594,0 8.889,-3.294 8.889,-8.887 v 0 -16.211 h 2.195 10e-4 v 16.627 c 0,6.642 -3.922,10.669 -10.562,10.669 v 0 c -5.44,-0.103 -9.309,-2.51 -11.139,-7.007"
         id="path148" />
    </clipPath>
    <clipPath
       clipPathUnits="userSpaceOnUse"
       id="clipPath172">
      <path
         d="m 834.971,271.517 c 0,-8.001 5.597,-13.648 13.283,-13.648 v 0 c 4.339,0 8.053,1.621 10.563,4.341 v 0 l -1.255,1.412 c -2.196,-2.406 -5.492,-3.767 -9.204,-3.767 v 0 c -6.327,0 -10.929,4.447 -11.242,11.086 v 0 h 23.793 c 0.156,8.42 -4.654,14.277 -12.655,14.277 v 0 c -7.686,0 -13.283,-5.701 -13.283,-13.701 m 13.283,11.715 c 6.222,0 10.249,-4.184 10.667,-10.355 v 0 h -21.754 c 0.524,6.171 4.967,10.355 11.087,10.355"
         id="path170" />
    </clipPath>
    <clipPath
       clipPathUnits="userSpaceOnUse"
       id="clipPath194">
      <path
         d="m 869.591,283.126 h 18.144 L 869.12,259.909 v -1.987 l 21.439,-0.053 v 1.986 l -18.982,0.054 18.617,23.217 v 1.989 l -20.603,0.051 z"
         id="path192" />
    </clipPath>
    <clipPath
       clipPathUnits="userSpaceOnUse"
       id="clipPath216">
      <path
         d="m 922.249,285.166 v -13.335 c 0,-7.111 -3.87,-11.61 -10.459,-11.765 v 0 c -5.49,0 -8.733,3.296 -8.733,8.889 v 0 16.211 h -2.143 v -16.628 c 0,-6.696 3.816,-10.669 10.404,-10.669 v 0 c 5.388,0.053 9.206,2.614 10.931,7.32 v 0 -7.267 h 2.144 v 27.244 z"
         id="path214" />
    </clipPath>
    <clipPath
       clipPathUnits="userSpaceOnUse"
       id="clipPath238">
      <path
         d="m 935.689,271.517 c 0,-8.001 5.595,-13.648 13.282,-13.648 v 0 c 4.341,0 8.052,1.621 10.563,4.341 v 0 l -1.254,1.412 c -2.197,-2.406 -5.492,-3.767 -9.205,-3.767 v 0 c -6.327,0 -10.929,4.447 -11.242,11.086 v 0 h 23.792 c 0.157,8.42 -4.653,14.277 -12.654,14.277 v 0 c -7.687,0 -13.282,-5.701 -13.282,-13.701 m 13.282,11.715 c 6.222,0 10.248,-4.184 10.668,-10.355 v 0 h -21.754 c 0.524,6.171 4.968,10.355 11.086,10.355"
         id="path236" />
    </clipPath>
    <clipPath
       clipPathUnits="userSpaceOnUse"
       id="clipPath260">
      <path
         d="m 972.974,296.723 v 0 -38.8 -10e-4 h 2.196 v 0 38.8 0.001 z"
         id="path258" />
    </clipPath>
    <clipPath
       clipPathUnits="userSpaceOnUse"
       id="clipPath282">
      <path
         d="m 988.661,281.349 1.046,-1.673 c 2.876,2.195 5.752,3.556 9.151,3.556 v 0 c 5.439,0 8.104,-2.772 8.158,-7.375 v 0 -2.667 h -9.676 c -6.274,0 -10.142,-2.77 -10.142,-7.32 v 0 c 0,-4.603 3.607,-8.001 8.993,-8.001 v 0 c 4.706,0 8.575,1.674 10.877,5.439 v 0 l 0.052,-5.386 h 2.144 l -0.105,18.093 c -0.052,5.647 -3.556,9.203 -9.987,9.203 v 0 c -4.131,0 -7.268,-1.515 -10.511,-3.869 m 0.628,-15.426 c 0,3.503 2.928,5.332 8.262,5.332 v 0 h 9.517 v -4.445 c -1.673,-4.757 -5.491,-6.955 -10.564,-6.955 v 0 c -4.444,0 -7.215,2.458 -7.215,6.068"
         id="path280" />
    </clipPath>
  </defs>
  <sodipodi:namedview
     id="base"
     pagecolor="#ffffff"
     bordercolor="#666666"
     borderopacity="1.0"
     inkscape:pageopacity="0.0"
     inkscape:pageshadow="2"
     inkscape:zoom="0.98994949"
     inkscape:cx="711.97104"
     inkscape:cy="95.924552"
     inkscape:document-units="mm"
     inkscape:current-layer="layer1"
     inkscape:document-rotation="0"
     showgrid="false"
     inkscape:window-width="1680"
     inkscape:window-height="987"
     inkscape:window-x="-8"
     inkscape:window-y="-8"
     inkscape:window-maximized="1" />
  <metadata
     id="metadata5">
    <rdf:RDF>
      <cc:Work
         rdf:about="">
        <dc:format>image/svg+xml</dc:format>
        <dc:type
           rdf:resource="http://purl.org/dc/dcmitype/StillImage" />
        <dc:title></dc:title>
      </cc:Work>
    </rdf:RDF>
  </metadata>
  <g
     inkscape:label="Calque 1"
     inkscape:groupmode="layer"
     id="layer1">
    <g
       id="g1290"
       transform="matrix(0.35277777,0,0,-0.35277777,-102.25175,267.29138)">
      <path
         d="M 434.71962,569.16712 H 419.6815 l -57.03249,86.72577 -57.88551,-86.72577 h -14.91635 l 64.90511,98.2571 -59.12873,90.25181 h 15.33065 l 51.93854,-79.38693 53.05996,79.38693 h 14.37971 L 370.5706,667.6865 Z"
         fill="#209ce9"
         id="path2"
         style="stroke-width:1.35617" />
      <path
         d="M 304.10453,673.16518 H 420.94885 V 662.44336 H 304.10453 Z m 0,-32.1645 H 420.97272 V 630.27886 H 304.10453 Z"
         fill="#209ce9"
         id="path4"
         style="stroke-width:1.35617" />
      <path
         d="m 506.8358,705.46313 v -90.864"
         stroke="#20204c"
         stroke-opacity="0.33"
         id="path6"
         style="stroke-width:1.35617" />
      <g
         id="g755"
         transform="matrix(0.68460816,0,0,0.68460816,356.81784,212.25362)">
        <path
           d="M 482.79776,608.18392 H 467.93949 L 343.00958,775.17284 h -1.1541 c 1.1541,-20.29522 1.73048,-35.60417 1.73048,-45.92701 V 608.18392 h -14.13682 v 188.50891 h 14.71319 L 468.9498,626.63204 h 0.86525 c -0.86525,15.7466 -1.29787,30.70661 -1.29787,44.87759 v 125.1832 h 14.28058 z"
           fill="#20204c"
           id="path8"
           style="stroke-width:1.35617" />
        <path
           d="m 644.23192,671.77205 h -85.69159 l -29.42904,-63.58813 h -16.30126 l 84.82488,188.50891 h 9.37667 l 83.0958,-188.50891 h -16.59015 z m -80.35366,12.07176 h 75.44836 l -28.70761,69.15293 c -2.40454,5.42376 -5.29047,12.94702 -8.65648,22.56981 -2.59713,-8.39815 -5.4329,-16.00889 -8.51142,-22.83224 z"
           fill="#20204c"
           id="path10"
           style="stroke-width:1.35617" />
        <path
           d="M 873.4615,608.18392 H 856.74375 L 733.66923,775.17284 h -1.15142 c 1.15142,-20.29522 1.73049,-35.60417 1.73049,-45.92701 V 608.18392 h -14.13953 v 188.50891 h 14.71181 L 859.60675,626.63204 h 0.86518 c -0.86518,15.7466 -1.29787,30.70661 -1.29787,44.87759 v 125.1832 h 14.28744 z"
           fill="#20204c"
           id="path12"
           style="stroke-width:1.35617" />
        <path
           d="m 1092.6608,706.99229 c 0,-30.44297 -8.3677,-54.54402 -25.0989,-72.30183 -16.7365,-17.67102 -39.8174,-26.50654 -69.24916,-26.50654 -29.33288,0 -52.36755,8.83552 -69.09735,26.50654 -16.73669,17.75781 -25.10568,41.94674 -25.10568,72.56412 0,30.53072 8.41513,45.56721 25.24527,63.06314 16.92924,17.58339 46.66891,26.37511 75.90822,26.37511 29.4249,0 45.8021,-8.83547 62.4397,-26.50625 16.6363,-17.58355 24.9579,-32.66371 24.9579,-63.19429 z m -172.53995,0 c 0,-27.46845 6.73745,-48.72601 20.19892,-63.77283 13.46819,-14.95864 32.79373,-22.43798 57.99297,-22.43798 25.39026,0 44.77016,7.43458 58.13806,22.30779 13.4682,14.87052 20.1989,36.17228 20.1989,63.90302 0,27.64368 -6.7307,39.83722 -20.1989,54.53373 -13.3679,14.78399 -32.6473,22.17606 -57.84523,22.17606 -25.10551,0 -44.48536,-7.43575 -58.13935,-22.30721 -13.5604,-14.87159 -20.34537,-27.02133 -20.34537,-54.40258 z"
           fill="#20204c"
           id="path14"
           style="stroke-width:1.35617" />
      </g>
      <g
         id="g894"
         transform="translate(-152.10259,311.29812)"
         style="fill:#20204c;fill-opacity:1">
        <g
           id="g812"
           style="fill:#20204c;fill-opacity:1">
          <g
             id="g810"
             clip-path="url(#clipPath106)"
             style="fill:#20204c;fill-opacity:1">
            <g
               id="g808"
               style="fill:#20204c;fill-opacity:1">
              <g
                 id="g806"
                 style="fill:#20204c;fill-opacity:1">
                <path
                   d="m 756.427,285.166 -9.779,-24.891 -9.83,24.891 h -2.351 l -0.003,-10e-4 11.034,-27.243 h 2.248 l 10.981,27.244 z"
                   style="fill:#20204c;fill-opacity:1;stroke:none"
                   id="path804" />
              </g>
            </g>
          </g>
        </g>
        <g
           id="g822"
           style="fill:#20204c;fill-opacity:1">
          <g
             id="g820"
             clip-path="url(#clipPath128)"
             style="fill:#20204c;fill-opacity:1">
            <g
               id="g818"
               style="fill:#20204c;fill-opacity:1">
              <g
                 id="g816"
                 style="fill:#20204c;fill-opacity:1">
                <path
                   d="m 763.695,271.517 c 0,-8.001 5.596,-13.648 13.282,-13.648 v 0 c 4.341,0 8.054,1.621 10.564,4.341 v 0 l -1.256,1.412 c -2.195,-2.406 -5.49,-3.767 -9.203,-3.767 v 0 c -6.327,0 -10.929,4.447 -11.242,11.086 v 0 h 23.793 c 0.156,8.42 -4.655,14.277 -12.656,14.277 v 0 c -7.686,0 -13.282,-5.701 -13.282,-13.701 m 13.282,11.715 c 6.223,0 10.25,-4.184 10.668,-10.355 v 0 h -21.754 c 0.524,6.171 4.968,10.355 11.086,10.355"
                   style="fill:#20204c;fill-opacity:1;stroke:none"
                   id="path814" />
              </g>
            </g>
          </g>
        </g>
        <g
           id="g832"
           style="fill:#20204c;fill-opacity:1">
          <g
             id="g830"
             clip-path="url(#clipPath150)"
             style="fill:#20204c;fill-opacity:1">
            <g
               id="g828"
               style="fill:#20204c;fill-opacity:1">
              <g
                 id="g826"
                 style="fill:#20204c;fill-opacity:1">
                <path
                   d="m 802.916,278.211 v 6.955 h -2.198 v -27.242 l 0.001,-0.002 h 2.197 v 14.746 c 0.471,6.274 4.34,10.198 10.616,10.352 v 0 c 5.594,0 8.889,-3.294 8.889,-8.887 v 0 -16.211 h 2.195 10e-4 v 16.627 c 0,6.642 -3.922,10.669 -10.562,10.669 v 0 c -5.44,-0.103 -9.309,-2.51 -11.139,-7.007"
                   style="fill:#20204c;fill-opacity:1;stroke:none"
                   id="path824" />
              </g>
            </g>
          </g>
        </g>
        <g
           id="g842"
           style="fill:#20204c;fill-opacity:1">
          <g
             id="g840"
             clip-path="url(#clipPath172)"
             style="fill:#20204c;fill-opacity:1">
            <g
               id="g838"
               style="fill:#20204c;fill-opacity:1">
              <g
                 id="g836"
                 style="fill:#20204c;fill-opacity:1">
                <path
                   d="m 834.971,271.517 c 0,-8.001 5.597,-13.648 13.283,-13.648 v 0 c 4.339,0 8.053,1.621 10.563,4.341 v 0 l -1.255,1.412 c -2.196,-2.406 -5.492,-3.767 -9.204,-3.767 v 0 c -6.327,0 -10.929,4.447 -11.242,11.086 v 0 h 23.793 c 0.156,8.42 -4.654,14.277 -12.655,14.277 v 0 c -7.686,0 -13.283,-5.701 -13.283,-13.701 m 13.283,11.715 c 6.222,0 10.249,-4.184 10.667,-10.355 v 0 h -21.754 c 0.524,6.171 4.967,10.355 11.087,10.355"
                   style="fill:#20204c;fill-opacity:1;stroke:none"
                   id="path834" />
              </g>
            </g>
          </g>
        </g>
        <g
           id="g852"
           style="fill:#20204c;fill-opacity:1">
          <g
             id="g850"
             clip-path="url(#clipPath194)"
             style="fill:#20204c;fill-opacity:1">
            <g
               id="g848"
               style="fill:#20204c;fill-opacity:1">
              <g
                 id="g846"
                 style="fill:#20204c;fill-opacity:1">
                <path
                   d="m 869.591,283.126 h 18.144 L 869.12,259.909 v -1.987 l 21.439,-0.053 v 1.986 l -18.982,0.054 18.617,23.217 v 1.989 l -20.603,0.051 z"
                   style="fill:#20204c;fill-opacity:1;stroke:none"
                   id="path844" />
              </g>
            </g>
          </g>
        </g>
        <g
           id="g862"
           style="fill:#20204c;fill-opacity:1">
          <g
             id="g860"
             clip-path="url(#clipPath216)"
             style="fill:#20204c;fill-opacity:1">
            <g
               id="g858"
               style="fill:#20204c;fill-opacity:1">
              <g
                 id="g856"
                 style="fill:#20204c;fill-opacity:1">
                <path
                   d="m 922.249,285.166 v -13.335 c 0,-7.111 -3.87,-11.61 -10.459,-11.765 v 0 c -5.49,0 -8.733,3.296 -8.733,8.889 v 0 16.211 h -2.143 v -16.628 c 0,-6.696 3.816,-10.669 10.404,-10.669 v 0 c 5.388,0.053 9.206,2.614 10.931,7.32 v 0 -7.267 h 2.144 v 27.244 z"
                   style="fill:#20204c;fill-opacity:1;stroke:none"
                   id="path854" />
              </g>
            </g>
          </g>
        </g>
        <g
           id="g872"
           style="fill:#20204c;fill-opacity:1">
          <g
             id="g870"
             clip-path="url(#clipPath238)"
             style="fill:#20204c;fill-opacity:1">
            <g
               id="g868"
               style="fill:#20204c;fill-opacity:1">
              <g
                 id="g866"
                 style="fill:#20204c;fill-opacity:1">
                <path
                   d="m 935.689,271.517 c 0,-8.001 5.595,-13.648 13.282,-13.648 v 0 c 4.341,0 8.052,1.621 10.563,4.341 v 0 l -1.254,1.412 c -2.197,-2.406 -5.492,-3.767 -9.205,-3.767 v 0 c -6.327,0 -10.929,4.447 -11.242,11.086 v 0 h 23.792 c 0.157,8.42 -4.653,14.277 -12.654,14.277 v 0 c -7.687,0 -13.282,-5.701 -13.282,-13.701 m 13.282,11.715 c 6.222,0 10.248,-4.184 10.668,-10.355 v 0 h -21.754 c 0.524,6.171 4.968,10.355 11.086,10.355"
                   style="fill:#20204c;fill-opacity:1;stroke:none"
                   id="path864" />
              </g>
            </g>
          </g>
        </g>
        <g
           id="g882"
           style="fill:#20204c;fill-opacity:1">
          <g
             id="g880"
             clip-path="url(#clipPath260)"
             style="fill:#20204c;fill-opacity:1">
            <g
               id="g878"
               style="fill:#20204c;fill-opacity:1">
              <g
                 id="g876"
                 style="fill:#20204c;fill-opacity:1">
                <path
                   d="m 972.974,296.723 v 0 -38.8 -10e-4 h 2.196 v 0 38.8 0.001 z"
                   style="fill:#20204c;fill-opacity:1;stroke:none"
                   id="path874" />
              </g>
            </g>
          </g>
        </g>
        <g
           id="g892"
           style="fill:#20204c;fill-opacity:1">
          <g
             id="g890"
             clip-path="url(#clipPath282)"
             style="fill:#20204c;fill-opacity:1">
            <g
               id="g888"
               style="fill:#20204c;fill-opacity:1">
              <g
                 id="g886"
                 style="fill:#20204c;fill-opacity:1">
                <path
                   d="m 988.661,281.349 1.046,-1.673 c 2.876,2.195 5.752,3.556 9.151,3.556 v 0 c 5.439,0 8.104,-2.772 8.158,-7.375 v 0 -2.667 h -9.676 c -6.274,0 -10.142,-2.77 -10.142,-7.32 v 0 c 0,-4.603 3.607,-8.001 8.993,-8.001 v 0 c 4.706,0 8.575,1.674 10.877,5.439 v 0 l 0.052,-5.386 h 2.144 l -0.105,18.093 c -0.052,5.647 -3.556,9.203 -9.987,9.203 v 0 c -4.131,0 -7.268,-1.515 -10.511,-3.869 m 0.628,-15.426 c 0,3.503 2.928,5.332 8.262,5.332 v 0 h 9.517 v -4.445 c -1.673,-4.757 -5.491,-6.955 -10.564,-6.955 v 0 c -4.444,0 -7.215,2.458 -7.215,6.068"
                   style="fill:#20204c;fill-opacity:1;stroke:none"
                   id="path884" />
              </g>
            </g>
          </g>
        </g>
      </g>
    </g>
  </g>
</svg>
