<?xml version="1.0" encoding="UTF-8" standalone="no"?>
<svg
   width="36.646999"
   height="50.167999"
   viewBox="0 0 9.6961845 13.273619"
   version="1.1"
   id="svg8"
   inkscape:version="1.2.1 (9c6d41e410, 2022-07-14)"
   sodipodi:docname="natriumlogo.svg"
   xmlns:inkscape="http://www.inkscape.org/namespaces/inkscape"
   xmlns:sodipodi="http://sodipodi.sourceforge.net/DTD/sodipodi-0.dtd"
   xmlns="http://www.w3.org/2000/svg"
   xmlns:svg="http://www.w3.org/2000/svg"
   xmlns:rdf="http://www.w3.org/1999/02/22-rdf-syntax-ns#"
   xmlns:cc="http://creativecommons.org/ns#"
   xmlns:dc="http://purl.org/dc/elements/1.1/">
  <defs
     id="defs2">
    <clipPath
       clipPathUnits="userSpaceOnUse"
       id="clipPath106">
      <path
         d="m 756.427,285.166 -9.779,-24.891 -9.83,24.891 h -2.351 l -0.003,-10e-4 11.034,-27.243 h 2.248 l 10.981,27.244 z"
         id="path104" />
    </clipPath>
    <clipPath
       clipPathUnits="userSpaceOnUse"
       id="clipPath128">
      <path
         d="m 763.695,271.517 c 0,-8.001 5.596,-13.648 13.282,-13.648 v 0 c 4.341,0 8.054,1.621 10.564,4.341 v 0 l -1.256,1.412 c -2.195,-2.406 -5.49,-3.767 -9.203,-3.767 v 0 c -6.327,0 -10.929,4.447 -11.242,11.086 v 0 h 23.793 c 0.156,8.42 -4.655,14.277 -12.656,14.277 v 0 c -7.686,0 -13.282,-5.701 -13.282,-13.701 m 13.282,11.715 c 6.223,0 10.25,-4.184 10.668,-10.355 v 0 h -21.754 c 0.524,6.171 4.968,10.355 11.086,10.355"
         id="path126" />
    </clipPath>
    <clipPath
       clipPathUnits="userSpaceOnUse"
       id="clipPath150">
      <path
         d="m 802.916,278.211 v 6.955 h -2.198 v -27.242 l 0.001,-0.002 h 2.197 v 14.746 c 0.471,6.274 4.34,10.198 10.616,10.352 v 0 c 5.594,0 8.889,-3.294 8.889,-8.887 v 0 -16.211 h 2.195 10e-4 v 16.627 c 0,6.642 -3.922,10.669 -10.562,10.669 v 0 c -5.44,-0.103 -9.309,-2.51 -11.139,-7.007"
         id="path148" />
    </clipPath>
    <clipPath
       clipPathUnits="userSpaceOnUse"
       id="clipPath172">
      <path
         d="m 834.971,271.517 c 0,-8.001 5.597,-13.648 13.283,-13.648 v 0 c 4.339,0 8.053,1.621 10.563,4.341 v 0 l -1.255,1.412 c -2.196,-2.406 -5.492,-3.767 -9.204,-3.767 v 0 c -6.327,0 -10.929,4.447 -11.242,11.086 v 0 h 23.793 c 0.156,8.42 -4.654,14.277 -12.655,14.277 v 0 c -7.686,0 -13.283,-5.701 -13.283,-13.701 m 13.283,11.715 c 6.222,0 10.249,-4.184 10.667,-10.355 v 0 h -21.754 c 0.524,6.171 4.967,10.355 11.087,10.355"
         id="path170" />
    </clipPath>
    <clipPath
       clipPathUnits="userSpaceOnUse"
       id="clipPath194">
      <path
         d="m 869.591,283.126 h 18.144 L 869.12,259.909 v -1.987 l 21.439,-0.053 v 1.986 l -18.982,0.054 18.617,23.217 v 1.989 l -20.603,0.051 z"
         id="path192" />
    </clipPath>
    <clipPath
       clipPathUnits="userSpaceOnUse"
       id="clipPath216">
      <path
         d="m 922.249,285.166 v -13.335 c 0,-7.111 -3.87,-11.61 -10.459,-11.765 v 0 c -5.49,0 -8.733,3.296 -8.733,8.889 v 0 16.211 h -2.143 v -16.628 c 0,-6.696 3.816,-10.669 10.404,-10.669 v 0 c 5.388,0.053 9.206,2.614 10.931,7.32 v 0 -7.267 h 2.144 v 27.244 z"
         id="path214" />
    </clipPath>
    <clipPath
       clipPathUnits="userSpaceOnUse"
       id="clipPath238">
      <path
         d="m 935.689,271.517 c 0,-8.001 5.595,-13.648 13.282,-13.648 v 0 c 4.341,0 8.052,1.621 10.563,4.341 v 0 l -1.254,1.412 c -2.197,-2.406 -5.492,-3.767 -9.205,-3.767 v 0 c -6.327,0 -10.929,4.447 -11.242,11.086 v 0 h 23.792 c 0.157,8.42 -4.653,14.277 -12.654,14.277 v 0 c -7.687,0 -13.282,-5.701 -13.282,-13.701 m 13.282,11.715 c 6.222,0 10.248,-4.184 10.668,-10.355 v 0 h -21.754 c 0.524,6.171 4.968,10.355 11.086,10.355"
         id="path236" />
    </clipPath>
    <clipPath
       clipPathUnits="userSpaceOnUse"
       id="clipPath260">
      <path
         d="m 972.974,296.723 v 0 -38.8 -10e-4 h 2.196 v 0 38.8 0.001 z"
         id="path258" />
    </clipPath>
    <clipPath
       clipPathUnits="userSpaceOnUse"
       id="clipPath282">
      <path
         d="m 988.661,281.349 1.046,-1.673 c 2.876,2.195 5.752,3.556 9.151,3.556 v 0 c 5.439,0 8.104,-2.772 8.158,-7.375 v 0 -2.667 h -9.676 c -6.274,0 -10.142,-2.77 -10.142,-7.32 v 0 c 0,-4.603 3.607,-8.001 8.993,-8.001 v 0 c 4.706,0 8.575,1.674 10.877,5.439 v 0 l 0.052,-5.386 h 2.144 l -0.105,18.093 c -0.052,5.647 -3.556,9.203 -9.987,9.203 v 0 c -4.131,0 -7.268,-1.515 -10.511,-3.869 m 0.628,-15.426 c 0,3.503 2.928,5.332 8.262,5.332 v 0 h 9.517 v -4.445 c -1.673,-4.757 -5.491,-6.955 -10.564,-6.955 v 0 c -4.444,0 -7.215,2.458 -7.215,6.068"
         id="path280" />
    </clipPath>
    <clipPath
       clipPathUnits="userSpaceOnUse"
       id="clipPath106-8">
      <path
         d="m 756.427,285.166 -9.779,-24.891 -9.83,24.891 h -2.351 l -0.003,-10e-4 11.034,-27.243 h 2.248 l 10.981,27.244 z"
         id="path104-44" />
    </clipPath>
    <clipPath
       clipPathUnits="userSpaceOnUse"
       id="clipPath128-2">
      <path
         d="m 763.695,271.517 c 0,-8.001 5.596,-13.648 13.282,-13.648 v 0 c 4.341,0 8.054,1.621 10.564,4.341 v 0 l -1.256,1.412 c -2.195,-2.406 -5.49,-3.767 -9.203,-3.767 v 0 c -6.327,0 -10.929,4.447 -11.242,11.086 v 0 h 23.793 c 0.156,8.42 -4.655,14.277 -12.656,14.277 v 0 c -7.686,0 -13.282,-5.701 -13.282,-13.701 m 13.282,11.715 c 6.223,0 10.25,-4.184 10.668,-10.355 v 0 h -21.754 c 0.524,6.171 4.968,10.355 11.086,10.355"
         id="path126-7" />
    </clipPath>
    <clipPath
       clipPathUnits="userSpaceOnUse"
       id="clipPath150-8">
      <path
         d="m 802.916,278.211 v 6.955 h -2.198 v -27.242 l 0.001,-0.002 h 2.197 v 14.746 c 0.471,6.274 4.34,10.198 10.616,10.352 v 0 c 5.594,0 8.889,-3.294 8.889,-8.887 v 0 -16.211 h 2.195 10e-4 v 16.627 c 0,6.642 -3.922,10.669 -10.562,10.669 v 0 c -5.44,-0.103 -9.309,-2.51 -11.139,-7.007"
         id="path148-1" />
    </clipPath>
    <clipPath
       clipPathUnits="userSpaceOnUse"
       id="clipPath172-3">
      <path
         d="m 834.971,271.517 c 0,-8.001 5.597,-13.648 13.283,-13.648 v 0 c 4.339,0 8.053,1.621 10.563,4.341 v 0 l -1.255,1.412 c -2.196,-2.406 -5.492,-3.767 -9.204,-3.767 v 0 c -6.327,0 -10.929,4.447 -11.242,11.086 v 0 h 23.793 c 0.156,8.42 -4.654,14.277 -12.655,14.277 v 0 c -7.686,0 -13.283,-5.701 -13.283,-13.701 m 13.283,11.715 c 6.222,0 10.249,-4.184 10.667,-10.355 v 0 h -21.754 c 0.524,6.171 4.967,10.355 11.087,10.355"
         id="path170-1" />
    </clipPath>
    <clipPath
       clipPathUnits="userSpaceOnUse"
       id="clipPath194-1">
      <path
         d="m 869.591,283.126 h 18.144 L 869.12,259.909 v -1.987 l 21.439,-0.053 v 1.986 l -18.982,0.054 18.617,23.217 v 1.989 l -20.603,0.051 z"
         id="path192-0" />
    </clipPath>
    <clipPath
       clipPathUnits="userSpaceOnUse"
       id="clipPath216-2">
      <path
         d="m 922.249,285.166 v -13.335 c 0,-7.111 -3.87,-11.61 -10.459,-11.765 v 0 c -5.49,0 -8.733,3.296 -8.733,8.889 v 0 16.211 h -2.143 v -16.628 c 0,-6.696 3.816,-10.669 10.404,-10.669 v 0 c 5.388,0.053 9.206,2.614 10.931,7.32 v 0 -7.267 h 2.144 v 27.244 z"
         id="path214-9" />
    </clipPath>
    <clipPath
       clipPathUnits="userSpaceOnUse"
       id="clipPath238-8">
      <path
         d="m 935.689,271.517 c 0,-8.001 5.595,-13.648 13.282,-13.648 v 0 c 4.341,0 8.052,1.621 10.563,4.341 v 0 l -1.254,1.412 c -2.197,-2.406 -5.492,-3.767 -9.205,-3.767 v 0 c -6.327,0 -10.929,4.447 -11.242,11.086 v 0 h 23.792 c 0.157,8.42 -4.653,14.277 -12.654,14.277 v 0 c -7.687,0 -13.282,-5.701 -13.282,-13.701 m 13.282,11.715 c 6.222,0 10.248,-4.184 10.668,-10.355 v 0 h -21.754 c 0.524,6.171 4.968,10.355 11.086,10.355"
         id="path236-7" />
    </clipPath>
    <clipPath
       clipPathUnits="userSpaceOnUse"
       id="clipPath260-0">
      <path
         d="m 972.974,296.723 v 0 -38.8 -10e-4 h 2.196 v 0 38.8 0.001 z"
         id="path258-0" />
    </clipPath>
    <clipPath
       clipPathUnits="userSpaceOnUse"
       id="clipPath282-1">
      <path
         d="m 988.661,281.349 1.046,-1.673 c 2.876,2.195 5.752,3.556 9.151,3.556 v 0 c 5.439,0 8.104,-2.772 8.158,-7.375 v 0 -2.667 h -9.676 c -6.274,0 -10.142,-2.77 -10.142,-7.32 v 0 c 0,-4.603 3.607,-8.001 8.993,-8.001 v 0 c 4.706,0 8.575,1.674 10.877,5.439 v 0 l 0.052,-5.386 h 2.144 l -0.105,18.093 c -0.052,5.647 -3.556,9.203 -9.987,9.203 v 0 c -4.131,0 -7.268,-1.515 -10.511,-3.869 m 0.628,-15.426 c 0,3.503 2.928,5.332 8.262,5.332 v 0 h 9.517 v -4.445 c -1.673,-4.757 -5.491,-6.955 -10.564,-6.955 v 0 c -4.444,0 -7.215,2.458 -7.215,6.068"
         id="path280-7" />
    </clipPath>
  </defs>
  <sodipodi:namedview
     id="base"
     pagecolor="#ffffff"
     bordercolor="#666666"
     borderopacity="1.0"
     inkscape:pageopacity="0.0"
     inkscape:pageshadow="2"
     inkscape:zoom="3.959798"
     inkscape:cx="100.0051"
     inkscape:cy="13.384521"
     inkscape:document-units="mm"
     inkscape:current-layer="layer1"
     inkscape:document-rotation="0"
     showgrid="false"
     units="px"
     inkscape:window-width="1366"
     inkscape:window-height="697"
     inkscape:window-x="-8"
     inkscape:window-y="-8"
     inkscape:window-maximized="1"
     inkscape:showpageshadow="0"
     inkscape:pagecheckerboard="0"
     inkscape:deskcolor="#d1d1d1" />
  <metadata
     id="metadata5">
    <rdf:RDF>
      <cc:Work
         rdf:about="">
        <dc:format>image/svg+xml</dc:format>
        <dc:type
           rdf:resource="http://purl.org/dc/dcmitype/StillImage" />
      </cc:Work>
    </rdf:RDF>
  </metadata>
  <g
     inkscape:label="Calque 1"
     inkscape:groupmode="layer"
     id="layer1">
    <path
       style="fill:#3f3f4e;fill-opacity:1;stroke-width:0.0220874"
       d="M 0.10290132,8.5886207 C 0.01643032,8.5383557 5.6323552e-5,8.4392426 5.6323552e-5,7.9660576 c 0,-0.2725272 0.0096799964,-0.4779199 0.02449099645,-0.5204352 0.042509,-0.121843 0.099527,-0.1351498 0.5794761,-0.1351498 H 1.0334744 L 1.1790041,7.1613861 1.3245277,7.0122938 1.3249185,6.5633259 1.325315,6.1143581 1.389878,6.0497951 1.454441,5.9852321 H 1.904003 2.3535657 L 2.5020638,5.8355855 2.6505613,5.6859392 2.6511445,5.2337 c 4.955e-4,-0.3206346 0.00851,-0.4624321 0.02764,-0.4872789 0.060347,-0.078605 0.1168691,-0.086436 0.6235134,-0.086436 h 0.5001193 l 0.064563,0.064563 0.064563,0.064563 v 0.4087848 0.408785 L 4.1544119,5.795956 4.3772806,5.9852311 h 0.423782 0.423777 L 5.3733386,5.8355855 5.5218356,5.6859392 V 5.2375253 4.7891114 l 0.06456,-0.064563 0.06456,-0.064563 h 0.511163 c 0.323923,0 0.527497,0.00875 0.555755,0.023849 0.09051,0.048458 0.107119,0.1451387 0.107119,0.6237117 0,0.2725272 -0.0097,0.4779199 -0.02449,0.5204351 -0.04245,0.1217264 -0.09974,0.1351499 -0.576893,0.1351499 h -0.426874 l -0.148497,0.1496412 -0.148497,0.1496463 0.0011,0.341802 0.0011,0.341802 0.217913,0.1822194 0.217918,0.1822194 h 0.427476 0.427469 L 6.9413436,7.1608205 7.0898406,7.0111742 V 6.5627603 6.1143463 l 0.06456,-0.064563 0.06456,-0.064563 h 0.449609 0.449609 L 8.2555856,5.846578 8.3929916,5.7079352 v -0.421293 c 0,-0.243447 0.01003,-0.4500408 0.02373,-0.4893899 0.0456,-0.1307764 0.07589,-0.1372782 0.6397993,-0.1372782 h 0.510488 l 0.06456,0.064563 0.06456,0.064563 v 0.5224527 0.5224528 l -0.06456,0.064563 -0.06456,0.064563 h -0.45086 -0.4508643 l -0.147196,0.1524621 -0.147192,0.1524627 -5.67e-4,0.4494227 c -4.95e-4,0.318413 -0.0086,0.4596332 -0.02764,0.4844624 -0.05919,0.077094 -0.119009,0.086436 -0.553713,0.086436 h -0.430327 l -0.139879,0.1455936 -0.139885,0.1455877 -0.01102,0.4637734 -0.01102,0.4637733 -0.06197,0.053239 c -0.06168,0.053006 -0.06446,0.053239 -0.578567,0.053239 -0.514108,0 -0.51689,-2.564e-4 -0.578561,-0.053239 L 5.7757616,8.5071061 5.7680646,8.0799644 5.7603676,7.6528227 5.5433416,7.4706033 5.3263096,7.2883839 H 4.8988416 4.4713726 L 4.3228755,7.4380244 4.1743779,7.5876707 v 0.4588168 0.4588109 l -0.058446,0.054172 -0.05844,0.054172 H 3.5399602 3.0224348 L 2.9578717,8.5490734 2.8933028,8.4845103 V 7.9620575 7.4396047 l 0.064569,-0.064563 0.064563,-0.064563 H 3.4720383 3.9216477 L 4.0590541,7.1718416 4.1964665,7.0331989 V 6.680096 6.3269989 L 3.9811143,6.1456018 3.7657561,5.9642046 3.334416,5.963674 2.9030758,5.9631433 2.7656635,6.1017861 2.6282569,6.2404289 v 0.4252989 c 0,0.4522801 -0.017668,0.5509149 -0.1071134,0.5988008 -0.02764,0.014811 -0.2111597,0.023849 -0.4828647,0.023849 H 1.6000053 L 1.4515078,7.4380245 1.3030103,7.5876708 v 0.4484138 0.448414 l -0.064563,0.064563 -0.064563,0.064569 -0.51523378,-5.84e-4 c -0.3251837,-4.192e-4 -0.5302497,-0.00942 -0.5559537,-0.024312 z"
       id="path1178" />
  </g>
</svg>
