<?xml version="1.0" encoding="UTF-8" standalone="no"?>
<svg
   xmlns:dc="http://purl.org/dc/elements/1.1/"
   xmlns:cc="http://creativecommons.org/ns#"
   xmlns:rdf="http://www.w3.org/1999/02/22-rdf-syntax-ns#"
   xmlns:svg="http://www.w3.org/2000/svg"
   xmlns="http://www.w3.org/2000/svg"
   xmlns:sodipodi="http://sodipodi.sourceforge.net/DTD/sodipodi-0.dtd"
   xmlns:inkscape="http://www.inkscape.org/namespaces/inkscape"
   width="36.646999"
   height="50.167999"
   viewBox="0 0 9.6961844 13.273619"
   version="1.1"
   id="svg8"
   inkscape:version="1.0.2-2 (e86c870879, 2021-01-15)"
   sodipodi:docname="naultlogo.svg">
  <defs
     id="defs2">
    <clipPath
       clipPathUnits="userSpaceOnUse"
       id="clipPath106">
      <path
         d="m 756.427,285.166 -9.779,-24.891 -9.83,24.891 h -2.351 l -0.003,-10e-4 11.034,-27.243 h 2.248 l 10.981,27.244 z"
         id="path104" />
    </clipPath>
    <clipPath
       clipPathUnits="userSpaceOnUse"
       id="clipPath128">
      <path
         d="m 763.695,271.517 c 0,-8.001 5.596,-13.648 13.282,-13.648 v 0 c 4.341,0 8.054,1.621 10.564,4.341 v 0 l -1.256,1.412 c -2.195,-2.406 -5.49,-3.767 -9.203,-3.767 v 0 c -6.327,0 -10.929,4.447 -11.242,11.086 v 0 h 23.793 c 0.156,8.42 -4.655,14.277 -12.656,14.277 v 0 c -7.686,0 -13.282,-5.701 -13.282,-13.701 m 13.282,11.715 c 6.223,0 10.25,-4.184 10.668,-10.355 v 0 h -21.754 c 0.524,6.171 4.968,10.355 11.086,10.355"
         id="path126" />
    </clipPath>
    <clipPath
       clipPathUnits="userSpaceOnUse"
       id="clipPath150">
      <path
         d="m 802.916,278.211 v 6.955 h -2.198 v -27.242 l 0.001,-0.002 h 2.197 v 14.746 c 0.471,6.274 4.34,10.198 10.616,10.352 v 0 c 5.594,0 8.889,-3.294 8.889,-8.887 v 0 -16.211 h 2.195 10e-4 v 16.627 c 0,6.642 -3.922,10.669 -10.562,10.669 v 0 c -5.44,-0.103 -9.309,-2.51 -11.139,-7.007"
         id="path148" />
    </clipPath>
    <clipPath
       clipPathUnits="userSpaceOnUse"
       id="clipPath172">
      <path
         d="m 834.971,271.517 c 0,-8.001 5.597,-13.648 13.283,-13.648 v 0 c 4.339,0 8.053,1.621 10.563,4.341 v 0 l -1.255,1.412 c -2.196,-2.406 -5.492,-3.767 -9.204,-3.767 v 0 c -6.327,0 -10.929,4.447 -11.242,11.086 v 0 h 23.793 c 0.156,8.42 -4.654,14.277 -12.655,14.277 v 0 c -7.686,0 -13.283,-5.701 -13.283,-13.701 m 13.283,11.715 c 6.222,0 10.249,-4.184 10.667,-10.355 v 0 h -21.754 c 0.524,6.171 4.967,10.355 11.087,10.355"
         id="path170" />
    </clipPath>
    <clipPath
       clipPathUnits="userSpaceOnUse"
       id="clipPath194">
      <path
         d="m 869.591,283.126 h 18.144 L 869.12,259.909 v -1.987 l 21.439,-0.053 v 1.986 l -18.982,0.054 18.617,23.217 v 1.989 l -20.603,0.051 z"
         id="path192" />
    </clipPath>
    <clipPath
       clipPathUnits="userSpaceOnUse"
       id="clipPath216">
      <path
         d="m 922.249,285.166 v -13.335 c 0,-7.111 -3.87,-11.61 -10.459,-11.765 v 0 c -5.49,0 -8.733,3.296 -8.733,8.889 v 0 16.211 h -2.143 v -16.628 c 0,-6.696 3.816,-10.669 10.404,-10.669 v 0 c 5.388,0.053 9.206,2.614 10.931,7.32 v 0 -7.267 h 2.144 v 27.244 z"
         id="path214" />
    </clipPath>
    <clipPath
       clipPathUnits="userSpaceOnUse"
       id="clipPath238">
      <path
         d="m 935.689,271.517 c 0,-8.001 5.595,-13.648 13.282,-13.648 v 0 c 4.341,0 8.052,1.621 10.563,4.341 v 0 l -1.254,1.412 c -2.197,-2.406 -5.492,-3.767 -9.205,-3.767 v 0 c -6.327,0 -10.929,4.447 -11.242,11.086 v 0 h 23.792 c 0.157,8.42 -4.653,14.277 -12.654,14.277 v 0 c -7.687,0 -13.282,-5.701 -13.282,-13.701 m 13.282,11.715 c 6.222,0 10.248,-4.184 10.668,-10.355 v 0 h -21.754 c 0.524,6.171 4.968,10.355 11.086,10.355"
         id="path236" />
    </clipPath>
    <clipPath
       clipPathUnits="userSpaceOnUse"
       id="clipPath260">
      <path
         d="m 972.974,296.723 v 0 -38.8 -10e-4 h 2.196 v 0 38.8 0.001 z"
         id="path258" />
    </clipPath>
    <clipPath
       clipPathUnits="userSpaceOnUse"
       id="clipPath282">
      <path
         d="m 988.661,281.349 1.046,-1.673 c 2.876,2.195 5.752,3.556 9.151,3.556 v 0 c 5.439,0 8.104,-2.772 8.158,-7.375 v 0 -2.667 h -9.676 c -6.274,0 -10.142,-2.77 -10.142,-7.32 v 0 c 0,-4.603 3.607,-8.001 8.993,-8.001 v 0 c 4.706,0 8.575,1.674 10.877,5.439 v 0 l 0.052,-5.386 h 2.144 l -0.105,18.093 c -0.052,5.647 -3.556,9.203 -9.987,9.203 v 0 c -4.131,0 -7.268,-1.515 -10.511,-3.869 m 0.628,-15.426 c 0,3.503 2.928,5.332 8.262,5.332 v 0 h 9.517 v -4.445 c -1.673,-4.757 -5.491,-6.955 -10.564,-6.955 v 0 c -4.444,0 -7.215,2.458 -7.215,6.068"
         id="path280" />
    </clipPath>
    <clipPath
       clipPathUnits="userSpaceOnUse"
       id="clipPath106-8">
      <path
         d="m 756.427,285.166 -9.779,-24.891 -9.83,24.891 h -2.351 l -0.003,-10e-4 11.034,-27.243 h 2.248 l 10.981,27.244 z"
         id="path104-44" />
    </clipPath>
    <clipPath
       clipPathUnits="userSpaceOnUse"
       id="clipPath128-2">
      <path
         d="m 763.695,271.517 c 0,-8.001 5.596,-13.648 13.282,-13.648 v 0 c 4.341,0 8.054,1.621 10.564,4.341 v 0 l -1.256,1.412 c -2.195,-2.406 -5.49,-3.767 -9.203,-3.767 v 0 c -6.327,0 -10.929,4.447 -11.242,11.086 v 0 h 23.793 c 0.156,8.42 -4.655,14.277 -12.656,14.277 v 0 c -7.686,0 -13.282,-5.701 -13.282,-13.701 m 13.282,11.715 c 6.223,0 10.25,-4.184 10.668,-10.355 v 0 h -21.754 c 0.524,6.171 4.968,10.355 11.086,10.355"
         id="path126-7" />
    </clipPath>
    <clipPath
       clipPathUnits="userSpaceOnUse"
       id="clipPath150-8">
      <path
         d="m 802.916,278.211 v 6.955 h -2.198 v -27.242 l 0.001,-0.002 h 2.197 v 14.746 c 0.471,6.274 4.34,10.198 10.616,10.352 v 0 c 5.594,0 8.889,-3.294 8.889,-8.887 v 0 -16.211 h 2.195 10e-4 v 16.627 c 0,6.642 -3.922,10.669 -10.562,10.669 v 0 c -5.44,-0.103 -9.309,-2.51 -11.139,-7.007"
         id="path148-1" />
    </clipPath>
    <clipPath
       clipPathUnits="userSpaceOnUse"
       id="clipPath172-3">
      <path
         d="m 834.971,271.517 c 0,-8.001 5.597,-13.648 13.283,-13.648 v 0 c 4.339,0 8.053,1.621 10.563,4.341 v 0 l -1.255,1.412 c -2.196,-2.406 -5.492,-3.767 -9.204,-3.767 v 0 c -6.327,0 -10.929,4.447 -11.242,11.086 v 0 h 23.793 c 0.156,8.42 -4.654,14.277 -12.655,14.277 v 0 c -7.686,0 -13.283,-5.701 -13.283,-13.701 m 13.283,11.715 c 6.222,0 10.249,-4.184 10.667,-10.355 v 0 h -21.754 c 0.524,6.171 4.967,10.355 11.087,10.355"
         id="path170-1" />
    </clipPath>
    <clipPath
       clipPathUnits="userSpaceOnUse"
       id="clipPath194-1">
      <path
         d="m 869.591,283.126 h 18.144 L 869.12,259.909 v -1.987 l 21.439,-0.053 v 1.986 l -18.982,0.054 18.617,23.217 v 1.989 l -20.603,0.051 z"
         id="path192-0" />
    </clipPath>
    <clipPath
       clipPathUnits="userSpaceOnUse"
       id="clipPath216-2">
      <path
         d="m 922.249,285.166 v -13.335 c 0,-7.111 -3.87,-11.61 -10.459,-11.765 v 0 c -5.49,0 -8.733,3.296 -8.733,8.889 v 0 16.211 h -2.143 v -16.628 c 0,-6.696 3.816,-10.669 10.404,-10.669 v 0 c 5.388,0.053 9.206,2.614 10.931,7.32 v 0 -7.267 h 2.144 v 27.244 z"
         id="path214-9" />
    </clipPath>
    <clipPath
       clipPathUnits="userSpaceOnUse"
       id="clipPath238-8">
      <path
         d="m 935.689,271.517 c 0,-8.001 5.595,-13.648 13.282,-13.648 v 0 c 4.341,0 8.052,1.621 10.563,4.341 v 0 l -1.254,1.412 c -2.197,-2.406 -5.492,-3.767 -9.205,-3.767 v 0 c -6.327,0 -10.929,4.447 -11.242,11.086 v 0 h 23.792 c 0.157,8.42 -4.653,14.277 -12.654,14.277 v 0 c -7.687,0 -13.282,-5.701 -13.282,-13.701 m 13.282,11.715 c 6.222,0 10.248,-4.184 10.668,-10.355 v 0 h -21.754 c 0.524,6.171 4.968,10.355 11.086,10.355"
         id="path236-7" />
    </clipPath>
    <clipPath
       clipPathUnits="userSpaceOnUse"
       id="clipPath260-0">
      <path
         d="m 972.974,296.723 v 0 -38.8 -10e-4 h 2.196 v 0 38.8 0.001 z"
         id="path258-0" />
    </clipPath>
    <clipPath
       clipPathUnits="userSpaceOnUse"
       id="clipPath282-1">
      <path
         d="m 988.661,281.349 1.046,-1.673 c 2.876,2.195 5.752,3.556 9.151,3.556 v 0 c 5.439,0 8.104,-2.772 8.158,-7.375 v 0 -2.667 h -9.676 c -6.274,0 -10.142,-2.77 -10.142,-7.32 v 0 c 0,-4.603 3.607,-8.001 8.993,-8.001 v 0 c 4.706,0 8.575,1.674 10.877,5.439 v 0 l 0.052,-5.386 h 2.144 l -0.105,18.093 c -0.052,5.647 -3.556,9.203 -9.987,9.203 v 0 c -4.131,0 -7.268,-1.515 -10.511,-3.869 m 0.628,-15.426 c 0,3.503 2.928,5.332 8.262,5.332 v 0 h 9.517 v -4.445 c -1.673,-4.757 -5.491,-6.955 -10.564,-6.955 v 0 c -4.444,0 -7.215,2.458 -7.215,6.068"
         id="path280-7" />
    </clipPath>
  </defs>
  <sodipodi:namedview
     id="base"
     pagecolor="#ffffff"
     bordercolor="#666666"
     borderopacity="1.0"
     inkscape:pageopacity="0.0"
     inkscape:pageshadow="2"
     inkscape:zoom="3.959798"
     inkscape:cx="105.91078"
     inkscape:cy="12.784478"
     inkscape:document-units="mm"
     inkscape:current-layer="layer1"
     inkscape:document-rotation="0"
     showgrid="false"
     units="px"
     inkscape:window-width="1680"
     inkscape:window-height="987"
     inkscape:window-x="-8"
     inkscape:window-y="-8"
     inkscape:window-maximized="1" />
  <metadata
     id="metadata5">
    <rdf:RDF>
      <cc:Work
         rdf:about="">
        <dc:format>image/svg+xml</dc:format>
        <dc:type
           rdf:resource="http://purl.org/dc/dcmitype/StillImage" />
        <dc:title></dc:title>
      </cc:Work>
    </rdf:RDF>
  </metadata>
  <g
     inkscape:label="Calque 1"
     inkscape:groupmode="layer"
     id="layer1">
    <g
       id="g602"
       transform="matrix(0.09896993,0,0,0.09896993,1.9676551,4.7663943)">
      <path
         class="st0"
         d="m 19.616746,46.322872 c -5.185833,-5.185833 -5.185833,-13.546666 0,-18.7325 7.037917,-7.037916 7.011459,-10.133541 0,-17.144999 -7.011458,-7.0114586 -9.8689578,-7.0114586 -16.8804161,0 -5.1593749,5.159375 -13.5466669,5.159375 -18.7324999,0 -3.201458,-3.2014587 -4.550833,-7.8052086 -3.571875,-12.2237502 0.529167,-2.5135417 1.772708,-4.8154166 3.598333,-6.6145833 7.0379171,-7.0379165 7.0114587,-10.1335415 0,-17.1449995 -5.185833,-5.159375 -5.185833,-13.546667 -0.02646,-18.7325 0,0 0,0 0,0 2.487083,-2.487083 5.847292,-3.889375 9.36625,-3.889375 3.5189583,0 6.8791666,1.402292 9.3662499,3.889375 5.1858333,5.185833 5.1858333,13.546666 0,18.7325 -7.0379166,7.037916 -7.0114582,10.133541 0,17.1449995 7.0114583,7.0114583 9.8689581,7.0114583 16.8804161,0 5.159375,-5.1593745 13.546667,-5.1593745 18.7325,0 3.201458,3.2014583 4.550833,7.80520826 3.571875,12.2237499 -0.529167,2.5135416 -1.772708,4.8154166 -3.598333,6.6145836 -7.037917,7.037916 -7.011458,10.133541 0,17.144999 5.185833,5.159375 5.185833,13.546667 0.02646,18.7325 0,0 0,0 0,0 -5.185833,5.185833 -13.573125,5.185833 -18.7325,0 z"
         id="path4"
         style="fill:#4a90e2;stroke-width:0.264583" />
      <path
         class="st1"
         d="m -6.5770033,23.780372 c 7.3024999,0 13.2291665,5.926667 13.2291665,13.229167 0,7.3025 -5.9266666,13.229166 -13.2291665,13.229166 -7.3024997,0 -13.2291667,-5.926666 -13.2291667,-13.229166 0,-7.3025 5.926667,-13.229167 13.2291667,-13.229167 z"
         id="path6"
         style="fill:#b7cfea;stroke-width:0.264583" />
      <path
         class="st1"
         d="m 29.141746,-47.657127 c 7.3025,0 13.229167,5.926667 13.229167,13.229167 0,7.3025 -5.926667,13.229166 -13.229167,13.229166 -7.3025,0 -13.229166,-5.926666 -13.229166,-13.229166 0,-7.3025 5.926666,-13.229167 13.229166,-13.229167 z"
         id="path8"
         style="fill:#b7cfea;stroke-width:0.264583" />
      <path
         class="st1"
         d="m 64.860496,-47.657127 c 7.3025,0 13.229166,5.926667 13.229166,13.229167 0,7.3025 -5.926666,13.229166 -13.229166,13.229166 -7.3025,0 -13.229167,-5.926666 -13.229167,-13.229166 0,-7.3025 5.926667,-13.229167 13.229167,-13.229167 z"
         id="path10"
         style="fill:#b7cfea;stroke-width:0.264583" />
      <path
         class="st1"
         d="m 64.860496,-11.938377 c 7.3025,0 13.229166,5.9266665 13.229166,13.2291664 0,7.3024999 -5.926666,13.2291666 -13.229166,13.2291666 -7.3025,0 -13.229167,-5.9266667 -13.229167,-13.2291666 0,-7.3024999 5.926667,-13.2291664 13.229167,-13.2291664 z"
         id="path12"
         style="fill:#b7cfea;stroke-width:0.264583" />
      <path
         class="st1"
         d="m 64.860496,23.780372 c 7.3025,0 13.229166,5.926667 13.229166,13.229167 0,7.3025 -5.926666,13.229166 -13.229166,13.229166 -7.3025,0 -13.229167,-5.926666 -13.229167,-13.229166 0,-7.3025 5.926667,-13.229167 13.229167,-13.229167 z"
         id="path14"
         style="fill:#b7cfea;stroke-width:0.264583" />
      <path
         class="st1"
         d="m 29.141746,59.499122 c 7.3025,0 13.229167,5.926667 13.229167,13.229167 0,7.302499 -5.926667,13.229166 -13.229167,13.229166 -7.3025,0 -13.229166,-5.926667 -13.229166,-13.229166 0,-7.3025 5.926666,-13.229167 13.229166,-13.229167 z"
         id="path16"
         style="fill:#b7cfea;stroke-width:0.264583" />
    </g>
  </g>
</svg>
