<?xml version="1.0" encoding="UTF-8" standalone="no"?>
<svg
   xmlns:dc="http://purl.org/dc/elements/1.1/"
   xmlns:cc="http://creativecommons.org/ns#"
   xmlns:rdf="http://www.w3.org/1999/02/22-rdf-syntax-ns#"
   xmlns:svg="http://www.w3.org/2000/svg"
   xmlns="http://www.w3.org/2000/svg"
   xmlns:sodipodi="http://sodipodi.sourceforge.net/DTD/sodipodi-0.dtd"
   xmlns:inkscape="http://www.inkscape.org/namespaces/inkscape"
   width="39.999001"
   height="39.999001"
   viewBox="0 0 10.583069 10.583069"
   version="1.1"
   id="svg8"
   inkscape:version="1.0.2-2 (e86c870879, 2021-01-15)"
   sodipodi:docname="facebook.svg">
  <defs
     id="defs2" />
  <sodipodi:namedview
     id="base"
     pagecolor="#ffffff"
     bordercolor="#666666"
     borderopacity="1.0"
     inkscape:pageopacity="0.0"
     inkscape:pageshadow="2"
     inkscape:zoom="3.959798"
     inkscape:cx="32.021614"
     inkscape:cy="5.6055454"
     inkscape:document-units="mm"
     inkscape:current-layer="layer1"
     inkscape:document-rotation="0"
     showgrid="false"
     units="px"
     inkscape:window-width="1680"
     inkscape:window-height="987"
     inkscape:window-x="-8"
     inkscape:window-y="-8"
     inkscape:window-maximized="1" />
  <metadata
     id="metadata5">
    <rdf:RDF>
      <cc:Work
         rdf:about="">
        <dc:format>image/svg+xml</dc:format>
        <dc:type
           rdf:resource="http://purl.org/dc/dcmitype/StillImage" />
        <dc:title></dc:title>
      </cc:Work>
    </rdf:RDF>
  </metadata>
  <g
     inkscape:label="Calque 1"
     inkscape:groupmode="layer"
     id="layer1">
    <g
       id="g4163"
       transform="translate(-193.07189,-1261.1676)">
      <path
         fill="#039be5"
         d="m 198.36342,1261.1676 a 5.2915078,5.29135 0 1 0 0,10.5827 5.2915078,5.29135 0 1 0 0,-10.5827 z"
         id="path2-9"
         style="fill:#f2f7fd;fill-opacity:1;stroke-width:0.278495" />
      <path
         fill="#ffffff"
         d="m 199.07972,1267.8614 h 1.36938 l 0.215,-1.3911 h -1.58466 v -0.7603 c 0,-0.5778 0.18882,-1.0902 0.7294,-1.0902 h 0.86863 v -1.2139 c -0.15262,-0.021 -0.4754,-0.065 -1.08531,-0.065 -1.27358,0 -2.02024,0.6726 -2.02024,2.2048 v 0.9254 h -1.30921 v 1.3911 h 1.30921 v 3.8234 c 0.25929,0.039 0.52191,0.065 0.7915,0.065 0.24369,0 0.48152,-0.022 0.7163,-0.054 z"
         id="path4-4"
         style="fill:#209ce9;fill-opacity:1;stroke-width:0.278495" />
    </g>
  </g>
</svg>
