<?xml version="1.0" encoding="UTF-8" standalone="no"?>
<svg
   xmlns:dc="http://purl.org/dc/elements/1.1/"
   xmlns:cc="http://creativecommons.org/ns#"
   xmlns:rdf="http://www.w3.org/1999/02/22-rdf-syntax-ns#"
   xmlns:svg="http://www.w3.org/2000/svg"
   xmlns="http://www.w3.org/2000/svg"
   xmlns:sodipodi="http://sodipodi.sourceforge.net/DTD/sodipodi-0.dtd"
   xmlns:inkscape="http://www.inkscape.org/namespaces/inkscape"
   width="43.280998"
   height="38.185001"
   viewBox="0 0 11.45143 10.103116"
   version="1.1"
   id="svg8"
   inkscape:version="1.0.2-2 (e86c870879, 2021-01-15)"
   sodipodi:docname="icon2.svg">
  <defs
     id="defs2" />
  <sodipodi:namedview
     id="base"
     pagecolor="#ffffff"
     bordercolor="#666666"
     borderopacity="1.0"
     inkscape:pageopacity="0.0"
     inkscape:pageshadow="2"
     inkscape:zoom="1.979899"
     inkscape:cx="84.548102"
     inkscape:cy="-5.6854254"
     inkscape:document-units="mm"
     inkscape:current-layer="layer1"
     inkscape:document-rotation="0"
     showgrid="false"
     units="px"
     inkscape:window-width="1680"
     inkscape:window-height="987"
     inkscape:window-x="-8"
     inkscape:window-y="-8"
     inkscape:window-maximized="1" />
  <metadata
     id="metadata5">
    <rdf:RDF>
      <cc:Work
         rdf:about="">
        <dc:format>image/svg+xml</dc:format>
        <dc:type
           rdf:resource="http://purl.org/dc/dcmitype/StillImage" />
        <dc:title></dc:title>
      </cc:Work>
    </rdf:RDF>
  </metadata>
  <g
     inkscape:label="Calque 1"
     inkscape:groupmode="layer"
     id="layer1">
    <g
       id="g4705"
       transform="translate(-103.32988,-177.47882)">
      <circle
         cx="107.5918"
         cy="178.79526"
         r="0.62377512"
         fill="#ff6584"
         id="circle4678"
         style="fill:#f8981c;fill-opacity:1;stroke-width:0.0531806" />
      <line
         x1="112.50919"
         y1="185.58542"
         x2="112.50919"
         y2="178.48315"
         fill="#3f3d56"
         stroke="#3f3d56"
         stroke-miterlimit="10"
         stroke-width="0.106362"
         id="line4680" />
      <circle
         cx="112.50919"
         cy="178.48315"
         r="1.0043612"
         fill="#3f3d56"
         id="circle4682"
         style="fill:#ffce39;fill-opacity:1;stroke-width:0.0531806" />
      <path
         d="m 110.53115,182.45976 c -1.45076,2.22479 -1.05325,5.05444 -1.05325,5.05444 0,0 2.74964,-0.77745 4.20039,-3.00224 1.45075,-2.2248 1.05325,-5.05446 1.05325,-5.05446 0,0 -2.74964,0.77746 -4.20039,3.00226 z"
         fill="#3f3d56"
         id="path4684"
         style="fill:#209ce9;fill-opacity:1;stroke-width:0.0531806" />
      <path
         d="m 109.47019,187.48833 c 0,0 -0.0353,-0.006 -0.10033,-0.0187 -0.0519,-0.0105 -0.12323,-0.0255 -0.21039,-0.0462 -0.77924,-0.18373 -2.85092,-0.80478 -4.20536,-2.43762 -1.69522,-2.04464 -1.62384,-4.90119 -1.62384,-4.90119 0,0 2.59205,0.42118 4.30004,2.25728 q 0.11103,0.11836 0.21605,0.24535 c 1.47504,1.779 1.61255,4.17267 1.62345,4.76442 0.002,0.0887 3e-4,0.13676 3e-4,0.13676 z"
         fill="#6c63ff"
         id="path4686"
         style="fill:#dfefff;fill-opacity:1;stroke-width:0.0531806" />
      <path
         d="m 108.42465,182.45976 c 1.45076,2.22479 1.05325,5.05444 1.05325,5.05444 0,0 -2.74963,-0.77745 -4.20038,-3.00224 -1.45076,-2.2248 -1.05325,-5.05446 -1.05325,-5.05446 0,0 2.74964,0.77746 4.20038,3.00226 z"
         fill="none"
         stroke="#3f3d56"
         stroke-miterlimit="10"
         stroke-width="0.106362"
         id="path4688" />
      <path
         d="m 109.46981,187.35157 c -0.0383,0.0462 -0.0722,0.0857 -0.0999,0.11797 -0.0616,0.0703 -0.0966,0.10708 -0.0966,0.10708 0,0 -0.0424,-0.0534 -0.11383,-0.15329 -0.39187,-0.54629 -1.6524,-2.48873 -1.55508,-4.73248 q 0.008,-0.1764 0.0259,-0.34904 0.11101,0.11835 0.21603,0.24533 c 1.47505,1.77901 1.61257,4.17269 1.62346,4.76443 z"
         opacity="0.1"
         id="path4690"
         style="stroke-width:0.0531806" />
      <path
         d="m 111.62089,182.8531 c -0.11467,2.65354 -2.08444,4.72355 -2.08444,4.72355 0,0 -1.78385,-2.23222 -1.66919,-4.88575 0.11467,-2.65354 2.08445,-4.72355 2.08445,-4.72355 0,0 1.78386,2.23222 1.66918,4.88575 z"
         fill="#6c63ff"
         id="path4692"
         style="fill:#dfefff;fill-opacity:1;stroke-width:0.0531806" />
      <line
         x1="109.53646"
         y1="187.50151"
         x2="109.96951"
         y2="178.07558"
         fill="none"
         stroke="#3f3d56"
         stroke-miterlimit="10"
         stroke-width="0.106362"
         id="line4694" />
    </g>
  </g>
</svg>
