<?xml version="1.0" encoding="UTF-8" standalone="no"?>
<svg
   xmlns:dc="http://purl.org/dc/elements/1.1/"
   xmlns:cc="http://creativecommons.org/ns#"
   xmlns:rdf="http://www.w3.org/1999/02/22-rdf-syntax-ns#"
   xmlns:svg="http://www.w3.org/2000/svg"
   xmlns="http://www.w3.org/2000/svg"
   xmlns:sodipodi="http://sodipodi.sourceforge.net/DTD/sodipodi-0.dtd"
   xmlns:inkscape="http://www.inkscape.org/namespaces/inkscape"
   width="31.77"
   height="42.629002"
   viewBox="0 0 8.405812 11.278925"
   version="1.1"
   id="svg8"
   inkscape:version="1.0.2-2 (e86c870879, 2021-01-15)"
   sodipodi:docname="icon3.svg">
  <defs
     id="defs2" />
  <sodipodi:namedview
     id="base"
     pagecolor="#ffffff"
     bordercolor="#666666"
     borderopacity="1.0"
     inkscape:pageopacity="0.0"
     inkscape:pageshadow="2"
     inkscape:zoom="2.8"
     inkscape:cx="59.991155"
     inkscape:cy="-5.6854254"
     inkscape:document-units="mm"
     inkscape:current-layer="layer1"
     inkscape:document-rotation="0"
     showgrid="false"
     units="px"
     inkscape:window-width="1680"
     inkscape:window-height="987"
     inkscape:window-x="-8"
     inkscape:window-y="-8"
     inkscape:window-maximized="1" />
  <metadata
     id="metadata5">
    <rdf:RDF>
      <cc:Work
         rdf:about="">
        <dc:format>image/svg+xml</dc:format>
        <dc:type
           rdf:resource="http://purl.org/dc/dcmitype/StillImage" />
        <dc:title></dc:title>
      </cc:Work>
    </rdf:RDF>
  </metadata>
  <g
     inkscape:label="Calque 1"
     inkscape:groupmode="layer"
     id="layer1">
    <g
       id="g3020"
       transform="matrix(0.08916863,0,0,0.08916863,-25.264985,-11.620991)">
      <circle
         style="fill:#f2f7fd;fill-opacity:1;stroke:#209ce9;stroke-width:0"
         id="path3005"
         cx="330.47372"
         cy="209.60017"
         r="44.010765" />
      <g
         id="g3003"
         transform="translate(38.467969,7.8042809)">
        <path
           id="path2939"
           style="fill:#ffce39;fill-opacity:1;stroke-width:0.461965"
           d="m 292.00553,122.52156 c -3.46678,0 -6.93343,1.26071 -9.3648,3.78168 -2.85718,2.96243 -3.80351,5.34425 -3.792,9.55704 0.008,3.142 0.20312,4.06671 1.30482,6.17327 1.11334,2.12888 1.22216,2.65558 0.77255,3.74034 -1.20753,2.91528 1.24653,6.01387 5.05241,6.37945 2.26912,0.21808 2.33164,0.26379 2.33164,1.70584 v 1.48156 h 7.39129 v -1.54047 c 0,-1.49121 0.0577,-1.54048 1.87844,-1.54048 4.11834,0 6.86863,-3.19438 5.53093,-6.42389 -0.48157,-1.16263 -0.39019,-1.62747 0.74723,-3.80235 1.10178,-2.10656 1.29884,-3.03127 1.30482,-6.17327 0.0102,-4.21279 -0.93488,-6.59461 -3.79201,-9.55704 -2.43139,-2.52097 -5.89854,-3.78168 -9.36532,-3.78168 z m 5.3e-4,3.44578 c 1.00793,1.7e-4 2.01657,0.22454 3.28869,0.67335 5.6425,1.99079 8.20034,9.16535 5.07204,14.22703 v 5.2e-4 l -1.04543,1.69137 h -7.29723 c -7.96261,0 -7.77759,0.0598 -9.01753,-2.90783 -2.12736,-5.09137 0.55092,-11.19055 5.71386,-13.01213 1.27024,-0.44849 2.27767,-0.67248 3.2856,-0.67231 z" />
        <g
           id="g2990"
           transform="translate(1.2140901,16.997261)">
          <path
             id="path2933"
             style="fill:#209ce9;fill-opacity:1;stroke-width:0.264583"
             d="m 315.52224,182.91647 -0.5483,0.69711 c -0.3016,0.38343 -0.54829,1.02223 -0.54829,1.41955 0,0.39731 0.24669,1.03613 0.54829,1.41956 l 0.5483,0.69711 h 4.35837 c 4.27472,0 4.37103,-0.0126 5.00796,-0.64957 0.80341,-0.80338 0.84301,-1.94306 0.10078,-2.88665 l -0.5483,-0.69711 h -4.45915 z" />
          <path
             id="path2968"
             style="fill:#209ce9;fill-opacity:1;stroke-width:0.264583"
             d="m 261.90018,182.3873 c -5.4799,0 -5.93583,0.17623 -5.94383,2.29598 -0.003,0.8897 0.13622,1.21557 0.71417,1.67019 0.68083,0.53553 0.95567,0.56044 5.31544,0.48214 4.46528,-0.0802 4.61236,-0.10081 5.10305,-0.70745 0.72066,-0.89096 0.65533,-2.29179 -0.14418,-3.09129 -0.63739,-0.63743 -0.73109,-0.64957 -5.04465,-0.64957 z" />
          <path
             id="path2966"
             style="fill:#209ce9;fill-opacity:1;stroke-width:0.264583"
             d="m 314.10526,159.60678 c -0.84624,-0.0765 -1.70587,0.62481 -3.83336,2.75229 -2.45094,2.45093 -2.72542,2.82186 -2.72542,3.68039 0,0.7414 0.18182,1.10834 0.81391,1.64021 0.90051,0.75773 1.32112,0.83159 2.17972,0.38292 0.89104,-0.46563 5.16014,-4.82888 5.43687,-5.55676 0.30504,-0.80234 -0.21765,-2.17762 -0.9834,-2.58744 -0.32565,-0.17429 -0.60624,-0.28611 -0.88832,-0.31161 z" />
          <path
             id="path2964"
             style="fill:#f8981c;fill-opacity:1;stroke-width:0.264583"
             d="m 289.8194,164.13105 v 10.48722 10.48773 l -1.52136,-0.17674 c -4.61875,-0.53583 -4.20555,-0.54881 -4.38938,0.13798 -0.35965,1.34367 -0.21998,1.81798 0.53485,1.81798 0.39032,0 1.75954,0.13464 3.04271,0.2992 l 2.33318,0.29921 v 1.81746 1.81746 h 1.19062 1.19063 v -1.70326 -1.70325 l 0.85989,0.13022 c 3.44864,0.52185 13.04743,1.6279 13.21729,1.52291 0.11557,-0.0714 0.21032,-0.5904 0.21032,-1.15342 v -1.02371 l -1.38907,-0.16847 c -0.76398,-0.0924 -3.9489,-0.48754 -7.0776,-0.87849 l -5.68854,-0.71107 -0.0692,-10.64948 -0.0692,-10.64948 h -1.18753 z" />
          <path
             id="path2975"
             style="fill:#209ce9;fill-opacity:1;stroke-width:0.264583"
             d="m 267.61094,159.33754 c -0.47454,-0.0224 -0.87768,0.25016 -1.39113,0.74208 -1.3414,1.28515 -1.09486,1.91595 1.96991,5.04258 1.49158,1.5217 2.93904,2.85394 3.21685,2.96003 1.28393,0.4903 2.89027,-0.6851 2.89027,-2.1146 0,-0.68157 -0.46735,-1.28251 -2.88355,-3.70623 -2.02297,-2.02927 -3.01146,-2.88644 -3.80235,-2.92386 z" />
          <path
             id="path2962"
             style="fill:#209ce9;fill-opacity:1;stroke-width:0.264583"
             d="m 290.94957,150.10813 c -2.08915,0 -2.18851,0.2242 -2.18851,4.93562 0,3.70726 0.046,4.10619 0.52917,4.58938 0.3528,0.35278 0.88194,0.52917 1.5875,0.52917 0.70557,0 1.23473,-0.17639 1.5875,-0.52917 0.48146,-0.48142 0.52917,-0.88189 0.52917,-4.439 0,-4.70823 -0.15201,-5.086 -2.04483,-5.086 z" />
          <path
             id="path2960"
             style="fill:#000000;stroke-width:0.264583"
             d="m 265.34234,208.37383 c 0.10491,0.31915 0.26168,0.62238 0.51987,0.88056 0.3445,0.3445 0.75853,0.51535 1.20199,0.58343 -0.009,-0.007 -0.0196,-0.0138 -0.0289,-0.0212 -0.5812,-0.46123 -1.12982,-0.96044 -1.69292,-1.4428 z" />
          <path
             id="path2958"
             style="fill:#209ce9;fill-opacity:1;stroke-width:0.264583"
             d="m 265.34234,208.37383 c 0.5631,0.48236 1.11172,0.98157 1.69292,1.4428 0.009,0.007 0.0196,0.0138 0.0289,0.0212 0.108,0.0166 0.20672,0.064 0.31936,0.0636 0.76153,-0.002 1.29942,-0.42634 4.24574,-3.35328 2.9362,-2.9169 3.37344,-3.46225 3.37344,-4.2075 0,-0.63131 -0.21422,-1.03596 -0.81443,-1.54099 -1.45728,-1.22623 -1.85885,-1.03244 -5.59087,2.69958 -2.9492,2.9492 -3.38429,3.49526 -3.38429,4.24522 0,0.21886 0.0621,0.42528 0.12919,0.62942 z m 44.33269,-6.67195 c -0.76788,0 -2.39313,1.62462 -2.39313,2.39211 0,0.64267 4.74268,5.70551 5.67872,6.06216 1.29032,0.49164 2.78794,-0.63644 2.78794,-2.10013 0,-0.87073 -0.25998,-1.21783 -2.73986,-3.65818 -1.83341,-1.80416 -2.93619,-2.69596 -3.33367,-2.69596 z m -19.28255,6.8864 c -0.56157,0.0262 -1.11177,0.2426 -1.51153,0.64234 -0.63172,0.63171 -0.64905,0.7572 -0.64905,4.61264 0,4.26569 0.18772,5.20122 1.12035,5.57589 0.79089,0.31771 1.35406,0.3263 2.12804,0.032 1.08556,-0.41273 1.2962,-1.43559 1.20251,-5.83686 -0.0822,-3.85884 -0.11092,-4.04332 -0.71004,-4.52788 -0.4455,-0.36031 -1.01867,-0.52437 -1.58028,-0.49817 z" />
          <path
             id="path2956"
             style="fill:#dfefff;fill-opacity:1;stroke-width:0.264583"
             d="m 290.74544,137.81431 c -5.69259,-0.008 -6.65131,0.0553 -9.26042,0.61443 -6.3596,1.3628 -11.87612,3.65734 -16.93333,7.0435 -10.62357,7.11322 -17.54422,17.4092 -20.27834,30.16818 -0.55907,2.60911 -0.62295,3.56782 -0.61495,9.26042 0.0105,7.22726 0.31949,9.27284 2.27634,15.08125 5.77254,17.13426 20.91482,29.44239 39.08289,31.76757 3.68255,0.47131 9.82967,0.29695 13.82655,-0.39222 16.65544,-2.87187 30.74413,-14.87146 36.44479,-31.041 8.65378,-24.5459 -4.7234,-51.89176 -29.46228,-60.2263 -5.8084,-1.95685 -7.854,-2.26533 -15.08125,-2.27583 z m -1.34927,7.9344 c 7.28411,-0.24654 14.61442,1.5471 21.15272,5.40897 9.67582,5.71507 16.31998,15.21995 18.60093,26.60923 0.72302,3.61023 0.65225,10.96756 -0.14108,14.67456 -1.70069,7.94673 -5.17364,14.40202 -10.74714,19.97552 -3.20958,3.20959 -6.44128,5.53464 -10.31824,7.42384 -3.42488,1.6689 -5.89818,2.52201 -9.525,3.28507 -2.58784,0.54443 -9.54032,0.91975 -11.77396,0.63562 -9.31643,-1.18509 -17.12916,-4.93378 -23.54791,-11.29905 -5.1425,-5.09967 -8.4774,-10.93079 -10.31462,-18.03663 -2.78385,-10.76708 -0.74239,-22.33662 5.58881,-31.67558 2.14815,-3.16868 7.02821,-8.05826 10.14976,-10.16993 6.35377,-4.29821 13.59165,-6.58508 20.87573,-6.83162 z m -0.99322,2.48202 c 1.21354,-0.0583 2.4303,-0.0382 3.64318,0.0548 -1.21288,-0.093 -2.42964,-0.11313 -3.64318,-0.0548 z" />
        </g>
      </g>
    </g>
  </g>
</svg>
