<?xml version="1.0" encoding="UTF-8" standalone="no"?>
<svg
   xmlns:dc="http://purl.org/dc/elements/1.1/"
   xmlns:cc="http://creativecommons.org/ns#"
   xmlns:rdf="http://www.w3.org/1999/02/22-rdf-syntax-ns#"
   xmlns:svg="http://www.w3.org/2000/svg"
   xmlns="http://www.w3.org/2000/svg"
   xmlns:sodipodi="http://sodipodi.sourceforge.net/DTD/sodipodi-0.dtd"
   xmlns:inkscape="http://www.inkscape.org/namespaces/inkscape"
   width="39.999001"
   height="39.999001"
   viewBox="0 0 10.583069 10.583069"
   version="1.1"
   id="svg8"
   inkscape:version="1.0.2-2 (e86c870879, 2021-01-15)"
   sodipodi:docname="telegram.svg">
  <defs
     id="defs2" />
  <sodipodi:namedview
     id="base"
     pagecolor="#ffffff"
     bordercolor="#666666"
     borderopacity="1.0"
     inkscape:pageopacity="0.0"
     inkscape:pageshadow="2"
     inkscape:zoom="3.959798"
     inkscape:cx="32.021614"
     inkscape:cy="5.6055454"
     inkscape:document-units="mm"
     inkscape:current-layer="layer1"
     inkscape:document-rotation="0"
     showgrid="false"
     units="px"
     inkscape:window-width="1680"
     inkscape:window-height="987"
     inkscape:window-x="-8"
     inkscape:window-y="-8"
     inkscape:window-maximized="1" />
  <metadata
     id="metadata5">
    <rdf:RDF>
      <cc:Work
         rdf:about="">
        <dc:format>image/svg+xml</dc:format>
        <dc:type
           rdf:resource="http://purl.org/dc/dcmitype/StillImage" />
        <dc:title></dc:title>
      </cc:Work>
    </rdf:RDF>
  </metadata>
  <g
     inkscape:label="Calque 1"
     inkscape:groupmode="layer"
     id="layer1">
    <g
       id="g4143"
       transform="matrix(0.99997437,0,0,0.9999687,-236.3062,-1220.0917)">
      <path
         fill="url(#BiF7D16UlC0RZ_VqXJHnXa)"
         d="m 246.8956,1225.4216 c 0,2.9223 -2.36935,5.2917 -5.29167,5.2917 -2.92232,0 -5.29167,-2.3694 -5.29167,-5.2917 0,-2.9223 2.36935,-5.2917 5.29167,-5.2917 2.92232,0 5.29167,2.3694 5.29167,5.2917 z"
         id="path7"
         style="fill:#f2f7fd;fill-opacity:1;stroke-width:0.264583" />
      <path
         fill="#ffffff"
         d="m 238.31066,1225.3467 c 1.84944,-0.8136 4.24259,-1.8055 4.57306,-1.9428 0.86651,-0.3593 1.13242,-0.2905 0.99986,0.5053 -0.0953,0.5721 -0.36989,2.4657 -0.58896,3.6444 -0.12991,0.699 -0.42148,0.7819 -0.87974,0.4794 -0.2204,-0.1455 -1.33297,-0.8813 -1.57454,-1.0541 -0.2204,-0.1574 -0.5244,-0.3468 -0.14314,-0.7199 0.13573,-0.1328 1.025,-0.9821 1.71794,-1.6431 0.0908,-0.087 -0.0233,-0.2294 -0.12806,-0.1598 -0.93398,0.6194 -2.22885,1.4791 -2.39368,1.591 -0.24897,0.169 -0.48816,0.2466 -0.91731,0.1233 -0.32438,-0.093 -0.64109,-0.2043 -0.76438,-0.2466 -0.47493,-0.163 -0.36222,-0.3741 0.099,-0.5771 z"
         id="path13"
         style="fill:#209ce9;fill-opacity:1;stroke-width:0.264583" />
    </g>
  </g>
</svg>
